{"glyphs":{"0":{"ha":867,"x_min":88,"x_max":786,"o":"m 372 -11 q 157 77 226 -11 q 88 306 88 165 q 144 549 88 439 q 296 724 200 660 q 504 788 392 788 q 786 472 786 788 q 732 235 786 346 q 583 56 678 124 q 372 -11 488 -11 m 383 50 q 544 110 476 50 q 646 265 611 169 q 681 463 681 360 q 633 658 681 588 q 486 728 586 728 q 324 665 390 728 q 226 506 258 601 q 193 314 193 410 q 240 124 193 199 q 383 50 288 50 z "},"1":{"ha":624,"x_min":81,"x_max":501,"o":"m 236 61 l 324 656 q 125 599 196 611 l 117 651 q 258 704 182 665 q 400 788 333 743 l 444 775 l 342 63 l 501 47 l 496 0 l 81 0 l 86 47 l 236 61 z "},"2":{"ha":806,"x_min":33,"x_max":714,"o":"m 33 46 q 408 286 258 156 q 557 544 557 417 q 385 714 557 714 q 256 683 313 714 q 140 606 199 653 l 113 654 q 245 747 164 707 q 424 788 326 788 q 614 725 557 788 q 671 564 671 663 q 525 301 671 432 q 167 63 379 171 l 599 89 l 661 207 l 714 188 l 661 0 l 43 0 l 33 46 z "},"3":{"ha":735,"x_min":21,"x_max":631,"o":"m 135 -222 q 21 -214 86 -222 l 29 -151 q 126 -158 85 -158 q 311 -126 224 -158 q 452 -32 399 -93 q 506 110 506 29 q 456 238 506 192 q 299 285 406 283 q 224 264 279 276 q 179 251 178 250 l 186 317 q 423 415 329 349 q 517 578 517 482 q 476 679 517 646 q 364 713 435 713 q 238 688 294 713 q 122 622 181 664 l 100 676 q 226 753 143 718 q 408 788 310 788 q 567 740 503 788 q 631 597 631 692 q 557 438 631 511 q 381 326 483 364 q 565 276 508 331 q 621 129 621 221 q 551 -52 621 28 q 368 -177 481 -132 q 135 -222 256 -222 z "},"4":{"ha":850,"x_min":26,"x_max":775,"o":"m 492 0 l 46 0 l 26 51 q 250 393 122 181 q 500 851 378 606 l 521 851 l 599 803 q 254 253 517 650 l 197 165 l 167 125 q 139 90 154 108 q 114 56 124 71 l 500 69 l 539 369 l 639 401 l 599 78 l 775 86 l 764 0 l 588 0 l 556 -254 l 458 -254 l 492 0 z "},"5":{"ha":753,"x_min":28,"x_max":708,"o":"m 33 -174 q 96 -179 65 -179 q 301 -137 201 -179 q 464 -23 401 -96 q 526 139 526 50 q 478 283 526 236 q 325 329 429 329 q 129 283 251 329 l 103 304 l 215 778 l 624 778 l 636 788 l 708 788 l 678 686 l 286 686 l 200 360 q 285 383 236 374 q 376 393 335 393 q 570 332 496 393 q 644 149 644 271 q 565 -55 644 32 q 363 -188 486 -142 q 115 -235 240 -235 q 28 -224 63 -235 l 33 -174 z "},"6":{"ha":849,"x_min":92,"x_max":751,"o":"m 372 -14 q 165 79 238 -14 q 92 318 92 172 q 167 635 92 481 q 375 905 243 790 q 671 1065 507 1019 l 688 1018 q 407 833 531 963 q 231 551 283 704 q 497 663 339 663 q 688 588 624 663 q 751 401 751 514 q 703 200 751 296 q 569 45 656 104 q 372 -14 482 -14 m 396 46 q 531 97 475 46 q 614 224 586 147 q 642 376 642 300 q 597 537 642 478 q 472 596 553 596 q 319 559 375 596 q 219 471 263 522 q 199 308 199 385 q 249 117 199 188 q 396 46 299 46 z "},"7":{"ha":743,"x_min":67,"x_max":732,"o":"m 651 694 l 189 694 l 133 551 l 67 554 l 110 778 l 714 778 l 732 753 l 318 -214 l 210 -178 l 651 694 z "},"8":{"ha":815,"x_min":79,"x_max":761,"o":"m 79 226 q 157 413 79 332 q 360 546 235 493 q 244 663 289 603 q 199 796 199 724 q 239 931 199 872 q 350 1022 279 989 q 510 1054 421 1054 q 690 994 619 1054 q 761 835 761 935 q 695 672 761 742 q 511 547 629 603 q 715 264 715 403 q 667 116 715 179 q 538 19 618 53 q 368 -14 458 -14 q 229 13 296 -14 q 121 93 163 39 q 79 226 79 147 m 467 576 q 608 679 556 614 q 660 826 660 744 q 614 955 660 910 q 499 1000 568 1000 q 353 945 411 1000 q 296 804 296 890 q 340 686 296 738 q 467 576 385 635 m 188 244 q 240 100 188 156 q 383 44 292 44 q 497 70 444 44 q 579 143 549 96 q 610 250 610 190 q 554 381 610 319 q 396 511 499 442 q 250 403 311 475 q 188 244 189 332 z "},"9":{"ha":844,"x_min":90,"x_max":749,"o":"m 468 786 q 622 744 558 786 q 717 628 685 701 q 749 463 749 554 q 673 138 749 294 q 465 -133 597 -19 q 169 -293 333 -247 l 153 -246 q 434 -60 308 -192 q 613 222 560 71 q 499 142 567 175 q 343 110 432 110 q 200 149 257 110 q 117 249 143 188 q 90 381 90 311 q 135 573 90 479 q 267 726 181 667 q 468 786 353 786 m 444 728 q 308 678 365 728 q 223 553 251 628 q 194 404 194 478 q 242 238 194 300 q 368 176 290 176 q 520 214 463 176 q 621 301 578 251 q 642 472 642 381 q 591 657 642 586 q 444 728 540 728 z "},"\u0000":{"ha":833,"x_min":0,"x_max":0,"o":""},"\r":{"ha":329,"x_min":0,"x_max":0,"o":""}," ":{"ha":329,"x_min":0,"x_max":0,"o":""},"A":{"ha":910,"x_min":-82,"x_max":894,"o":"m 499 1032 l 603 1032 l 781 65 l 894 47 l 892 0 l 550 0 l 553 47 l 678 63 l 636 313 l 235 313 l 117 64 l 242 47 l 238 0 l -82 0 l -76 47 l 18 63 l 499 1032 m 535 943 l 267 378 l 625 378 l 544 864 l 535 943 z "},"Á":{"ha":910,"x_min":-82,"x_max":894,"o":"m 499 1032 l 603 1032 l 781 65 l 894 47 l 892 0 l 550 0 l 553 47 l 678 63 l 636 313 l 235 313 l 117 64 l 242 47 l 238 0 l -82 0 l -76 47 l 18 63 l 499 1032 m 535 943 l 267 378 l 625 378 l 544 864 l 535 943 m 699 1357 l 763 1293 q 669 1187 738 1244 q 540 1094 600 1129 l 507 1119 l 699 1357 z "},"Ă":{"ha":910,"x_min":-82,"x_max":894,"o":"m 499 1032 l 603 1032 l 781 65 l 894 47 l 892 0 l 550 0 l 553 47 l 678 63 l 636 313 l 235 313 l 117 64 l 242 47 l 238 0 l -82 0 l -76 47 l 18 63 l 499 1032 m 535 943 l 267 378 l 625 378 l 544 864 l 535 943 m 567 1108 q 423 1169 472 1108 q 374 1315 374 1229 q 375 1342 374 1333 l 431 1342 q 464 1234 433 1281 q 569 1188 494 1188 q 685 1234 643 1188 q 739 1342 728 1281 l 792 1342 q 760 1231 792 1285 q 677 1142 729 1176 q 567 1108 625 1108 z "},"Ắ":{"ha":910,"x_min":-82,"x_max":894,"o":"m 717 1618 l 778 1557 q 684 1452 758 1525 q 563 1354 610 1379 l 536 1381 l 717 1618 m 564 1129 q 458 1160 503 1129 q 391 1242 414 1192 q 368 1349 368 1293 l 368 1363 l 424 1363 l 425 1342 q 467 1249 432 1289 q 565 1208 503 1208 q 649 1234 613 1208 q 706 1295 685 1260 q 733 1363 726 1331 l 786 1363 q 785 1342 786 1347 q 748 1241 779 1290 q 667 1160 717 1192 q 564 1129 618 1129 m 499 1032 l 603 1032 l 781 65 l 894 47 l 892 0 l 550 0 l 553 47 l 678 63 l 636 313 l 235 313 l 117 64 l 242 47 l 238 0 l -82 0 l -76 47 l 18 63 l 499 1032 m 535 943 l 267 378 l 625 378 l 544 864 l 535 943 z "},"Ặ":{"ha":910,"x_min":-82,"x_max":894,"o":"m 499 1032 l 603 1032 l 781 65 l 894 47 l 892 0 l 550 0 l 553 47 l 678 63 l 636 313 l 235 313 l 117 64 l 242 47 l 238 0 l -82 0 l -76 47 l 18 63 l 499 1032 m 535 943 l 267 378 l 625 378 l 544 864 l 535 943 m 315 -206 q 338 -142 315 -168 q 392 -117 361 -117 q 434 -131 419 -117 q 449 -169 449 -144 q 424 -233 449 -208 q 368 -258 400 -258 q 330 -244 344 -258 q 315 -206 315 -231 m 567 1108 q 423 1169 472 1108 q 374 1315 374 1229 q 375 1342 374 1333 l 431 1342 q 464 1234 433 1281 q 569 1188 494 1188 q 685 1234 643 1188 q 739 1342 728 1281 l 792 1342 q 760 1231 792 1285 q 677 1142 729 1176 q 567 1108 625 1108 z "},"Ằ":{"ha":910,"x_min":-82,"x_max":894,"o":"m 599 1336 q 485 1431 557 1363 q 393 1535 414 1499 l 457 1600 l 626 1363 l 599 1336 m 563 1133 q 457 1165 501 1133 q 390 1247 413 1196 q 367 1353 367 1297 l 367 1367 l 422 1367 l 424 1346 q 466 1253 431 1293 q 564 1213 501 1213 q 647 1238 611 1213 q 704 1299 683 1264 q 732 1367 725 1335 l 785 1367 q 783 1346 785 1351 q 747 1245 778 1294 q 666 1165 715 1196 q 563 1133 617 1133 m 499 1032 l 603 1032 l 781 65 l 894 47 l 892 0 l 550 0 l 553 47 l 678 63 l 636 313 l 235 313 l 117 64 l 242 47 l 238 0 l -82 0 l -76 47 l 18 63 l 499 1032 m 535 943 l 267 378 l 625 378 l 544 864 l 535 943 z "},"Ẳ":{"ha":910,"x_min":-82,"x_max":894,"o":"m 499 1032 l 603 1032 l 781 65 l 894 47 l 892 0 l 550 0 l 553 47 l 678 63 l 636 313 l 235 313 l 117 64 l 242 47 l 238 0 l -82 0 l -76 47 l 18 63 l 499 1032 m 535 943 l 267 378 l 625 378 l 544 864 l 535 943 m 567 1129 q 461 1160 506 1129 q 394 1242 417 1192 q 371 1349 371 1293 l 371 1363 l 426 1363 l 428 1342 q 470 1249 435 1289 q 568 1208 506 1208 q 651 1234 615 1208 q 708 1295 688 1260 q 736 1363 729 1331 l 789 1363 q 788 1342 789 1347 q 751 1241 782 1290 q 670 1160 719 1192 q 567 1129 621 1129 m 549 1343 q 538 1370 542 1354 q 535 1397 533 1386 q 553 1427 539 1415 q 592 1453 567 1439 q 629 1477 617 1468 q 649 1501 642 1486 l 650 1508 q 651 1522 651 1513 q 635 1558 651 1543 q 585 1576 618 1572 l 572 1576 q 535 1572 543 1576 l 546 1646 q 571 1653 549 1650 q 610 1657 593 1657 q 711 1629 675 1657 q 747 1551 747 1601 q 724 1476 747 1501 q 653 1422 700 1450 q 614 1397 625 1406 q 593 1351 592 1382 l 549 1343 z "},"Ẵ":{"ha":910,"x_min":-82,"x_max":894,"o":"m 499 1032 l 603 1032 l 781 65 l 894 47 l 892 0 l 550 0 l 553 47 l 678 63 l 636 313 l 235 313 l 117 64 l 242 47 l 238 0 l -82 0 l -76 47 l 18 63 l 499 1032 m 535 943 l 267 378 l 625 378 l 544 864 l 535 943 m 563 1125 q 457 1156 501 1125 q 390 1238 413 1188 q 367 1344 367 1289 l 367 1358 l 422 1358 l 424 1338 q 466 1244 431 1285 q 564 1204 501 1204 q 647 1230 611 1204 q 704 1291 683 1256 q 732 1358 725 1326 l 785 1358 q 783 1338 785 1343 q 747 1237 778 1286 q 666 1156 715 1188 q 563 1125 617 1125 m 365 1494 q 434 1574 389 1540 q 528 1607 479 1607 q 581 1593 560 1607 q 629 1553 603 1579 q 667 1519 650 1531 q 704 1508 683 1508 q 763 1531 739 1508 q 813 1589 788 1553 l 844 1539 q 782 1454 828 1489 q 683 1419 736 1419 q 624 1433 646 1419 q 575 1475 601 1447 q 538 1509 553 1499 q 501 1519 524 1519 q 390 1449 454 1519 l 365 1494 z "},"Â":{"ha":910,"x_min":-82,"x_max":894,"o":"m 499 1032 l 603 1032 l 781 65 l 894 47 l 892 0 l 550 0 l 553 47 l 678 63 l 636 313 l 235 313 l 117 64 l 242 47 l 238 0 l -82 0 l -76 47 l 18 63 l 499 1032 m 535 943 l 267 378 l 625 378 l 544 864 l 535 943 m 339 1136 l 558 1357 l 650 1357 l 800 1135 l 764 1101 l 600 1276 l 372 1104 l 339 1136 z "},"Ấ":{"ha":910,"x_min":-82,"x_max":1018,"o":"m 957 1553 l 1018 1492 q 924 1387 999 1460 q 803 1289 850 1314 l 776 1315 l 957 1553 m 328 1140 l 561 1390 l 654 1390 l 792 1139 l 753 1108 l 594 1310 l 358 1110 l 328 1140 m 499 1032 l 603 1032 l 781 65 l 894 47 l 892 0 l 550 0 l 553 47 l 678 63 l 636 313 l 235 313 l 117 64 l 242 47 l 238 0 l -82 0 l -76 47 l 18 63 l 499 1032 m 535 943 l 267 378 l 625 378 l 544 864 l 535 943 z "},"Ậ":{"ha":910,"x_min":-82,"x_max":894,"o":"m 499 1032 l 603 1032 l 781 65 l 894 47 l 892 0 l 550 0 l 553 47 l 678 63 l 636 313 l 235 313 l 117 64 l 242 47 l 238 0 l -82 0 l -76 47 l 18 63 l 499 1032 m 535 943 l 267 378 l 625 378 l 544 864 l 535 943 m 315 -206 q 338 -142 315 -168 q 392 -117 361 -117 q 434 -131 419 -117 q 449 -169 449 -144 q 424 -233 449 -208 q 368 -258 400 -258 q 330 -244 344 -258 q 315 -206 315 -231 m 339 1136 l 558 1357 l 650 1357 l 800 1135 l 764 1101 l 600 1276 l 372 1104 l 339 1136 z "},"Ầ":{"ha":910,"x_min":-82,"x_max":894,"o":"m 815 1361 q 702 1456 774 1388 q 610 1560 631 1524 l 674 1625 l 843 1388 l 815 1361 m 326 1154 l 560 1404 l 653 1404 l 790 1153 l 751 1122 l 593 1324 l 357 1124 l 326 1154 m 499 1032 l 603 1032 l 781 65 l 894 47 l 892 0 l 550 0 l 553 47 l 678 63 l 636 313 l 235 313 l 117 64 l 242 47 l 238 0 l -82 0 l -76 47 l 18 63 l 499 1032 m 535 943 l 267 378 l 625 378 l 544 864 l 535 943 z "},"Ẩ":{"ha":910,"x_min":-82,"x_max":967,"o":"m 785 1294 q 772 1343 771 1321 q 788 1369 776 1360 q 825 1394 800 1379 q 858 1415 846 1406 q 876 1438 869 1424 l 878 1444 q 868 1485 882 1468 q 818 1506 854 1501 l 807 1506 q 772 1503 783 1506 l 783 1569 q 806 1576 785 1572 q 840 1579 826 1579 q 933 1553 900 1579 q 967 1481 967 1528 q 964 1456 967 1472 q 937 1407 957 1425 q 881 1367 917 1389 q 865 1357 874 1363 q 844 1343 856 1351 q 826 1301 825 1329 l 785 1294 m 318 1157 l 551 1407 l 644 1407 l 782 1156 l 743 1125 l 585 1326 l 349 1126 l 318 1157 m 499 1032 l 603 1032 l 781 65 l 894 47 l 892 0 l 550 0 l 553 47 l 678 63 l 636 313 l 235 313 l 117 64 l 242 47 l 238 0 l -82 0 l -76 47 l 18 63 l 499 1032 m 535 943 l 267 378 l 625 378 l 544 864 l 535 943 z "},"Ẫ":{"ha":910,"x_min":-82,"x_max":894,"o":"m 394 1504 q 457 1576 415 1546 q 542 1606 499 1606 q 590 1593 569 1606 q 633 1557 610 1581 q 669 1526 654 1536 q 703 1517 683 1517 q 757 1538 735 1517 q 800 1590 779 1558 l 829 1544 q 773 1467 814 1499 q 683 1436 732 1436 q 630 1449 650 1436 q 585 1486 610 1461 q 553 1516 568 1506 q 518 1526 539 1526 q 417 1463 478 1526 l 394 1504 m 313 1146 l 546 1396 l 639 1396 l 776 1144 l 738 1114 l 579 1315 l 343 1115 l 313 1146 m 499 1032 l 603 1032 l 781 65 l 894 47 l 892 0 l 550 0 l 553 47 l 678 63 l 636 313 l 235 313 l 117 64 l 242 47 l 238 0 l -82 0 l -76 47 l 18 63 l 499 1032 m 535 943 l 267 378 l 625 378 l 544 864 l 535 943 z "},"Ä":{"ha":910,"x_min":-82,"x_max":894,"o":"m 499 1032 l 603 1032 l 781 65 l 894 47 l 892 0 l 550 0 l 553 47 l 678 63 l 636 313 l 235 313 l 117 64 l 242 47 l 238 0 l -82 0 l -76 47 l 18 63 l 499 1032 m 535 943 l 267 378 l 625 378 l 544 864 l 535 943 m 431 1182 q 390 1201 407 1182 q 372 1247 372 1219 q 397 1306 374 1281 q 449 1331 421 1331 q 494 1313 476 1331 q 510 1267 511 1294 q 486 1207 510 1232 q 431 1182 463 1182 m 715 1182 q 673 1201 690 1182 q 657 1249 656 1219 q 681 1306 657 1282 q 733 1331 706 1331 q 777 1314 760 1331 q 794 1269 794 1297 q 772 1208 794 1233 q 715 1182 749 1182 z "},"Ạ":{"ha":910,"x_min":-82,"x_max":894,"o":"m 499 1032 l 603 1032 l 781 65 l 894 47 l 892 0 l 550 0 l 553 47 l 678 63 l 636 313 l 235 313 l 117 64 l 242 47 l 238 0 l -82 0 l -76 47 l 18 63 l 499 1032 m 535 943 l 267 378 l 625 378 l 544 864 l 535 943 m 315 -206 q 338 -142 315 -168 q 392 -117 361 -117 q 434 -131 419 -117 q 449 -169 449 -144 q 424 -233 449 -208 q 368 -258 400 -258 q 330 -244 344 -258 q 315 -206 315 -231 z "},"À":{"ha":910,"x_min":-82,"x_max":894,"o":"m 499 1032 l 603 1032 l 781 65 l 894 47 l 892 0 l 550 0 l 553 47 l 678 63 l 636 313 l 235 313 l 117 64 l 242 47 l 238 0 l -82 0 l -76 47 l 18 63 l 499 1032 m 535 943 l 267 378 l 625 378 l 544 864 l 535 943 m 575 1094 q 448 1187 517 1128 q 357 1293 379 1246 l 425 1357 l 610 1119 l 575 1094 z "},"Ả":{"ha":910,"x_min":-82,"x_max":894,"o":"m 499 1032 l 603 1032 l 781 65 l 894 47 l 892 0 l 550 0 l 553 47 l 678 63 l 636 313 l 235 313 l 117 64 l 242 47 l 238 0 l -82 0 l -76 47 l 18 63 l 499 1032 m 535 943 l 267 378 l 625 378 l 544 864 l 535 943 m 543 1139 q 532 1166 536 1150 q 529 1193 528 1182 q 547 1223 533 1211 q 586 1249 561 1235 q 624 1273 611 1264 q 643 1297 636 1282 l 644 1304 q 646 1318 646 1308 q 629 1353 646 1339 q 579 1372 613 1368 l 567 1372 q 529 1368 538 1372 l 540 1442 q 565 1449 543 1446 q 604 1453 588 1453 q 706 1425 669 1453 q 742 1347 742 1397 q 718 1272 742 1297 q 647 1218 694 1246 q 608 1193 619 1201 q 588 1147 586 1178 l 543 1139 z "},"Ā":{"ha":910,"x_min":-82,"x_max":894,"o":"m 499 1032 l 603 1032 l 781 65 l 894 47 l 892 0 l 550 0 l 553 47 l 678 63 l 636 313 l 235 313 l 117 64 l 242 47 l 238 0 l -82 0 l -76 47 l 18 63 l 499 1032 m 535 943 l 267 378 l 625 378 l 544 864 l 535 943 m 397 1264 l 743 1264 l 732 1183 l 386 1183 l 397 1264 z "},"Ą":{"ha":910,"x_min":-82,"x_max":894,"o":"m 760 0 q 660 -83 694 -49 q 625 -153 626 -118 q 637 -197 624 -182 q 671 -212 650 -212 q 779 -167 724 -212 l 793 -218 q 624 -282 721 -282 q 549 -257 574 -282 q 524 -197 524 -232 q 531 -156 524 -178 q 549 -118 538 -135 q 608 -56 576 -79 q 699 0 640 -33 l 550 0 l 553 47 l 678 63 l 636 313 l 235 313 l 117 64 l 242 47 l 238 0 l -82 0 l -76 47 l 18 63 l 499 1032 l 603 1032 l 781 65 l 894 47 l 892 0 l 760 0 m 535 943 l 267 378 l 625 378 l 544 864 l 535 943 z "},"Å":{"ha":910,"x_min":-82,"x_max":894,"o":"m 494 1026 q 403 1079 435 1040 q 371 1174 371 1118 q 406 1269 371 1228 q 493 1333 440 1311 q 600 1354 546 1354 q 730 1314 681 1354 q 779 1210 779 1274 q 728 1087 779 1135 q 604 1025 678 1039 l 781 65 l 894 47 l 892 0 l 550 0 l 553 47 l 678 63 l 636 313 l 235 313 l 117 64 l 242 47 l 238 0 l -82 0 l -76 47 l 18 63 l 494 1026 m 592 1310 q 486 1274 533 1310 q 439 1181 439 1239 q 472 1097 439 1131 q 561 1064 506 1064 q 666 1100 622 1064 q 710 1204 710 1136 q 677 1280 710 1250 q 592 1310 644 1310 m 535 943 l 267 378 l 625 378 l 544 864 l 535 943 z "},"Ǻ":{"ha":910,"x_min":-82,"x_max":894,"o":"m 494 1026 q 403 1079 435 1040 q 371 1174 371 1118 q 406 1269 371 1228 q 493 1333 440 1311 q 600 1354 546 1354 q 730 1314 681 1354 q 779 1210 779 1274 q 728 1087 779 1135 q 604 1025 678 1039 l 781 65 l 894 47 l 892 0 l 550 0 l 553 47 l 678 63 l 636 313 l 235 313 l 117 64 l 242 47 l 238 0 l -82 0 l -76 47 l 18 63 l 494 1026 m 592 1310 q 486 1274 533 1310 q 439 1181 439 1239 q 472 1097 439 1131 q 561 1064 506 1064 q 666 1100 622 1064 q 710 1204 710 1136 q 677 1280 710 1250 q 592 1310 644 1310 m 535 943 l 267 378 l 625 378 l 544 864 l 535 943 m 735 1656 l 799 1592 q 705 1485 774 1543 q 576 1393 636 1428 l 543 1418 l 735 1656 z "},"Ã":{"ha":910,"x_min":-82,"x_max":894,"o":"m 499 1032 l 603 1032 l 781 65 l 894 47 l 892 0 l 550 0 l 553 47 l 678 63 l 636 313 l 235 313 l 117 64 l 242 47 l 238 0 l -82 0 l -76 47 l 18 63 l 499 1032 m 535 943 l 267 378 l 625 378 l 544 864 l 535 943 m 332 1221 q 391 1301 353 1269 q 482 1332 429 1332 q 537 1318 513 1332 q 589 1279 561 1304 q 636 1244 617 1256 q 679 1233 656 1233 q 738 1251 715 1233 q 783 1301 760 1269 l 814 1257 q 759 1178 796 1213 q 669 1144 722 1144 q 611 1158 635 1144 q 560 1199 588 1172 q 515 1233 533 1222 q 471 1244 496 1244 q 410 1226 436 1244 q 363 1176 385 1208 l 332 1221 z "},"Æ":{"ha":1233,"x_min":-110,"x_max":1192,"o":"m 290 1032 l 1192 1032 l 1186 833 l 1131 833 l 1108 965 l 782 972 l 729 565 l 1032 579 l 1025 489 l 724 497 l 671 64 l 1072 76 l 1138 219 l 1192 203 l 1143 0 l 472 0 l 478 47 l 567 63 l 600 339 l 257 339 l 117 64 l 271 47 l 267 0 l -110 0 l -101 47 l 11 63 l 494 965 l 283 978 l 290 1032 m 575 964 l 290 406 l 607 406 l 674 960 l 575 964 z "},"Ǽ":{"ha":1233,"x_min":-110,"x_max":1192,"o":"m 953 1357 l 1017 1293 q 923 1187 992 1244 q 794 1094 854 1129 l 761 1119 l 953 1357 m 290 1032 l 1192 1032 l 1186 833 l 1131 833 l 1108 965 l 782 972 l 729 565 l 1032 579 l 1025 489 l 724 497 l 671 64 l 1072 76 l 1138 219 l 1192 203 l 1143 0 l 472 0 l 478 47 l 567 63 l 600 339 l 257 339 l 117 64 l 271 47 l 267 0 l -110 0 l -101 47 l 11 63 l 494 965 l 283 978 l 290 1032 m 575 964 l 290 406 l 607 406 l 674 960 l 575 964 z "},"B":{"ha":867,"x_min":18,"x_max":804,"o":"m 314 1032 q 361 1033 340 1032 q 396 1036 382 1035 q 504 1042 465 1042 q 730 978 656 1042 q 804 819 804 915 q 748 645 804 714 q 590 547 692 576 q 739 475 679 535 q 799 325 799 415 q 670 73 799 156 q 346 -10 542 -10 q 251 -4 318 -10 q 211 -1 233 -3 q 165 0 189 0 l 18 0 l 24 47 l 125 64 l 238 964 l 146 978 l 151 1032 l 314 1032 m 342 569 l 450 569 q 633 631 563 569 q 703 807 703 692 q 651 937 703 894 q 481 979 599 979 q 412 977 451 979 q 339 971 372 975 l 289 569 l 342 569 m 228 69 q 293 60 246 64 q 369 57 340 57 q 603 118 515 57 q 690 314 690 179 q 634 453 690 406 q 469 500 578 500 q 281 497 353 500 l 228 69 z "},"Ḃ":{"ha":863,"x_min":14,"x_max":800,"o":"m 469 1154 q 428 1172 446 1154 q 411 1217 411 1190 q 435 1277 411 1251 q 486 1303 458 1303 q 533 1285 515 1303 q 550 1240 550 1268 q 525 1180 549 1206 q 469 1154 501 1154 m 310 1032 q 357 1033 336 1032 q 392 1036 378 1035 q 500 1042 461 1042 q 726 978 651 1042 q 800 819 800 915 q 744 645 800 714 q 586 547 688 576 q 735 475 675 535 q 794 325 794 415 q 666 73 794 156 q 342 -10 538 -10 q 247 -4 314 -10 q 207 -1 229 -3 q 161 0 185 0 l 14 0 l 19 47 l 121 64 l 233 964 l 142 978 l 147 1032 l 310 1032 m 338 569 l 446 569 q 628 631 558 569 q 699 807 699 692 q 647 937 699 894 q 476 979 594 979 q 408 977 447 979 q 335 971 368 975 l 285 569 l 338 569 m 224 69 q 289 60 242 64 q 365 57 336 57 q 599 118 511 57 q 686 314 686 179 q 630 453 686 406 q 465 500 574 500 q 276 497 349 500 l 224 69 z "},"C":{"ha":836,"x_min":61,"x_max":828,"o":"m 721 942 q 654 968 693 958 q 549 978 615 978 q 341 899 426 978 q 213 698 256 819 q 169 451 169 576 q 196 260 169 350 q 281 112 222 169 q 433 54 340 54 q 553 72 492 54 q 639 121 614 90 l 682 272 l 746 272 l 718 47 q 660 28 710 44 q 543 1 610 13 q 414 -11 476 -11 q 213 55 292 -11 q 97 224 133 121 q 61 442 61 326 q 129 755 61 618 q 312 967 197 892 q 560 1043 426 1043 q 692 1034 639 1043 q 799 1011 746 1025 l 828 1001 l 786 756 l 725 756 l 721 942 z "},"Ć":{"ha":836,"x_min":61,"x_max":828,"o":"m 721 942 q 654 968 693 958 q 549 978 615 978 q 341 899 426 978 q 213 698 256 819 q 169 451 169 576 q 196 260 169 350 q 281 112 222 169 q 433 54 340 54 q 553 72 492 54 q 639 121 614 90 l 682 272 l 746 272 l 718 47 q 660 28 710 44 q 543 1 610 13 q 414 -11 476 -11 q 213 55 292 -11 q 97 224 133 121 q 61 442 61 326 q 129 755 61 618 q 312 967 197 892 q 560 1043 426 1043 q 692 1034 639 1043 q 799 1011 746 1025 l 828 1001 l 786 756 l 725 756 l 721 942 m 678 1357 l 742 1293 q 648 1187 717 1244 q 519 1094 579 1129 l 486 1119 l 678 1357 z "},"Č":{"ha":836,"x_min":61,"x_max":828,"o":"m 721 942 q 654 968 693 958 q 549 978 615 978 q 341 899 426 978 q 213 698 256 819 q 169 451 169 576 q 196 260 169 350 q 281 112 222 169 q 433 54 340 54 q 553 72 492 54 q 639 121 614 90 l 682 272 l 746 272 l 718 47 q 660 28 710 44 q 543 1 610 13 q 414 -11 476 -11 q 213 55 292 -11 q 97 224 133 121 q 61 442 61 326 q 129 755 61 618 q 312 967 197 892 q 560 1043 426 1043 q 692 1034 639 1043 q 799 1011 746 1025 l 828 1001 l 786 756 l 725 756 l 721 942 m 344 1325 l 383 1357 l 543 1176 l 761 1357 l 794 1325 l 586 1100 l 494 1100 l 344 1325 z "},"Ç":{"ha":836,"x_min":61,"x_max":828,"o":"m 549 978 q 341 899 426 978 q 213 698 256 819 q 169 451 169 576 q 196 260 169 350 q 281 112 222 169 q 433 54 340 54 q 553 72 492 54 q 639 121 614 90 l 682 272 l 746 272 l 718 47 q 665 31 707 44 q 569 6 622 17 q 465 -10 517 -6 q 478 -90 478 -42 q 427 -258 478 -201 q 296 -314 376 -314 q 244 -308 269 -314 q 208 -294 219 -303 l 217 -212 q 244 -222 225 -218 q 286 -225 264 -225 q 381 -179 349 -225 q 414 -57 414 -133 q 410 -11 414 -31 q 210 56 289 -10 q 97 224 132 122 q 61 442 61 326 q 129 755 61 618 q 312 967 197 892 q 560 1043 426 1043 q 692 1034 639 1043 q 799 1011 746 1025 l 828 1001 l 786 756 l 725 756 l 721 942 q 654 968 693 958 q 549 978 615 978 z "},"Ĉ":{"ha":836,"x_min":61,"x_max":828,"o":"m 721 942 q 654 968 693 958 q 549 978 615 978 q 341 899 426 978 q 213 698 256 819 q 169 451 169 576 q 196 260 169 350 q 281 112 222 169 q 433 54 340 54 q 553 72 492 54 q 639 121 614 90 l 682 272 l 746 272 l 718 47 q 660 28 710 44 q 543 1 610 13 q 414 -11 476 -11 q 213 55 292 -11 q 97 224 133 121 q 61 442 61 326 q 129 755 61 618 q 312 967 197 892 q 560 1043 426 1043 q 692 1034 639 1043 q 799 1011 746 1025 l 828 1001 l 786 756 l 725 756 l 721 942 m 318 1136 l 538 1357 l 629 1357 l 779 1135 l 743 1101 l 579 1276 l 351 1104 l 318 1136 z "},"Ċ":{"ha":836,"x_min":61,"x_max":828,"o":"m 549 1154 q 508 1172 525 1154 q 490 1217 490 1190 q 514 1277 490 1251 q 565 1303 538 1303 q 612 1285 594 1303 q 629 1240 629 1268 q 604 1180 628 1206 q 549 1154 581 1154 m 721 942 q 654 968 693 958 q 549 978 615 978 q 341 899 426 978 q 213 698 256 819 q 169 451 169 576 q 196 260 169 350 q 281 112 222 169 q 433 54 340 54 q 553 72 492 54 q 639 121 614 90 l 682 272 l 746 272 l 718 47 q 660 28 710 44 q 543 1 610 13 q 414 -11 476 -11 q 213 55 292 -11 q 97 224 133 121 q 61 442 61 326 q 129 755 61 618 q 312 967 197 892 q 560 1043 426 1043 q 692 1034 639 1043 q 799 1011 746 1025 l 828 1001 l 786 756 l 725 756 l 721 942 z "},"D":{"ha":964,"x_min":18,"x_max":917,"o":"m 331 1032 q 418 1038 360 1032 q 526 1043 488 1043 q 823 929 729 1043 q 917 611 917 815 q 850 292 917 436 q 663 67 783 149 q 389 -11 542 -15 q 359 -10 379 -11 q 313 -6 339 -8 q 169 0 251 0 l 18 0 l 22 47 l 124 64 l 238 964 l 146 978 l 151 1032 l 331 1032 m 228 72 q 323 59 267 64 q 417 54 379 54 q 635 140 546 61 q 768 343 724 219 q 813 608 813 467 q 740 892 813 806 q 497 979 667 979 q 340 967 438 979 l 228 72 z "},"Ð":{"ha":961,"x_min":13,"x_max":913,"o":"m 326 1033 q 413 1039 354 1033 q 522 1044 485 1044 q 818 932 724 1044 q 913 617 913 819 q 846 295 913 440 q 658 68 779 150 q 383 -10 538 -14 q 353 -8 374 -8 q 307 -4 332 -7 q 165 1 246 1 l 13 1 l 18 49 l 119 65 l 174 496 l 65 496 l 74 567 l 183 567 l 233 965 l 142 979 l 147 1033 l 326 1033 m 222 74 q 318 60 261 65 q 413 56 375 56 q 631 142 542 63 q 764 347 719 222 q 808 614 808 471 q 735 894 808 808 q 492 981 661 981 q 335 968 432 981 l 285 567 l 575 567 l 567 496 l 275 496 l 222 74 z "},"Ď":{"ha":963,"x_min":14,"x_max":913,"o":"m 335 1325 l 374 1357 l 533 1176 l 751 1357 l 785 1325 l 576 1100 l 485 1100 l 335 1325 m 326 1032 q 414 1038 356 1032 q 522 1043 483 1043 q 819 929 725 1043 q 913 611 913 815 q 846 292 913 436 q 658 67 779 149 q 385 -11 538 -15 q 355 -10 375 -11 q 308 -6 335 -8 q 165 0 247 0 l 14 0 l 18 47 l 119 64 l 233 964 l 142 978 l 147 1032 l 326 1032 m 224 72 q 319 59 263 64 q 413 54 375 54 q 631 140 542 61 q 764 343 719 219 q 808 608 808 467 q 735 892 808 806 q 493 979 663 979 q 336 967 433 979 l 224 72 z "},"Đ":{"ha":961,"x_min":13,"x_max":913,"o":"m 326 1033 q 413 1039 354 1033 q 522 1044 485 1044 q 818 932 724 1044 q 913 617 913 819 q 846 295 913 440 q 658 68 779 150 q 383 -10 538 -14 q 353 -8 374 -8 q 307 -4 332 -7 q 165 1 246 1 l 13 1 l 18 49 l 119 65 l 174 496 l 67 496 l 74 567 l 183 567 l 233 965 l 142 979 l 147 1033 l 326 1033 m 222 74 q 318 60 261 65 q 413 56 375 56 q 631 142 542 63 q 764 347 719 222 q 808 614 808 471 q 735 894 808 808 q 492 981 661 981 q 335 968 432 981 l 285 567 l 575 567 l 568 496 l 275 496 l 222 74 z "},"Ḋ":{"ha":963,"x_min":14,"x_max":913,"o":"m 539 1154 q 498 1172 515 1154 q 481 1217 481 1190 q 504 1277 481 1251 q 556 1303 528 1303 q 602 1285 585 1303 q 619 1240 619 1268 q 594 1180 618 1206 q 539 1154 571 1154 m 326 1032 q 414 1038 356 1032 q 522 1043 483 1043 q 819 929 725 1043 q 913 611 913 815 q 846 292 913 436 q 658 67 779 149 q 385 -11 538 -15 q 355 -10 375 -11 q 308 -6 335 -8 q 165 0 247 0 l 14 0 l 18 47 l 119 64 l 233 964 l 142 978 l 147 1032 l 326 1032 m 224 72 q 319 59 263 64 q 413 54 375 54 q 631 140 542 61 q 764 343 719 219 q 808 608 808 467 q 735 892 808 806 q 493 979 663 979 q 336 967 433 979 l 224 72 z "},"E":{"ha":829,"x_min":18,"x_max":778,"o":"m 151 1032 l 774 1032 l 769 822 l 713 822 l 690 965 l 343 974 l 290 569 l 617 574 l 611 489 l 285 497 l 226 64 l 647 76 l 724 232 l 778 214 l 718 0 l 18 0 l 22 47 l 125 63 l 238 964 l 144 978 l 151 1032 z "},"É":{"ha":829,"x_min":18,"x_max":778,"o":"m 649 1357 l 713 1293 q 619 1187 688 1244 q 490 1094 550 1129 l 457 1119 l 649 1357 m 151 1032 l 774 1032 l 769 822 l 713 822 l 690 965 l 343 974 l 290 569 l 617 574 l 611 489 l 285 497 l 226 64 l 647 76 l 724 232 l 778 214 l 718 0 l 18 0 l 22 47 l 125 63 l 238 964 l 144 978 l 151 1032 z "},"Ĕ":{"ha":829,"x_min":18,"x_max":778,"o":"m 517 1108 q 373 1169 422 1108 q 324 1315 324 1229 q 325 1342 324 1333 l 381 1342 q 414 1234 383 1281 q 519 1188 444 1188 q 635 1234 593 1188 q 689 1342 678 1281 l 742 1342 q 710 1231 742 1285 q 627 1142 679 1176 q 517 1108 575 1108 m 151 1032 l 774 1032 l 769 822 l 713 822 l 690 965 l 343 974 l 290 569 l 617 574 l 611 489 l 285 497 l 226 64 l 647 76 l 724 232 l 778 214 l 718 0 l 18 0 l 22 47 l 125 63 l 238 964 l 144 978 l 151 1032 z "},"Ě":{"ha":829,"x_min":18,"x_max":778,"o":"m 315 1325 l 354 1357 l 514 1176 l 732 1357 l 765 1325 l 557 1100 l 465 1100 l 315 1325 m 151 1032 l 774 1032 l 769 822 l 713 822 l 690 965 l 343 974 l 290 569 l 617 574 l 611 489 l 285 497 l 226 64 l 647 76 l 724 232 l 778 214 l 718 0 l 18 0 l 22 47 l 125 63 l 238 964 l 144 978 l 151 1032 z "},"Ê":{"ha":829,"x_min":18,"x_max":778,"o":"m 151 1032 l 774 1032 l 769 822 l 713 822 l 690 965 l 343 974 l 290 569 l 617 574 l 611 489 l 285 497 l 226 64 l 647 76 l 724 232 l 778 214 l 718 0 l 18 0 l 22 47 l 125 63 l 238 964 l 144 978 l 151 1032 m 289 1136 l 508 1357 l 600 1357 l 750 1135 l 714 1101 l 550 1276 l 322 1104 l 289 1136 z "},"Ế":{"ha":829,"x_min":18,"x_max":968,"o":"m 907 1553 l 968 1492 q 874 1387 949 1460 q 753 1289 800 1314 l 726 1315 l 907 1553 m 278 1140 l 511 1390 l 604 1390 l 742 1139 l 703 1108 l 544 1310 l 308 1110 l 278 1140 m 151 1032 l 774 1032 l 769 822 l 713 822 l 690 965 l 343 974 l 290 569 l 617 574 l 611 489 l 285 497 l 226 64 l 647 76 l 724 232 l 778 214 l 718 0 l 18 0 l 22 47 l 125 63 l 238 964 l 144 978 l 151 1032 z "},"Ệ":{"ha":829,"x_min":18,"x_max":778,"o":"m 151 1032 l 774 1032 l 769 822 l 713 822 l 690 965 l 343 974 l 290 569 l 617 574 l 611 489 l 285 497 l 226 64 l 647 76 l 724 232 l 778 214 l 718 0 l 18 0 l 22 47 l 125 63 l 238 964 l 144 978 l 151 1032 m 275 -206 q 298 -142 275 -168 q 351 -117 321 -117 q 394 -131 379 -117 q 408 -169 408 -144 q 384 -233 408 -208 q 328 -258 360 -258 q 290 -244 304 -258 q 275 -206 275 -231 m 289 1136 l 508 1357 l 600 1357 l 750 1135 l 714 1101 l 550 1276 l 322 1104 l 289 1136 z "},"Ề":{"ha":829,"x_min":18,"x_max":793,"o":"m 765 1361 q 652 1456 724 1388 q 560 1560 581 1524 l 624 1625 l 793 1388 l 765 1361 m 276 1154 l 510 1404 l 603 1404 l 740 1153 l 701 1122 l 543 1324 l 307 1124 l 276 1154 m 151 1032 l 774 1032 l 769 822 l 713 822 l 690 965 l 343 974 l 290 569 l 617 574 l 611 489 l 285 497 l 226 64 l 647 76 l 724 232 l 778 214 l 718 0 l 18 0 l 22 47 l 125 63 l 238 964 l 144 978 l 151 1032 z "},"Ể":{"ha":829,"x_min":18,"x_max":917,"o":"m 735 1294 q 722 1343 721 1321 q 738 1369 726 1360 q 775 1394 750 1379 q 808 1415 796 1406 q 826 1438 819 1424 l 828 1444 q 818 1485 832 1468 q 768 1506 804 1501 l 757 1506 q 722 1503 733 1506 l 733 1569 q 756 1576 735 1572 q 790 1579 776 1579 q 883 1553 850 1579 q 917 1481 917 1528 q 914 1456 917 1472 q 887 1407 907 1425 q 831 1367 867 1389 q 815 1357 824 1363 q 794 1343 806 1351 q 776 1301 775 1329 l 735 1294 m 268 1157 l 501 1407 l 594 1407 l 732 1156 l 693 1125 l 535 1326 l 299 1126 l 268 1157 m 151 1032 l 774 1032 l 769 822 l 713 822 l 690 965 l 343 974 l 290 569 l 617 574 l 611 489 l 285 497 l 226 64 l 647 76 l 724 232 l 778 214 l 718 0 l 18 0 l 22 47 l 125 63 l 238 964 l 144 978 l 151 1032 z "},"Ễ":{"ha":829,"x_min":18,"x_max":779,"o":"m 344 1504 q 407 1576 365 1546 q 492 1606 449 1606 q 540 1593 519 1606 q 583 1557 560 1581 q 619 1526 604 1536 q 653 1517 633 1517 q 707 1538 685 1517 q 750 1590 729 1558 l 779 1544 q 723 1467 764 1499 q 633 1436 682 1436 q 580 1449 600 1436 q 535 1486 560 1461 q 503 1516 518 1506 q 468 1526 489 1526 q 367 1463 428 1526 l 344 1504 m 263 1146 l 496 1396 l 589 1396 l 726 1144 l 688 1114 l 529 1315 l 293 1115 l 263 1146 m 151 1032 l 774 1032 l 769 822 l 713 822 l 690 965 l 343 974 l 290 569 l 617 574 l 611 489 l 285 497 l 226 64 l 647 76 l 724 232 l 778 214 l 718 0 l 18 0 l 22 47 l 125 63 l 238 964 l 144 978 l 151 1032 z "},"Ë":{"ha":829,"x_min":18,"x_max":778,"o":"m 381 1182 q 340 1201 357 1182 q 322 1247 322 1219 q 347 1306 324 1281 q 399 1331 371 1331 q 444 1313 426 1331 q 460 1267 461 1294 q 436 1207 460 1232 q 381 1182 413 1182 m 665 1182 q 623 1201 640 1182 q 607 1249 606 1219 q 631 1306 607 1282 q 683 1331 656 1331 q 727 1314 710 1331 q 744 1269 744 1297 q 722 1208 744 1233 q 665 1182 699 1182 m 151 1032 l 774 1032 l 769 822 l 713 822 l 690 965 l 343 974 l 290 569 l 617 574 l 611 489 l 285 497 l 226 64 l 647 76 l 724 232 l 778 214 l 718 0 l 18 0 l 22 47 l 125 63 l 238 964 l 144 978 l 151 1032 z "},"Ė":{"ha":829,"x_min":18,"x_max":778,"o":"m 519 1154 q 478 1172 496 1154 q 461 1217 461 1190 q 485 1277 461 1251 q 536 1303 508 1303 q 583 1285 565 1303 q 600 1240 600 1268 q 575 1180 599 1206 q 519 1154 551 1154 m 151 1032 l 774 1032 l 769 822 l 713 822 l 690 965 l 343 974 l 290 569 l 617 574 l 611 489 l 285 497 l 226 64 l 647 76 l 724 232 l 778 214 l 718 0 l 18 0 l 22 47 l 125 63 l 238 964 l 144 978 l 151 1032 z "},"Ẹ":{"ha":829,"x_min":18,"x_max":778,"o":"m 151 1032 l 774 1032 l 769 822 l 713 822 l 690 965 l 343 974 l 290 569 l 617 574 l 611 489 l 285 497 l 226 64 l 647 76 l 724 232 l 778 214 l 718 0 l 18 0 l 22 47 l 125 63 l 238 964 l 144 978 l 151 1032 m 275 -206 q 298 -142 275 -168 q 351 -117 321 -117 q 394 -131 379 -117 q 408 -169 408 -144 q 384 -233 408 -208 q 328 -258 360 -258 q 290 -244 304 -258 q 275 -206 275 -231 z "},"È":{"ha":829,"x_min":18,"x_max":778,"o":"m 525 1094 q 398 1187 467 1128 q 307 1293 329 1246 l 375 1357 l 560 1119 l 525 1094 m 151 1032 l 774 1032 l 769 822 l 713 822 l 690 965 l 343 974 l 290 569 l 617 574 l 611 489 l 285 497 l 226 64 l 647 76 l 724 232 l 778 214 l 718 0 l 18 0 l 22 47 l 125 63 l 238 964 l 144 978 l 151 1032 z "},"Ẻ":{"ha":829,"x_min":18,"x_max":778,"o":"m 151 1032 l 774 1032 l 769 822 l 713 822 l 690 965 l 343 974 l 290 569 l 617 574 l 611 489 l 285 497 l 226 64 l 647 76 l 724 232 l 778 214 l 718 0 l 18 0 l 22 47 l 125 63 l 238 964 l 144 978 l 151 1032 m 493 1139 q 482 1166 486 1150 q 479 1193 478 1182 q 497 1223 483 1211 q 536 1249 511 1235 q 574 1273 561 1264 q 593 1297 586 1282 l 594 1304 q 596 1318 596 1308 q 579 1353 596 1339 q 529 1372 563 1368 l 517 1372 q 479 1368 488 1372 l 490 1442 q 515 1449 493 1446 q 554 1453 538 1453 q 656 1425 619 1453 q 692 1347 692 1397 q 668 1272 692 1297 q 597 1218 644 1246 q 558 1193 569 1201 q 538 1147 536 1178 l 493 1139 z "},"Ē":{"ha":829,"x_min":18,"x_max":778,"o":"m 347 1264 l 693 1264 l 682 1183 l 336 1183 l 347 1264 m 151 1032 l 774 1032 l 769 822 l 713 822 l 690 965 l 343 974 l 290 569 l 617 574 l 611 489 l 285 497 l 226 64 l 647 76 l 724 232 l 778 214 l 718 0 l 18 0 l 22 47 l 125 63 l 238 964 l 144 978 l 151 1032 z "},"Ę":{"ha":825,"x_min":18,"x_max":778,"o":"m 663 0 q 561 -85 596 -50 q 526 -157 526 -121 q 540 -199 526 -185 q 574 -212 553 -212 q 681 -167 625 -212 l 694 -218 q 525 -282 625 -282 q 451 -257 476 -282 q 426 -197 426 -232 q 433 -156 426 -178 q 450 -118 439 -133 q 511 -56 478 -79 q 600 0 544 -32 l 18 0 l 22 47 l 125 63 l 238 964 l 144 978 l 151 1032 l 774 1032 l 769 822 l 713 822 l 690 965 l 343 974 l 290 569 l 617 574 l 611 489 l 285 497 l 226 64 l 647 76 l 724 232 l 778 214 l 718 0 l 663 0 z "},"Ẽ":{"ha":829,"x_min":18,"x_max":778,"o":"m 151 1032 l 774 1032 l 769 822 l 713 822 l 690 965 l 343 974 l 290 569 l 617 574 l 611 489 l 285 497 l 226 64 l 647 76 l 724 232 l 778 214 l 718 0 l 18 0 l 22 47 l 125 63 l 238 964 l 144 978 l 151 1032 m 282 1221 q 341 1301 303 1269 q 432 1332 379 1332 q 487 1318 463 1332 q 539 1279 511 1304 q 586 1244 567 1256 q 629 1233 606 1233 q 688 1251 665 1233 q 733 1301 710 1269 l 764 1257 q 709 1178 746 1213 q 619 1144 672 1144 q 561 1158 585 1144 q 510 1199 538 1172 q 465 1233 483 1222 q 421 1244 446 1244 q 360 1226 386 1244 q 313 1176 335 1208 l 282 1221 z "},"F":{"ha":781,"x_min":18,"x_max":800,"o":"m 151 1032 l 800 1032 l 788 822 l 724 822 l 710 963 l 340 972 l 290 568 l 635 574 l 628 488 l 285 496 l 226 65 l 389 47 l 383 0 l 18 0 l 22 47 l 125 64 l 238 964 l 144 978 l 151 1032 z "},"Ḟ":{"ha":781,"x_min":18,"x_max":800,"o":"m 506 1154 q 465 1172 482 1154 q 447 1217 447 1190 q 471 1277 447 1251 q 522 1303 494 1303 q 569 1285 551 1303 q 586 1240 586 1268 q 561 1180 585 1206 q 506 1154 538 1154 m 151 1032 l 800 1032 l 788 822 l 724 822 l 710 963 l 340 972 l 290 568 l 635 574 l 628 488 l 285 496 l 226 65 l 389 47 l 383 0 l 18 0 l 22 47 l 125 64 l 238 964 l 144 978 l 151 1032 z "},"G":{"ha":910,"x_min":68,"x_max":865,"o":"m 772 64 q 725 53 751 61 q 686 42 699 46 q 546 3 610 18 q 413 -11 482 -11 q 218 53 296 -11 q 104 220 140 118 q 68 435 68 322 q 137 753 68 614 q 320 967 206 892 q 568 1043 435 1043 q 720 1033 658 1043 q 839 1006 782 1022 l 865 997 l 826 797 l 761 797 l 758 933 q 681 967 726 956 q 556 979 636 979 q 349 898 435 979 q 219 692 263 817 q 175 442 175 568 q 203 253 175 342 q 292 108 232 164 q 442 53 351 53 q 573 71 506 53 q 676 121 640 89 l 718 418 l 528 428 l 535 490 l 833 490 l 772 64 z "},"Ǵ":{"ha":910,"x_min":68,"x_max":865,"o":"m 772 64 q 725 53 751 61 q 686 42 699 46 q 546 3 610 18 q 413 -11 482 -11 q 218 53 296 -11 q 104 220 140 118 q 68 435 68 322 q 137 753 68 614 q 320 967 206 892 q 568 1043 435 1043 q 720 1033 658 1043 q 839 1006 782 1022 l 865 997 l 826 797 l 761 797 l 758 933 q 681 967 726 956 q 556 979 636 979 q 349 898 435 979 q 219 692 263 817 q 175 442 175 568 q 203 253 175 342 q 292 108 232 164 q 442 53 351 53 q 573 71 506 53 q 676 121 640 89 l 718 418 l 528 428 l 535 490 l 833 490 l 772 64 m 700 1357 l 764 1293 q 670 1187 739 1244 q 542 1094 601 1129 l 508 1119 l 700 1357 z "},"Ğ":{"ha":910,"x_min":68,"x_max":865,"o":"m 568 1108 q 424 1169 474 1108 q 375 1315 375 1229 q 376 1342 375 1333 l 432 1342 q 465 1234 435 1281 q 571 1188 496 1188 q 687 1234 644 1188 q 740 1342 729 1281 l 793 1342 q 762 1231 793 1285 q 678 1142 731 1176 q 568 1108 626 1108 m 772 64 q 725 53 751 61 q 686 42 699 46 q 546 3 610 18 q 413 -11 482 -11 q 218 53 296 -11 q 104 220 140 118 q 68 435 68 322 q 137 753 68 614 q 320 967 206 892 q 568 1043 435 1043 q 720 1033 658 1043 q 839 1006 782 1022 l 865 997 l 826 797 l 761 797 l 758 933 q 681 967 726 956 q 556 979 636 979 q 349 898 435 979 q 219 692 263 817 q 175 442 175 568 q 203 253 175 342 q 292 108 232 164 q 442 53 351 53 q 573 71 506 53 q 676 121 640 89 l 718 418 l 528 428 l 535 490 l 833 490 l 772 64 z "},"Ǧ":{"ha":910,"x_min":68,"x_max":865,"o":"m 772 64 q 725 53 751 61 q 686 42 699 46 q 546 3 610 18 q 413 -11 482 -11 q 218 53 296 -11 q 104 220 140 118 q 68 435 68 322 q 137 753 68 614 q 320 967 206 892 q 568 1043 435 1043 q 720 1033 658 1043 q 839 1006 782 1022 l 865 997 l 826 797 l 761 797 l 758 933 q 681 967 726 956 q 556 979 636 979 q 349 898 435 979 q 219 692 263 817 q 175 442 175 568 q 203 253 175 342 q 292 108 232 164 q 442 53 351 53 q 573 71 506 53 q 676 121 640 89 l 718 418 l 528 428 l 535 490 l 833 490 l 772 64 m 367 1325 l 406 1357 l 565 1176 l 783 1357 l 817 1325 l 608 1100 l 517 1100 l 367 1325 z "},"Ĝ":{"ha":910,"x_min":68,"x_max":865,"o":"m 772 64 q 725 53 751 61 q 686 42 699 46 q 546 3 610 18 q 413 -11 482 -11 q 218 53 296 -11 q 104 220 140 118 q 68 435 68 322 q 137 753 68 614 q 320 967 206 892 q 568 1043 435 1043 q 720 1033 658 1043 q 839 1006 782 1022 l 865 997 l 826 797 l 761 797 l 758 933 q 681 967 726 956 q 556 979 636 979 q 349 898 435 979 q 219 692 263 817 q 175 442 175 568 q 203 253 175 342 q 292 108 232 164 q 442 53 351 53 q 573 71 506 53 q 676 121 640 89 l 718 418 l 528 428 l 535 490 l 833 490 l 772 64 m 340 1136 l 560 1357 l 651 1357 l 801 1135 l 765 1101 l 601 1276 l 374 1104 l 340 1136 z "},"Ģ":{"ha":910,"x_min":68,"x_max":865,"o":"m 307 -344 q 351 -287 333 -324 q 369 -212 369 -251 q 356 -158 369 -183 q 321 -124 342 -132 l 321 -89 l 388 -35 q 443 -86 424 -47 q 463 -174 463 -125 q 443 -270 463 -225 q 397 -344 424 -315 q 346 -379 369 -372 l 307 -357 l 307 -344 m 772 64 q 725 53 751 61 q 686 42 699 46 q 546 3 610 18 q 413 -11 482 -11 q 218 53 296 -11 q 104 220 140 118 q 68 435 68 322 q 137 753 68 614 q 320 967 206 892 q 568 1043 435 1043 q 720 1033 658 1043 q 839 1006 782 1022 l 865 997 l 826 797 l 761 797 l 758 933 q 681 967 726 956 q 556 979 636 979 q 349 898 435 979 q 219 692 263 817 q 175 442 175 568 q 203 253 175 342 q 292 108 232 164 q 442 53 351 53 q 573 71 506 53 q 676 121 640 89 l 718 418 l 528 428 l 535 490 l 833 490 l 772 64 z "},"Ġ":{"ha":910,"x_min":68,"x_max":865,"o":"m 571 1154 q 530 1172 547 1154 q 513 1217 513 1190 q 536 1277 513 1251 q 588 1303 560 1303 q 634 1285 617 1303 q 651 1240 651 1268 q 626 1180 650 1206 q 571 1154 603 1154 m 772 64 q 725 53 751 61 q 686 42 699 46 q 546 3 610 18 q 413 -11 482 -11 q 218 53 296 -11 q 104 220 140 118 q 68 435 68 322 q 137 753 68 614 q 320 967 206 892 q 568 1043 435 1043 q 720 1033 658 1043 q 839 1006 782 1022 l 865 997 l 826 797 l 761 797 l 758 933 q 681 967 726 956 q 556 979 636 979 q 349 898 435 979 q 219 692 263 817 q 175 442 175 568 q 203 253 175 342 q 292 108 232 164 q 442 53 351 53 q 573 71 506 53 q 676 121 640 89 l 718 418 l 528 428 l 535 490 l 833 490 l 772 64 z "},"Ḡ":{"ha":910,"x_min":68,"x_max":865,"o":"m 772 64 q 725 53 751 61 q 686 42 699 46 q 546 3 610 18 q 413 -11 482 -11 q 218 53 296 -11 q 104 220 140 118 q 68 435 68 322 q 137 753 68 614 q 320 967 206 892 q 568 1043 435 1043 q 720 1033 658 1043 q 839 1006 782 1022 l 865 997 l 826 797 l 761 797 l 758 933 q 681 967 726 956 q 556 979 636 979 q 349 898 435 979 q 219 692 263 817 q 175 442 175 568 q 203 253 175 342 q 292 108 232 164 q 442 53 351 53 q 573 71 506 53 q 676 121 640 89 l 718 418 l 528 428 l 535 490 l 833 490 l 772 64 m 399 1264 l 744 1264 l 733 1183 l 388 1183 l 399 1264 z "},"H":{"ha":1028,"x_min":18,"x_max":1035,"o":"m 151 1032 l 447 1032 l 442 978 l 340 964 l 289 563 l 781 563 l 831 964 l 731 978 l 736 1032 l 1035 1032 l 1028 978 l 932 964 l 819 64 l 925 47 l 921 0 l 607 0 l 610 47 l 719 64 l 772 492 l 281 492 l 226 64 l 332 47 l 328 0 l 18 0 l 24 47 l 125 64 l 238 964 l 146 978 l 151 1032 z "},"Ħ":{"ha":1028,"x_min":14,"x_max":1047,"o":"m 147 1032 l 442 1032 l 436 978 l 335 964 l 310 767 l 801 767 l 826 964 l 725 978 l 731 1032 l 1029 1032 l 1022 978 l 928 964 l 903 767 l 1047 767 l 1040 696 l 894 696 l 815 64 l 919 47 l 915 0 l 601 0 l 606 47 l 714 64 l 761 444 l 269 444 l 222 64 l 326 47 l 322 0 l 14 0 l 18 47 l 119 64 l 199 696 l 58 696 l 65 767 l 207 767 l 232 964 l 140 978 l 147 1032 m 301 696 l 278 514 l 769 514 l 792 696 l 301 696 z "},"Ĥ":{"ha":1028,"x_min":18,"x_max":1035,"o":"m 151 1032 l 447 1032 l 442 978 l 340 964 l 289 563 l 781 563 l 831 964 l 731 978 l 736 1032 l 1035 1032 l 1028 978 l 932 964 l 819 64 l 925 47 l 921 0 l 607 0 l 610 47 l 719 64 l 772 492 l 281 492 l 226 64 l 332 47 l 328 0 l 18 0 l 24 47 l 125 64 l 238 964 l 146 978 l 151 1032 m 375 1136 l 594 1357 l 686 1357 l 836 1135 l 800 1101 l 636 1276 l 408 1104 l 375 1136 z "},"I":{"ha":468,"x_min":32,"x_max":461,"o":"m 165 1032 l 461 1032 l 456 978 l 353 964 l 240 64 l 346 47 l 342 0 l 32 0 l 36 47 l 138 64 l 251 964 l 158 978 l 165 1032 z "},"Ĳ":{"ha":947,"x_min":32,"x_max":951,"o":"m 165 1032 l 461 1032 l 456 978 l 353 964 l 240 64 l 346 47 l 342 0 l 32 0 l 36 47 l 138 64 l 251 964 l 158 978 l 165 1032 m 828 965 q 753 306 779 518 q 715 51 728 94 q 588 -145 678 -76 q 382 -233 497 -214 l 363 -186 q 526 -92 454 -162 q 617 61 597 -22 q 660 332 640 171 q 704 728 681 493 l 729 965 l 615 978 l 622 1032 l 951 1032 l 946 978 l 828 965 z "},"Í":{"ha":468,"x_min":32,"x_max":538,"o":"m 165 1032 l 461 1032 l 456 978 l 353 964 l 240 64 l 346 47 l 342 0 l 32 0 l 36 47 l 138 64 l 251 964 l 158 978 l 165 1032 m 474 1357 l 538 1293 q 444 1187 513 1244 q 315 1094 375 1129 l 282 1119 l 474 1357 z "},"Ĭ":{"ha":468,"x_min":32,"x_max":567,"o":"m 165 1032 l 461 1032 l 456 978 l 353 964 l 240 64 l 346 47 l 342 0 l 32 0 l 36 47 l 138 64 l 251 964 l 158 978 l 165 1032 m 342 1108 q 198 1169 247 1108 q 149 1315 149 1229 q 150 1342 149 1333 l 206 1342 q 239 1234 208 1281 q 344 1188 269 1188 q 460 1234 418 1188 q 514 1342 503 1281 l 567 1342 q 535 1231 567 1285 q 452 1142 504 1176 q 342 1108 400 1108 z "},"Î":{"ha":468,"x_min":32,"x_max":575,"o":"m 165 1032 l 461 1032 l 456 978 l 353 964 l 240 64 l 346 47 l 342 0 l 32 0 l 36 47 l 138 64 l 251 964 l 158 978 l 165 1032 m 114 1136 l 333 1357 l 425 1357 l 575 1135 l 539 1101 l 375 1276 l 147 1104 l 114 1136 z "},"Ï":{"ha":468,"x_min":32,"x_max":569,"o":"m 165 1032 l 461 1032 l 456 978 l 353 964 l 240 64 l 346 47 l 342 0 l 32 0 l 36 47 l 138 64 l 251 964 l 158 978 l 165 1032 m 206 1182 q 165 1201 182 1182 q 147 1247 147 1219 q 172 1306 149 1281 q 224 1331 196 1331 q 269 1313 251 1331 q 285 1267 286 1294 q 261 1207 285 1232 q 206 1182 238 1182 m 490 1182 q 448 1201 465 1182 q 432 1249 431 1219 q 456 1306 432 1282 q 508 1331 481 1331 q 552 1314 535 1331 q 569 1269 569 1297 q 547 1208 569 1233 q 490 1182 524 1182 z "},"İ":{"ha":468,"x_min":32,"x_max":461,"o":"m 165 1032 l 461 1032 l 456 978 l 353 964 l 240 64 l 346 47 l 342 0 l 32 0 l 36 47 l 138 64 l 251 964 l 158 978 l 165 1032 m 344 1154 q 303 1172 321 1154 q 286 1217 286 1190 q 310 1277 286 1251 q 361 1303 333 1303 q 408 1285 390 1303 q 425 1240 425 1268 q 400 1180 424 1206 q 344 1154 376 1154 z "},"Ị":{"ha":468,"x_min":32,"x_max":461,"o":"m 165 1032 l 461 1032 l 456 978 l 353 964 l 240 64 l 346 47 l 342 0 l 32 0 l 36 47 l 138 64 l 251 964 l 158 978 l 165 1032 m 94 -206 q 117 -142 94 -168 q 171 -117 140 -117 q 213 -131 199 -117 q 228 -169 228 -144 q 203 -233 228 -208 q 147 -258 179 -258 q 109 -244 124 -258 q 94 -206 94 -231 z "},"Ì":{"ha":468,"x_min":32,"x_max":461,"o":"m 165 1032 l 461 1032 l 456 978 l 353 964 l 240 64 l 346 47 l 342 0 l 32 0 l 36 47 l 138 64 l 251 964 l 158 978 l 165 1032 m 350 1094 q 223 1187 292 1128 q 132 1293 154 1246 l 200 1357 l 385 1119 l 350 1094 z "},"Ỉ":{"ha":468,"x_min":32,"x_max":517,"o":"m 165 1032 l 461 1032 l 456 978 l 353 964 l 240 64 l 346 47 l 342 0 l 32 0 l 36 47 l 138 64 l 251 964 l 158 978 l 165 1032 m 318 1139 q 307 1166 311 1150 q 304 1193 303 1182 q 322 1223 308 1211 q 361 1249 336 1235 q 399 1273 386 1264 q 418 1297 411 1282 l 419 1304 q 421 1318 421 1308 q 404 1353 421 1339 q 354 1372 388 1368 l 342 1372 q 304 1368 313 1372 l 315 1442 q 340 1449 318 1446 q 379 1453 363 1453 q 481 1425 444 1453 q 517 1347 517 1397 q 493 1272 517 1297 q 422 1218 469 1246 q 383 1193 394 1201 q 363 1147 361 1178 l 318 1139 z "},"Ī":{"ha":468,"x_min":32,"x_max":518,"o":"m 165 1032 l 461 1032 l 456 978 l 353 964 l 240 64 l 346 47 l 342 0 l 32 0 l 36 47 l 138 64 l 251 964 l 158 978 l 165 1032 m 172 1264 l 518 1264 l 507 1183 l 161 1183 l 172 1264 z "},"Į":{"ha":468,"x_min":-22,"x_max":461,"o":"m 214 0 q 114 -85 149 -49 q 79 -157 79 -121 q 92 -199 79 -185 q 125 -212 106 -212 q 232 -167 179 -212 l 247 -218 q 78 -282 175 -282 q 3 -257 28 -282 q -22 -197 -22 -232 q -15 -156 -22 -178 q 3 -118 -8 -135 q 63 -56 31 -79 q 153 0 94 -33 l 32 0 l 36 47 l 138 64 l 251 964 l 158 978 l 165 1032 l 461 1032 l 456 978 l 353 964 l 240 64 l 346 47 l 342 0 l 214 0 z "},"Ĩ":{"ha":468,"x_min":32,"x_max":589,"o":"m 165 1032 l 461 1032 l 456 978 l 353 964 l 240 64 l 346 47 l 342 0 l 32 0 l 36 47 l 138 64 l 251 964 l 158 978 l 165 1032 m 107 1221 q 166 1301 128 1269 q 257 1332 204 1332 q 312 1318 288 1332 q 364 1279 336 1304 q 411 1244 392 1256 q 454 1233 431 1233 q 513 1251 490 1233 q 558 1301 535 1269 l 589 1257 q 534 1178 571 1213 q 444 1144 497 1144 q 386 1158 410 1144 q 335 1199 363 1172 q 290 1233 308 1222 q 246 1244 271 1244 q 185 1226 211 1244 q 138 1176 160 1208 l 107 1221 z "},"J":{"ha":479,"x_min":-106,"x_max":483,"o":"m 360 965 q 285 306 311 518 q 247 51 260 94 q 119 -145 210 -76 q -86 -233 29 -214 l -106 -186 q 58 -92 -14 -162 q 149 61 129 -22 q 192 332 172 171 q 236 728 213 493 l 261 965 l 147 978 l 154 1032 l 483 1032 l 478 978 l 360 965 z "},"Ĵ":{"ha":479,"x_min":-106,"x_max":569,"o":"m 360 965 q 285 306 311 518 q 247 51 260 94 q 119 -145 210 -76 q -86 -233 29 -214 l -106 -186 q 58 -92 -14 -162 q 149 61 129 -22 q 192 332 172 171 q 236 728 213 493 l 261 965 l 147 978 l 154 1032 l 483 1032 l 478 978 l 360 965 m 108 1136 l 328 1357 l 419 1357 l 569 1135 l 533 1101 l 369 1276 l 142 1104 l 108 1136 z "},"K":{"ha":914,"x_min":18,"x_max":940,"o":"m 536 447 q 640 278 600 340 q 739 124 713 163 q 786 75 765 86 l 878 51 l 871 0 l 708 0 q 669 40 693 1 q 600 158 644 78 l 551 243 l 463 394 q 408 489 436 443 l 260 328 l 226 64 l 332 47 l 328 0 l 18 0 l 24 47 l 125 64 l 238 964 l 146 978 l 151 1032 l 447 1032 l 442 978 l 340 964 l 272 432 l 750 964 l 656 978 l 663 1032 l 940 1032 l 932 978 l 851 965 l 471 556 l 536 447 z "},"Ķ":{"ha":908,"x_min":14,"x_max":936,"o":"m 313 -343 q 357 -286 339 -322 q 375 -211 375 -250 q 361 -156 375 -182 q 326 -122 347 -131 l 326 -87 l 393 -33 q 449 -85 429 -46 q 468 -172 468 -124 q 449 -269 468 -224 q 402 -342 429 -314 q 351 -378 375 -371 l 313 -356 l 313 -343 m 532 447 q 636 278 596 340 q 735 124 708 163 q 782 75 761 86 l 874 51 l 867 0 l 704 0 q 665 40 689 1 q 596 158 640 78 l 547 243 l 458 394 q 404 489 432 443 l 256 328 l 222 64 l 328 47 l 324 0 l 14 0 l 19 47 l 121 64 l 233 964 l 142 978 l 147 1032 l 443 1032 l 438 978 l 336 964 l 268 432 l 746 964 l 651 978 l 658 1032 l 936 1032 l 928 978 l 847 965 l 467 556 l 532 447 z "},"L":{"ha":792,"x_min":19,"x_max":742,"o":"m 151 1032 l 464 1032 l 460 978 l 340 964 l 226 64 l 596 69 l 681 304 l 742 292 l 676 0 l 19 0 l 24 47 l 125 64 l 238 964 l 146 978 l 151 1032 z "},"Ĺ":{"ha":792,"x_min":19,"x_max":742,"o":"m 469 1358 l 533 1294 q 440 1188 508 1246 q 311 1096 371 1131 l 278 1121 l 469 1358 m 151 1032 l 464 1032 l 460 978 l 340 964 l 226 64 l 596 69 l 681 304 l 742 292 l 676 0 l 19 0 l 24 47 l 125 64 l 238 964 l 146 978 l 151 1032 z "},"Ľ":{"ha":792,"x_min":19,"x_max":742,"o":"m 151 1032 l 464 1032 l 460 978 l 340 964 l 226 64 l 596 69 l 681 304 l 742 292 l 676 0 l 19 0 l 24 47 l 125 64 l 238 964 l 146 978 l 151 1032 m 597 696 q 650 910 640 810 q 651 944 651 921 q 645 1007 651 978 q 631 1049 639 1036 l 640 1071 l 721 1096 q 742 1000 742 1074 q 739 940 742 961 q 700 784 731 857 q 632 665 669 711 l 600 682 l 597 696 z "},"Ļ":{"ha":792,"x_min":19,"x_max":742,"o":"m 256 -343 q 300 -286 282 -322 q 318 -211 318 -250 q 304 -156 318 -182 q 269 -122 290 -131 l 269 -87 l 336 -33 q 392 -85 372 -46 q 411 -172 411 -124 q 392 -269 411 -224 q 345 -342 372 -314 q 294 -378 318 -371 l 256 -356 l 256 -343 m 151 1032 l 464 1032 l 460 978 l 340 964 l 226 64 l 596 69 l 681 304 l 742 292 l 676 0 l 19 0 l 24 47 l 125 64 l 238 964 l 146 978 l 151 1032 z "},"Ŀ":{"ha":792,"x_min":19,"x_max":776,"o":"m 151 1032 l 464 1032 l 460 978 l 340 964 l 226 64 l 596 69 l 681 304 l 742 292 l 676 0 l 19 0 l 24 47 l 125 64 l 238 964 l 146 978 l 151 1032 m 629 565 q 655 633 629 606 q 714 661 681 661 q 761 646 746 661 q 776 603 776 631 q 749 533 776 560 q 688 506 722 506 q 645 522 661 506 q 629 565 629 538 z "},"Ł":{"ha":792,"x_min":19,"x_max":742,"o":"m 151 1033 l 464 1033 l 460 979 l 340 965 l 283 517 l 588 649 l 607 579 l 274 438 l 226 65 l 596 71 l 681 306 l 742 293 l 676 1 l 19 1 l 24 49 l 125 65 l 165 392 l 60 347 l 40 411 l 175 469 l 238 965 l 146 979 l 151 1033 z "},"M":{"ha":1271,"x_min":-33,"x_max":1257,"o":"m 674 311 q 842 681 711 406 q 1003 1032 967 942 l 1257 1032 l 1251 978 l 1128 964 l 1101 64 l 1217 47 l 1213 0 l 868 0 l 874 47 l 1000 63 l 1028 690 l 1047 976 l 940 724 l 607 -3 l 549 -12 l 426 707 l 381 975 l 324 701 l 174 64 l 308 47 l 304 0 l -33 0 l -28 47 l 89 64 l 314 964 l 188 978 l 194 1032 l 463 1032 l 583 314 l 604 163 l 674 311 z "},"Ṁ":{"ha":1271,"x_min":-33,"x_max":1257,"o":"m 724 1154 q 683 1172 700 1154 q 665 1217 665 1190 q 689 1277 665 1251 q 740 1303 713 1303 q 787 1285 769 1303 q 804 1240 804 1268 q 779 1180 803 1206 q 724 1154 756 1154 m 674 311 q 842 681 711 406 q 1003 1032 967 942 l 1257 1032 l 1251 978 l 1128 964 l 1101 64 l 1217 47 l 1213 0 l 868 0 l 874 47 l 1000 63 l 1028 690 l 1047 976 l 940 724 l 607 -3 l 549 -12 l 426 707 l 381 975 l 324 701 l 174 64 l 308 47 l 304 0 l -33 0 l -28 47 l 89 64 l 314 964 l 188 978 l 194 1032 l 463 1032 l 583 314 l 604 163 l 674 311 z "},"N":{"ha":1024,"x_min":21,"x_max":1044,"o":"m 147 1032 l 347 1032 l 697 254 l 751 100 l 854 965 l 744 978 l 751 1032 l 1044 1032 l 1040 978 l 935 964 l 803 0 l 704 0 l 357 772 l 303 926 l 207 64 l 322 47 l 318 0 l 21 0 l 25 47 l 119 63 l 238 964 l 139 978 l 147 1032 z "},"Ń":{"ha":1024,"x_min":21,"x_max":1044,"o":"m 728 1357 l 792 1293 q 698 1187 767 1244 q 569 1094 629 1129 l 536 1119 l 728 1357 m 147 1032 l 347 1032 l 697 254 l 751 100 l 854 965 l 744 978 l 751 1032 l 1044 1032 l 1040 978 l 935 964 l 803 0 l 704 0 l 357 772 l 303 926 l 207 64 l 322 47 l 318 0 l 21 0 l 25 47 l 119 63 l 238 964 l 139 978 l 147 1032 z "},"Ň":{"ha":1024,"x_min":21,"x_max":1044,"o":"m 394 1325 l 433 1357 l 593 1176 l 811 1357 l 844 1325 l 636 1100 l 544 1100 l 394 1325 m 147 1032 l 347 1032 l 697 254 l 751 100 l 854 965 l 744 978 l 751 1032 l 1044 1032 l 1040 978 l 935 964 l 803 0 l 704 0 l 357 772 l 303 926 l 207 64 l 322 47 l 318 0 l 21 0 l 25 47 l 119 63 l 238 964 l 139 978 l 147 1032 z "},"Ņ":{"ha":1024,"x_min":21,"x_max":1044,"o":"m 335 -344 q 379 -287 361 -324 q 397 -212 397 -251 q 383 -158 397 -183 q 349 -124 369 -132 l 349 -89 l 415 -35 q 471 -86 451 -47 q 490 -174 490 -125 q 471 -270 490 -225 q 424 -344 451 -315 q 374 -379 397 -372 l 335 -357 l 335 -344 m 147 1032 l 347 1032 l 697 254 l 751 100 l 854 965 l 744 978 l 751 1032 l 1044 1032 l 1040 978 l 935 964 l 803 0 l 704 0 l 357 772 l 303 926 l 207 64 l 322 47 l 318 0 l 21 0 l 25 47 l 119 63 l 238 964 l 139 978 l 147 1032 z "},"Ṅ":{"ha":1024,"x_min":21,"x_max":1044,"o":"m 147 1032 l 347 1032 l 697 254 l 751 100 l 854 965 l 744 978 l 751 1032 l 1044 1032 l 1040 978 l 935 964 l 803 0 l 704 0 l 357 772 l 303 926 l 207 64 l 322 47 l 318 0 l 21 0 l 25 47 l 119 63 l 238 964 l 139 978 l 147 1032 m 599 1154 q 558 1172 575 1154 q 540 1217 540 1190 q 564 1277 540 1251 q 615 1303 588 1303 q 662 1285 644 1303 q 679 1240 679 1268 q 654 1180 678 1206 q 599 1154 631 1154 z "},"Ŋ":{"ha":1024,"x_min":19,"x_max":1042,"o":"m 803 0 q 699 -167 789 -110 q 489 -247 608 -225 l 471 -200 q 627 -123 563 -172 q 706 -3 692 -74 l 354 763 l 303 897 l 210 64 l 322 47 l 318 0 l 19 0 l 25 47 l 119 63 l 239 965 l 138 979 l 146 1033 l 347 1033 l 701 254 l 750 119 l 849 965 l 744 979 l 751 1033 l 1042 1033 l 1038 979 l 933 965 l 803 0 z "},"Ñ":{"ha":1024,"x_min":21,"x_max":1044,"o":"m 361 1221 q 420 1301 382 1269 q 511 1332 458 1332 q 566 1318 542 1332 q 618 1279 590 1304 q 665 1244 646 1256 q 708 1233 685 1233 q 767 1251 744 1233 q 813 1301 789 1269 l 843 1257 q 788 1178 825 1213 q 699 1144 751 1144 q 640 1158 664 1144 q 589 1199 617 1172 q 544 1233 563 1222 q 500 1244 525 1244 q 440 1226 465 1244 q 392 1176 414 1208 l 361 1221 m 147 1032 l 347 1032 l 697 254 l 751 100 l 854 965 l 744 978 l 751 1032 l 1044 1032 l 1040 978 l 935 964 l 803 0 l 704 0 l 357 772 l 303 926 l 207 64 l 322 47 l 318 0 l 21 0 l 25 47 l 119 63 l 238 964 l 139 978 l 147 1032 z "},"O":{"ha":938,"x_min":79,"x_max":886,"o":"m 549 1046 q 735 986 660 1046 q 849 826 811 926 q 886 601 886 725 q 825 288 886 428 q 658 67 764 147 q 419 -14 551 -14 q 234 45 311 -14 q 118 206 157 104 q 79 433 79 307 q 141 747 79 607 q 310 967 203 888 q 549 1046 418 1046 m 532 978 q 354 910 435 978 q 228 721 274 842 q 182 447 182 600 q 249 159 182 267 q 435 51 317 51 q 610 120 531 51 q 734 310 689 189 q 779 582 779 431 q 716 870 779 763 q 532 978 653 978 z "},"Ó":{"ha":938,"x_min":79,"x_max":886,"o":"m 700 1357 l 764 1293 q 670 1187 739 1244 q 542 1094 601 1129 l 508 1119 l 700 1357 m 549 1046 q 735 986 660 1046 q 849 826 811 926 q 886 601 886 725 q 825 288 886 428 q 658 67 764 147 q 419 -14 551 -14 q 234 45 311 -14 q 118 206 157 104 q 79 433 79 307 q 141 747 79 607 q 310 967 203 888 q 549 1046 418 1046 m 532 978 q 354 910 435 978 q 228 721 274 842 q 182 447 182 600 q 249 159 182 267 q 435 51 317 51 q 610 120 531 51 q 734 310 689 189 q 779 582 779 431 q 716 870 779 763 q 532 978 653 978 z "},"Ŏ":{"ha":938,"x_min":79,"x_max":886,"o":"m 567 1108 q 423 1169 472 1108 q 374 1315 374 1229 q 375 1342 374 1333 l 431 1342 q 464 1234 433 1281 q 569 1188 494 1188 q 685 1234 643 1188 q 739 1342 728 1281 l 792 1342 q 760 1231 792 1285 q 677 1142 729 1176 q 567 1108 625 1108 m 549 1046 q 735 986 660 1046 q 849 826 811 926 q 886 601 886 725 q 825 288 886 428 q 658 67 764 147 q 419 -14 551 -14 q 234 45 311 -14 q 118 206 157 104 q 79 433 79 307 q 141 747 79 607 q 310 967 203 888 q 549 1046 418 1046 m 532 978 q 354 910 435 978 q 228 721 274 842 q 182 447 182 600 q 249 159 182 267 q 435 51 317 51 q 610 120 531 51 q 734 310 689 189 q 779 582 779 431 q 716 870 779 763 q 532 978 653 978 z "},"Ô":{"ha":938,"x_min":79,"x_max":886,"o":"m 549 1046 q 735 986 660 1046 q 849 826 811 926 q 886 601 886 725 q 825 288 886 428 q 658 67 764 147 q 419 -14 551 -14 q 234 45 311 -14 q 118 206 157 104 q 79 433 79 307 q 141 747 79 607 q 310 967 203 888 q 549 1046 418 1046 m 532 978 q 354 910 435 978 q 228 721 274 842 q 182 447 182 600 q 249 159 182 267 q 435 51 317 51 q 610 120 531 51 q 734 310 689 189 q 779 582 779 431 q 716 870 779 763 q 532 978 653 978 m 340 1136 l 560 1357 l 651 1357 l 801 1135 l 765 1101 l 601 1276 l 374 1104 l 340 1136 z "},"Ố":{"ha":938,"x_min":79,"x_max":1019,"o":"m 958 1553 l 1019 1492 q 926 1387 1000 1460 q 804 1289 851 1314 l 778 1315 l 958 1553 m 329 1140 l 563 1390 l 656 1390 l 793 1139 l 754 1108 l 596 1310 l 360 1110 l 329 1140 m 549 1046 q 735 986 660 1046 q 849 826 811 926 q 886 601 886 725 q 825 288 886 428 q 658 67 764 147 q 419 -14 551 -14 q 234 45 311 -14 q 118 206 157 104 q 79 433 79 307 q 141 747 79 607 q 310 967 203 888 q 549 1046 418 1046 m 532 978 q 354 910 435 978 q 228 721 274 842 q 182 447 182 600 q 249 159 182 267 q 435 51 317 51 q 610 120 531 51 q 734 310 689 189 q 779 582 779 431 q 716 870 779 763 q 532 978 653 978 z "},"Ộ":{"ha":938,"x_min":79,"x_max":886,"o":"m 549 1046 q 735 986 660 1046 q 849 826 811 926 q 886 601 886 725 q 825 288 886 428 q 658 67 764 147 q 419 -14 551 -14 q 234 45 311 -14 q 118 206 157 104 q 79 433 79 307 q 141 747 79 607 q 310 967 203 888 q 549 1046 418 1046 m 532 978 q 354 910 435 978 q 228 721 274 842 q 182 447 182 600 q 249 159 182 267 q 435 51 317 51 q 610 120 531 51 q 734 310 689 189 q 779 582 779 431 q 716 870 779 763 q 532 978 653 978 m 329 -206 q 352 -142 329 -168 q 406 -117 375 -117 q 448 -131 433 -117 q 463 -169 463 -144 q 438 -233 463 -208 q 382 -258 414 -258 q 344 -244 358 -258 q 329 -206 329 -231 m 340 1136 l 560 1357 l 651 1357 l 801 1135 l 765 1101 l 601 1276 l 374 1104 l 340 1136 z "},"Ồ":{"ha":938,"x_min":79,"x_max":886,"o":"m 817 1361 q 703 1456 775 1388 q 611 1560 632 1524 l 675 1625 l 844 1388 l 817 1361 m 328 1154 l 561 1404 l 654 1404 l 792 1153 l 753 1122 l 594 1324 l 358 1124 l 328 1154 m 549 1046 q 735 986 660 1046 q 849 826 811 926 q 886 601 886 725 q 825 288 886 428 q 658 67 764 147 q 419 -14 551 -14 q 234 45 311 -14 q 118 206 157 104 q 79 433 79 307 q 141 747 79 607 q 310 967 203 888 q 549 1046 418 1046 m 532 978 q 354 910 435 978 q 228 721 274 842 q 182 447 182 600 q 249 159 182 267 q 435 51 317 51 q 610 120 531 51 q 734 310 689 189 q 779 582 779 431 q 716 870 779 763 q 532 978 653 978 z "},"Ổ":{"ha":938,"x_min":79,"x_max":968,"o":"m 786 1294 q 774 1343 772 1321 q 790 1369 778 1360 q 826 1394 801 1379 q 859 1415 847 1406 q 878 1438 871 1424 l 879 1444 q 869 1485 883 1468 q 819 1506 856 1501 l 808 1506 q 774 1503 785 1506 l 785 1569 q 807 1576 786 1572 q 842 1579 828 1579 q 935 1553 901 1579 q 968 1481 968 1528 q 965 1456 968 1472 q 938 1407 958 1425 q 882 1367 918 1389 q 866 1357 875 1363 q 846 1343 857 1351 q 828 1301 826 1329 l 786 1294 m 319 1157 l 553 1407 l 646 1407 l 783 1156 l 744 1125 l 586 1326 l 350 1126 l 319 1157 m 549 1046 q 735 986 660 1046 q 849 826 811 926 q 886 601 886 725 q 825 288 886 428 q 658 67 764 147 q 419 -14 551 -14 q 234 45 311 -14 q 118 206 157 104 q 79 433 79 307 q 141 747 79 607 q 310 967 203 888 q 549 1046 418 1046 m 532 978 q 354 910 435 978 q 228 721 274 842 q 182 447 182 600 q 249 159 182 267 q 435 51 317 51 q 610 120 531 51 q 734 310 689 189 q 779 582 779 431 q 716 870 779 763 q 532 978 653 978 z "},"Ỗ":{"ha":938,"x_min":79,"x_max":886,"o":"m 396 1504 q 458 1576 417 1546 q 543 1606 500 1606 q 591 1593 571 1606 q 635 1557 611 1581 q 670 1526 656 1536 q 704 1517 685 1517 q 758 1538 736 1517 q 801 1590 781 1558 l 831 1544 q 774 1467 815 1499 q 685 1436 733 1436 q 631 1449 651 1436 q 586 1486 611 1461 q 555 1516 569 1506 q 519 1526 540 1526 q 418 1463 479 1526 l 396 1504 m 314 1146 l 547 1396 l 640 1396 l 778 1144 l 739 1114 l 581 1315 l 344 1115 l 314 1146 m 549 1046 q 735 986 660 1046 q 849 826 811 926 q 886 601 886 725 q 825 288 886 428 q 658 67 764 147 q 419 -14 551 -14 q 234 45 311 -14 q 118 206 157 104 q 79 433 79 307 q 141 747 79 607 q 310 967 203 888 q 549 1046 418 1046 m 532 978 q 354 910 435 978 q 228 721 274 842 q 182 447 182 600 q 249 159 182 267 q 435 51 317 51 q 610 120 531 51 q 734 310 689 189 q 779 582 779 431 q 716 870 779 763 q 532 978 653 978 z "},"Ö":{"ha":938,"x_min":79,"x_max":886,"o":"m 432 1182 q 391 1201 408 1182 q 374 1247 374 1219 q 399 1306 375 1281 q 450 1331 422 1331 q 495 1313 478 1331 q 511 1267 513 1294 q 488 1207 511 1232 q 432 1182 464 1182 m 717 1182 q 674 1201 692 1182 q 658 1249 657 1219 q 683 1306 658 1282 q 735 1331 707 1331 q 778 1314 761 1331 q 796 1269 796 1297 q 773 1208 796 1233 q 717 1182 750 1182 m 549 1046 q 735 986 660 1046 q 849 826 811 926 q 886 601 886 725 q 825 288 886 428 q 658 67 764 147 q 419 -14 551 -14 q 234 45 311 -14 q 118 206 157 104 q 79 433 79 307 q 141 747 79 607 q 310 967 203 888 q 549 1046 418 1046 m 532 978 q 354 910 435 978 q 228 721 274 842 q 182 447 182 600 q 249 159 182 267 q 435 51 317 51 q 610 120 531 51 q 734 310 689 189 q 779 582 779 431 q 716 870 779 763 q 532 978 653 978 z "},"Ọ":{"ha":938,"x_min":79,"x_max":886,"o":"m 549 1046 q 735 986 660 1046 q 849 826 811 926 q 886 601 886 725 q 825 288 886 428 q 658 67 764 147 q 419 -14 551 -14 q 234 45 311 -14 q 118 206 157 104 q 79 433 79 307 q 141 747 79 607 q 310 967 203 888 q 549 1046 418 1046 m 532 978 q 354 910 435 978 q 228 721 274 842 q 182 447 182 600 q 249 159 182 267 q 435 51 317 51 q 610 120 531 51 q 734 310 689 189 q 779 582 779 431 q 716 870 779 763 q 532 978 653 978 m 329 -206 q 352 -142 329 -168 q 406 -117 375 -117 q 448 -131 433 -117 q 463 -169 463 -144 q 438 -233 463 -208 q 382 -258 414 -258 q 344 -244 358 -258 q 329 -206 329 -231 z "},"Ò":{"ha":938,"x_min":79,"x_max":886,"o":"m 576 1094 q 449 1187 518 1128 q 358 1293 381 1246 l 426 1357 l 611 1119 l 576 1094 m 549 1046 q 735 986 660 1046 q 849 826 811 926 q 886 601 886 725 q 825 288 886 428 q 658 67 764 147 q 419 -14 551 -14 q 234 45 311 -14 q 118 206 157 104 q 79 433 79 307 q 141 747 79 607 q 310 967 203 888 q 549 1046 418 1046 m 532 978 q 354 910 435 978 q 228 721 274 842 q 182 447 182 600 q 249 159 182 267 q 435 51 317 51 q 610 120 531 51 q 734 310 689 189 q 779 582 779 431 q 716 870 779 763 q 532 978 653 978 z "},"Ỏ":{"ha":938,"x_min":79,"x_max":886,"o":"m 549 1046 q 735 986 660 1046 q 849 826 811 926 q 886 601 886 725 q 825 288 886 428 q 658 67 764 147 q 419 -14 551 -14 q 234 45 311 -14 q 118 206 157 104 q 79 433 79 307 q 141 747 79 607 q 310 967 203 888 q 549 1046 418 1046 m 532 978 q 354 910 435 978 q 228 721 274 842 q 182 447 182 600 q 249 159 182 267 q 435 51 317 51 q 610 120 531 51 q 734 310 689 189 q 779 582 779 431 q 716 870 779 763 q 532 978 653 978 m 544 1139 q 533 1166 538 1150 q 531 1193 529 1182 q 549 1223 535 1211 q 588 1249 563 1235 q 625 1273 613 1264 q 644 1297 638 1282 l 646 1304 q 647 1318 647 1308 q 631 1353 647 1339 q 581 1372 614 1368 l 568 1372 q 531 1368 539 1372 l 542 1442 q 567 1449 544 1446 q 606 1453 589 1453 q 707 1425 671 1453 q 743 1347 743 1397 q 719 1272 743 1297 q 649 1218 696 1246 q 610 1193 621 1201 q 589 1147 588 1178 l 544 1139 z "},"Ơ":{"ha":938,"x_min":79,"x_max":907,"o":"m 904 1147 q 855 1041 896 1086 q 751 974 814 996 q 852 817 818 915 q 886 601 886 719 q 825 288 886 428 q 658 67 764 147 q 419 -14 551 -14 q 234 45 311 -14 q 118 206 157 104 q 79 433 79 307 q 141 747 79 607 q 310 967 203 888 q 549 1046 418 1046 q 654 1029 607 1046 q 758 1064 728 1031 q 804 1154 788 1097 q 808 1166 806 1158 q 810 1178 811 1174 l 907 1178 q 904 1147 907 1167 m 779 582 q 716 870 779 763 q 532 978 653 978 q 354 910 435 978 q 228 721 274 842 q 182 447 182 600 q 249 159 182 267 q 435 51 317 51 q 610 120 531 51 q 734 310 689 189 q 779 582 779 431 z "},"Ớ":{"ha":938,"x_min":79,"x_max":907,"o":"m 904 1147 q 855 1041 896 1086 q 751 974 814 996 q 852 817 818 915 q 886 601 886 719 q 825 288 886 428 q 658 67 764 147 q 419 -14 551 -14 q 234 45 311 -14 q 118 206 157 104 q 79 433 79 307 q 141 747 79 607 q 310 967 203 888 q 549 1046 418 1046 q 654 1029 607 1046 q 758 1064 728 1031 q 804 1154 788 1097 q 808 1166 806 1158 q 810 1178 811 1174 l 907 1178 q 904 1147 907 1167 m 779 582 q 716 870 779 763 q 532 978 653 978 q 354 910 435 978 q 228 721 274 842 q 182 447 182 600 q 249 159 182 267 q 435 51 317 51 q 610 120 531 51 q 734 310 689 189 q 779 582 779 431 m 700 1357 l 764 1293 q 670 1187 739 1244 q 542 1094 601 1129 l 508 1119 l 700 1357 z "},"Ợ":{"ha":938,"x_min":79,"x_max":907,"o":"m 904 1147 q 855 1041 896 1086 q 751 974 814 996 q 852 817 818 915 q 886 601 886 719 q 825 288 886 428 q 658 67 764 147 q 419 -14 551 -14 q 234 45 311 -14 q 118 206 157 104 q 79 433 79 307 q 141 747 79 607 q 310 967 203 888 q 549 1046 418 1046 q 654 1029 607 1046 q 758 1064 728 1031 q 804 1154 788 1097 q 808 1166 806 1158 q 810 1178 811 1174 l 907 1178 q 904 1147 907 1167 m 779 582 q 716 870 779 763 q 532 978 653 978 q 354 910 435 978 q 228 721 274 842 q 182 447 182 600 q 249 159 182 267 q 435 51 317 51 q 610 120 531 51 q 734 310 689 189 q 779 582 779 431 m 329 -206 q 352 -142 329 -168 q 406 -117 375 -117 q 448 -131 433 -117 q 463 -169 463 -144 q 438 -233 463 -208 q 382 -258 414 -258 q 344 -244 358 -258 q 329 -206 329 -231 z "},"Ờ":{"ha":938,"x_min":79,"x_max":907,"o":"m 904 1147 q 855 1041 896 1086 q 751 974 814 996 q 852 817 818 915 q 886 601 886 719 q 825 288 886 428 q 658 67 764 147 q 419 -14 551 -14 q 234 45 311 -14 q 118 206 157 104 q 79 433 79 307 q 141 747 79 607 q 310 967 203 888 q 549 1046 418 1046 q 654 1029 607 1046 q 758 1064 728 1031 q 804 1154 788 1097 q 808 1166 806 1158 q 810 1178 811 1174 l 907 1178 q 904 1147 907 1167 m 779 582 q 716 870 779 763 q 532 978 653 978 q 354 910 435 978 q 228 721 274 842 q 182 447 182 600 q 249 159 182 267 q 435 51 317 51 q 610 120 531 51 q 734 310 689 189 q 779 582 779 431 m 576 1094 q 449 1187 518 1128 q 358 1293 381 1246 l 426 1357 l 611 1119 l 576 1094 z "},"Ở":{"ha":938,"x_min":79,"x_max":907,"o":"m 904 1147 q 855 1041 896 1086 q 751 974 814 996 q 852 817 818 915 q 886 601 886 719 q 825 288 886 428 q 658 67 764 147 q 419 -14 551 -14 q 234 45 311 -14 q 118 206 157 104 q 79 433 79 307 q 141 747 79 607 q 310 967 203 888 q 549 1046 418 1046 q 654 1029 607 1046 q 758 1064 728 1031 q 804 1154 788 1097 q 808 1166 806 1158 q 810 1178 811 1174 l 907 1178 q 904 1147 907 1167 m 779 582 q 716 870 779 763 q 532 978 653 978 q 354 910 435 978 q 228 721 274 842 q 182 447 182 600 q 249 159 182 267 q 435 51 317 51 q 610 120 531 51 q 734 310 689 189 q 779 582 779 431 m 544 1139 q 533 1166 538 1150 q 531 1193 529 1182 q 549 1223 535 1211 q 588 1249 563 1235 q 625 1273 613 1264 q 644 1297 638 1282 l 646 1304 q 647 1318 647 1308 q 631 1353 647 1339 q 581 1372 614 1368 l 568 1372 q 531 1368 539 1372 l 542 1442 q 567 1449 544 1446 q 606 1453 589 1453 q 707 1425 671 1453 q 743 1347 743 1397 q 719 1272 743 1297 q 649 1218 696 1246 q 610 1193 621 1201 q 589 1147 588 1178 l 544 1139 z "},"Ỡ":{"ha":938,"x_min":79,"x_max":907,"o":"m 904 1147 q 855 1041 896 1086 q 751 974 814 996 q 852 817 818 915 q 886 601 886 719 q 825 288 886 428 q 658 67 764 147 q 419 -14 551 -14 q 234 45 311 -14 q 118 206 157 104 q 79 433 79 307 q 141 747 79 607 q 310 967 203 888 q 549 1046 418 1046 q 654 1029 607 1046 q 758 1064 728 1031 q 804 1154 788 1097 q 808 1166 806 1158 q 810 1178 811 1174 l 907 1178 q 904 1147 907 1167 m 779 582 q 716 870 779 763 q 532 978 653 978 q 354 910 435 978 q 228 721 274 842 q 182 447 182 600 q 249 159 182 267 q 435 51 317 51 q 610 120 531 51 q 734 310 689 189 q 779 582 779 431 m 333 1221 q 392 1301 354 1269 q 483 1332 431 1332 q 538 1318 514 1332 q 590 1279 563 1304 q 638 1244 618 1256 q 681 1233 657 1233 q 739 1251 717 1233 q 785 1301 761 1269 l 815 1257 q 760 1178 797 1213 q 671 1144 724 1144 q 613 1158 636 1144 q 561 1199 589 1172 q 516 1233 535 1222 q 472 1244 497 1244 q 412 1226 438 1244 q 364 1176 386 1208 l 333 1221 z "},"Ő":{"ha":938,"x_min":79,"x_max":943,"o":"m 549 1046 q 735 986 660 1046 q 849 826 811 926 q 886 601 886 725 q 825 288 886 428 q 658 67 764 147 q 419 -14 551 -14 q 234 45 311 -14 q 118 206 157 104 q 79 433 79 307 q 141 747 79 607 q 310 967 203 888 q 549 1046 418 1046 m 532 978 q 354 910 435 978 q 228 721 274 842 q 182 447 182 600 q 249 159 182 267 q 435 51 317 51 q 610 120 531 51 q 734 310 689 189 q 779 582 779 431 q 716 870 779 763 q 532 978 653 978 m 874 1354 l 943 1290 q 849 1183 908 1236 q 729 1093 790 1131 l 681 1128 l 874 1354 m 582 1353 l 651 1289 q 568 1191 626 1240 q 433 1092 510 1142 l 390 1126 l 582 1353 z "},"Ō":{"ha":938,"x_min":79,"x_max":886,"o":"m 397 1264 l 743 1264 l 732 1183 l 386 1183 l 397 1264 m 549 1046 q 735 986 660 1046 q 849 826 811 926 q 886 601 886 725 q 825 288 886 428 q 658 67 764 147 q 419 -14 551 -14 q 234 45 311 -14 q 118 206 157 104 q 79 433 79 307 q 141 747 79 607 q 310 967 203 888 q 549 1046 418 1046 m 532 978 q 354 910 435 978 q 228 721 274 842 q 182 447 182 600 q 249 159 182 267 q 435 51 317 51 q 610 120 531 51 q 734 310 689 189 q 779 582 779 431 q 716 870 779 763 q 532 978 653 978 z "},"Ø":{"ha":940,"x_min":79,"x_max":886,"o":"m 757 968 q 853 814 821 910 q 886 603 886 718 q 825 289 886 429 q 658 68 764 149 q 419 -12 551 -12 q 233 47 310 -12 l 136 -112 l 88 -87 l 190 86 q 107 236 135 146 q 79 435 79 326 q 141 749 79 608 q 310 968 203 889 q 549 1047 418 1047 q 714 1003 640 1047 l 801 1149 l 849 1125 l 757 968 m 671 925 q 532 979 614 979 q 354 911 435 979 q 228 722 274 843 q 182 449 182 601 q 246 165 182 272 l 671 925 m 278 122 q 435 53 340 53 q 610 122 531 53 q 734 311 689 190 q 779 583 779 432 q 704 888 779 783 l 278 122 z "},"Ǿ":{"ha":940,"x_min":79,"x_max":886,"o":"m 757 968 q 853 814 821 910 q 886 603 886 718 q 825 289 886 429 q 658 68 764 149 q 419 -12 551 -12 q 233 47 310 -12 l 136 -112 l 88 -87 l 190 86 q 107 236 135 146 q 79 435 79 326 q 141 749 79 608 q 310 968 203 889 q 549 1047 418 1047 q 714 1003 640 1047 l 801 1149 l 849 1125 l 757 968 m 671 925 q 532 979 614 979 q 354 911 435 979 q 228 722 274 843 q 182 449 182 601 q 246 165 182 272 l 671 925 m 278 122 q 435 53 340 53 q 610 122 531 53 q 734 311 689 190 q 779 583 779 432 q 704 888 779 783 l 278 122 m 733 1357 l 797 1293 q 703 1187 772 1244 q 575 1094 635 1129 l 542 1119 l 733 1357 z "},"Õ":{"ha":938,"x_min":79,"x_max":886,"o":"m 333 1221 q 392 1301 354 1269 q 483 1332 431 1332 q 538 1318 514 1332 q 590 1279 563 1304 q 638 1244 618 1256 q 681 1233 657 1233 q 739 1251 717 1233 q 785 1301 761 1269 l 815 1257 q 760 1178 797 1213 q 671 1144 724 1144 q 613 1158 636 1144 q 561 1199 589 1172 q 516 1233 535 1222 q 472 1244 497 1244 q 412 1226 438 1244 q 364 1176 386 1208 l 333 1221 m 549 1046 q 735 986 660 1046 q 849 826 811 926 q 886 601 886 725 q 825 288 886 428 q 658 67 764 147 q 419 -14 551 -14 q 234 45 311 -14 q 118 206 157 104 q 79 433 79 307 q 141 747 79 607 q 310 967 203 888 q 549 1046 418 1046 m 532 978 q 354 910 435 978 q 228 721 274 842 q 182 447 182 600 q 249 159 182 267 q 435 51 317 51 q 610 120 531 51 q 734 310 689 189 q 779 582 779 431 q 716 870 779 763 q 532 978 653 978 z "},"Œ":{"ha":1431,"x_min":69,"x_max":1385,"o":"m 776 213 q 622 46 714 106 q 419 -14 529 -14 q 235 40 314 -14 q 113 197 156 94 q 69 438 69 299 q 133 749 69 611 q 307 966 197 888 q 546 1044 417 1044 q 735 976 658 1044 q 846 793 813 908 l 875 1032 l 1385 1032 l 1381 833 l 1325 833 l 1301 965 l 975 974 l 922 565 l 1224 579 l 1217 489 l 917 497 l 863 64 l 1265 76 l 1329 219 l 1383 203 l 1335 0 l 751 0 l 776 213 m 529 976 q 350 911 432 976 q 221 731 268 846 q 174 476 174 617 q 239 163 174 274 q 435 51 304 53 q 610 120 532 51 q 734 310 689 189 q 779 579 779 431 q 529 976 779 976 z "},"P":{"ha":829,"x_min":18,"x_max":821,"o":"m 306 1032 q 410 1038 343 1032 q 511 1043 474 1043 q 742 976 663 1043 q 821 772 821 908 q 765 555 821 646 q 613 417 708 464 q 404 369 518 369 q 264 375 364 369 l 228 64 l 351 47 l 347 0 l 18 0 l 24 47 l 125 64 l 238 964 l 146 978 l 151 1032 l 306 1032 m 272 446 q 408 435 339 435 q 713 776 713 436 q 665 928 713 876 q 507 979 617 979 q 425 975 474 979 q 340 965 376 971 l 272 446 z "},"Ṗ":{"ha":829,"x_min":18,"x_max":821,"o":"m 561 1154 q 520 1172 538 1154 q 503 1217 503 1190 q 526 1277 503 1251 q 578 1303 550 1303 q 624 1285 607 1303 q 642 1240 642 1268 q 617 1180 640 1206 q 561 1154 593 1154 m 306 1032 q 410 1038 343 1032 q 511 1043 474 1043 q 742 976 663 1043 q 821 772 821 908 q 765 555 821 646 q 613 417 708 464 q 404 369 518 369 q 264 375 364 369 l 228 64 l 351 47 l 347 0 l 18 0 l 24 47 l 125 64 l 238 964 l 146 978 l 151 1032 l 306 1032 m 272 446 q 408 435 339 435 q 713 776 713 436 q 665 928 713 876 q 507 979 617 979 q 425 975 474 979 q 340 965 376 971 l 272 446 z "},"Þ":{"ha":832,"x_min":18,"x_max":801,"o":"m 319 810 q 489 822 394 822 q 722 755 642 822 q 801 563 801 688 q 748 378 801 458 q 603 256 694 299 q 403 213 513 213 q 246 218 299 213 l 226 64 l 340 47 l 336 0 l 18 0 l 24 47 l 125 64 l 238 969 l 146 983 l 151 1038 l 447 1038 l 442 983 l 340 969 l 319 810 m 254 283 q 401 275 317 275 q 621 347 542 275 q 700 536 700 419 q 647 703 700 650 q 463 757 594 757 q 383 753 429 757 q 311 744 338 750 l 254 283 z "},"Q":{"ha":940,"x_min":76,"x_max":883,"o":"m 815 -186 q 734 -226 788 -208 q 628 -243 681 -243 q 459 -193 528 -243 q 390 -51 390 -143 q 393 -12 390 -26 q 220 54 292 -6 q 113 213 149 114 q 76 432 76 311 q 138 747 76 607 q 308 967 200 888 q 547 1046 415 1046 q 734 986 658 1046 q 847 826 810 926 q 883 601 883 725 q 828 303 883 438 q 678 85 774 168 q 461 -10 582 3 q 517 -118 463 -89 q 663 -147 571 -147 q 741 -137 697 -147 q 814 -112 785 -128 l 815 -186 m 529 978 q 352 910 432 978 q 226 722 272 843 q 181 449 181 601 q 247 160 181 267 q 432 53 314 53 q 608 121 529 53 q 733 310 688 189 q 778 582 778 431 q 714 870 778 763 q 529 978 650 978 z "},"R":{"ha":901,"x_min":29,"x_max":858,"o":"m 314 1032 q 401 1038 343 1032 q 489 1043 460 1043 q 735 986 658 1043 q 813 806 813 929 q 739 591 813 682 q 542 468 665 500 q 613 379 575 443 q 694 229 650 315 l 717 182 q 760 94 746 118 q 795 63 775 71 q 858 54 815 54 l 857 0 l 728 0 q 678 35 703 0 q 614 169 654 69 q 513 383 554 308 q 429 456 471 457 l 325 456 l 268 456 l 224 64 l 351 47 l 347 0 l 29 0 l 33 47 l 125 64 l 238 964 l 146 978 l 151 1032 l 314 1032 m 276 519 q 410 518 301 518 l 451 518 q 588 560 529 522 q 678 660 646 599 q 710 797 710 722 q 657 936 710 893 q 471 979 604 979 q 408 976 446 979 q 336 968 369 972 l 276 519 z "},"Ŕ":{"ha":901,"x_min":29,"x_max":858,"o":"m 314 1032 q 401 1038 343 1032 q 489 1043 460 1043 q 735 986 658 1043 q 813 806 813 929 q 739 591 813 682 q 542 468 665 500 q 613 379 575 443 q 694 229 650 315 l 717 182 q 760 94 746 118 q 795 63 775 71 q 858 54 815 54 l 857 0 l 728 0 q 678 35 703 0 q 614 169 654 69 q 513 383 554 308 q 429 456 471 457 l 325 456 l 268 456 l 224 64 l 351 47 l 347 0 l 29 0 l 33 47 l 125 64 l 238 964 l 146 978 l 151 1032 l 314 1032 m 276 519 q 410 518 301 518 l 451 518 q 588 560 529 522 q 678 660 646 599 q 710 797 710 722 q 657 936 710 893 q 471 979 604 979 q 408 976 446 979 q 336 968 369 972 l 276 519 m 683 1357 l 747 1293 q 653 1187 722 1244 q 525 1094 585 1129 l 492 1119 l 683 1357 z "},"Ř":{"ha":897,"x_min":25,"x_max":854,"o":"m 314 1325 l 353 1357 l 513 1176 l 731 1357 l 764 1325 l 556 1100 l 464 1100 l 314 1325 m 310 1032 q 397 1038 339 1032 q 485 1043 456 1043 q 731 986 654 1043 q 808 806 808 929 q 735 591 808 682 q 538 468 661 500 q 608 379 571 443 q 690 229 646 315 l 713 182 q 756 94 742 118 q 791 63 771 71 q 854 54 811 54 l 853 0 l 724 0 q 674 35 699 0 q 610 169 650 69 q 508 383 550 308 q 425 456 467 457 l 321 456 l 264 456 l 219 64 l 347 47 l 343 0 l 25 0 l 29 47 l 121 64 l 233 964 l 142 978 l 147 1032 l 310 1032 m 272 519 q 406 518 297 518 l 447 518 q 583 560 525 522 q 674 660 642 599 q 706 797 706 722 q 653 936 706 893 q 467 979 600 979 q 403 976 442 979 q 332 968 365 972 l 272 519 z "},"Ŗ":{"ha":897,"x_min":25,"x_max":854,"o":"m 321 -344 q 365 -287 347 -324 q 383 -212 383 -251 q 369 -158 383 -183 q 335 -124 356 -132 l 335 -89 l 401 -35 q 457 -86 438 -47 q 476 -174 476 -125 q 457 -270 476 -225 q 410 -344 438 -315 q 360 -379 383 -372 l 321 -357 l 321 -344 m 310 1032 q 397 1038 339 1032 q 485 1043 456 1043 q 731 986 654 1043 q 808 806 808 929 q 735 591 808 682 q 538 468 661 500 q 608 379 571 443 q 690 229 646 315 l 713 182 q 756 94 742 118 q 791 63 771 71 q 854 54 811 54 l 853 0 l 724 0 q 674 35 699 0 q 610 169 650 69 q 508 383 550 308 q 425 456 467 457 l 321 456 l 264 456 l 219 64 l 347 47 l 343 0 l 25 0 l 29 47 l 121 64 l 233 964 l 142 978 l 147 1032 l 310 1032 m 272 519 q 406 518 297 518 l 447 518 q 583 560 525 522 q 674 660 642 599 q 706 797 706 722 q 653 936 706 893 q 467 979 600 979 q 403 976 442 979 q 332 968 365 972 l 272 519 z "},"S":{"ha":735,"x_min":36,"x_max":701,"o":"m 608 943 q 542 971 585 960 q 446 982 499 982 q 300 938 363 982 q 238 813 238 894 q 265 711 238 756 q 333 635 293 667 q 435 565 372 603 q 556 483 517 513 q 627 403 596 453 q 658 283 658 353 q 613 125 658 193 q 489 21 568 57 q 311 -15 410 -15 q 144 4 225 -15 q 36 44 64 24 l 64 233 l 125 233 l 133 92 q 213 60 163 72 q 314 49 263 49 q 428 70 372 49 q 519 136 483 92 q 556 247 556 181 q 509 373 556 324 q 376 475 463 422 q 253 559 300 522 q 171 651 206 596 q 136 778 136 706 q 179 917 136 856 q 295 1012 222 978 q 454 1046 368 1046 q 605 1028 542 1046 q 701 988 668 1011 l 671 811 l 615 811 l 608 943 z "},"Ś":{"ha":735,"x_min":36,"x_max":701,"o":"m 608 943 q 542 971 585 960 q 446 982 499 982 q 300 938 363 982 q 238 813 238 894 q 265 711 238 756 q 333 635 293 667 q 435 565 372 603 q 556 483 517 513 q 627 403 596 453 q 658 283 658 353 q 613 125 658 193 q 489 21 568 57 q 311 -15 410 -15 q 144 4 225 -15 q 36 44 64 24 l 64 233 l 125 233 l 133 92 q 213 60 163 72 q 314 49 263 49 q 428 70 372 49 q 519 136 483 92 q 556 247 556 181 q 509 373 556 324 q 376 475 463 422 q 253 559 300 522 q 171 651 206 596 q 136 778 136 706 q 179 917 136 856 q 295 1012 222 978 q 454 1046 368 1046 q 605 1028 542 1046 q 701 988 668 1011 l 671 811 l 615 811 l 608 943 m 613 1357 l 676 1293 q 583 1187 651 1244 q 454 1094 514 1129 l 421 1119 l 613 1357 z "},"Š":{"ha":735,"x_min":36,"x_max":729,"o":"m 608 943 q 542 971 585 960 q 446 982 499 982 q 300 938 363 982 q 238 813 238 894 q 265 711 238 756 q 333 635 293 667 q 435 565 372 603 q 556 483 517 513 q 627 403 596 453 q 658 283 658 353 q 613 125 658 193 q 489 21 568 57 q 311 -15 410 -15 q 144 4 225 -15 q 36 44 64 24 l 64 233 l 125 233 l 133 92 q 213 60 163 72 q 314 49 263 49 q 428 70 372 49 q 519 136 483 92 q 556 247 556 181 q 509 373 556 324 q 376 475 463 422 q 253 559 300 522 q 171 651 206 596 q 136 778 136 706 q 179 917 136 856 q 295 1012 222 978 q 454 1046 368 1046 q 605 1028 542 1046 q 701 988 668 1011 l 671 811 l 615 811 l 608 943 m 279 1325 l 318 1357 l 478 1176 l 696 1357 l 729 1325 l 521 1100 l 429 1100 l 279 1325 z "},"Ş":{"ha":735,"x_min":36,"x_max":701,"o":"m 446 982 q 300 938 363 982 q 238 813 238 894 q 265 711 238 756 q 333 635 293 667 q 435 565 372 603 q 556 483 517 513 q 627 403 596 453 q 658 283 658 353 q 572 75 658 154 q 347 -14 485 -4 q 358 -92 358 -47 q 308 -259 358 -203 q 176 -315 257 -315 q 125 -310 150 -315 q 89 -296 100 -304 l 97 -214 q 125 -223 106 -219 q 167 -226 144 -226 q 262 -181 229 -226 q 294 -58 294 -135 q 290 -15 294 -35 q 136 6 210 -12 q 36 44 63 25 l 64 233 l 125 233 l 133 92 q 213 60 163 72 q 314 49 263 49 q 428 70 372 49 q 519 136 483 92 q 556 247 556 181 q 509 373 556 324 q 376 475 463 422 q 253 559 300 522 q 171 651 206 596 q 136 778 136 706 q 179 917 136 856 q 295 1012 222 978 q 454 1046 368 1046 q 605 1028 542 1046 q 701 988 668 1011 l 671 811 l 615 811 l 608 943 q 542 971 585 960 q 446 982 499 982 z "},"Ŝ":{"ha":735,"x_min":36,"x_max":714,"o":"m 608 943 q 542 971 585 960 q 446 982 499 982 q 300 938 363 982 q 238 813 238 894 q 265 711 238 756 q 333 635 293 667 q 435 565 372 603 q 556 483 517 513 q 627 403 596 453 q 658 283 658 353 q 613 125 658 193 q 489 21 568 57 q 311 -15 410 -15 q 144 4 225 -15 q 36 44 64 24 l 64 233 l 125 233 l 133 92 q 213 60 163 72 q 314 49 263 49 q 428 70 372 49 q 519 136 483 92 q 556 247 556 181 q 509 373 556 324 q 376 475 463 422 q 253 559 300 522 q 171 651 206 596 q 136 778 136 706 q 179 917 136 856 q 295 1012 222 978 q 454 1046 368 1046 q 605 1028 542 1046 q 701 988 668 1011 l 671 811 l 615 811 l 608 943 m 253 1136 l 472 1357 l 564 1357 l 714 1135 l 678 1101 l 514 1276 l 286 1104 l 253 1136 z "},"Ș":{"ha":735,"x_min":36,"x_max":701,"o":"m 196 -344 q 240 -287 222 -324 q 258 -212 258 -251 q 244 -158 258 -183 q 210 -124 231 -132 l 210 -89 l 276 -35 q 332 -86 313 -47 q 351 -174 351 -125 q 332 -270 351 -225 q 285 -344 313 -315 q 235 -379 258 -372 l 196 -357 l 196 -344 m 608 943 q 542 971 585 960 q 446 982 499 982 q 300 938 363 982 q 238 813 238 894 q 265 711 238 756 q 333 635 293 667 q 435 565 372 603 q 556 483 517 513 q 627 403 596 453 q 658 283 658 353 q 613 125 658 193 q 489 21 568 57 q 311 -15 410 -15 q 144 4 225 -15 q 36 44 64 24 l 64 233 l 125 233 l 133 92 q 213 60 163 72 q 314 49 263 49 q 428 70 372 49 q 519 136 483 92 q 556 247 556 181 q 509 373 556 324 q 376 475 463 422 q 253 559 300 522 q 171 651 206 596 q 136 778 136 706 q 179 917 136 856 q 295 1012 222 978 q 454 1046 368 1046 q 605 1028 542 1046 q 701 988 668 1011 l 671 811 l 615 811 l 608 943 z "},"Ṡ":{"ha":735,"x_min":36,"x_max":701,"o":"m 483 1154 q 442 1172 460 1154 q 425 1217 425 1190 q 449 1277 425 1251 q 500 1303 472 1303 q 547 1285 529 1303 q 564 1240 564 1268 q 539 1180 563 1206 q 483 1154 515 1154 m 608 943 q 542 971 585 960 q 446 982 499 982 q 300 938 363 982 q 238 813 238 894 q 265 711 238 756 q 333 635 293 667 q 435 565 372 603 q 556 483 517 513 q 627 403 596 453 q 658 283 658 353 q 613 125 658 193 q 489 21 568 57 q 311 -15 410 -15 q 144 4 225 -15 q 36 44 64 24 l 64 233 l 125 233 l 133 92 q 213 60 163 72 q 314 49 263 49 q 428 70 372 49 q 519 136 483 92 q 556 247 556 181 q 509 373 556 324 q 376 475 463 422 q 253 559 300 522 q 171 651 206 596 q 136 778 136 706 q 179 917 136 856 q 295 1012 222 978 q 454 1046 368 1046 q 605 1028 542 1046 q 701 988 668 1011 l 671 811 l 615 811 l 608 943 z "},"ẞ":{"ha":992,"x_min":26,"x_max":938,"o":"m 182 618 q 252 830 196 735 q 400 981 308 925 q 606 1036 492 1036 q 767 1016 707 1036 q 879 958 828 996 l 875 926 l 656 622 q 794 547 738 583 q 894 451 850 511 q 938 307 938 390 q 895 144 938 218 q 778 28 853 71 q 614 -15 704 -15 q 507 -3 553 -15 q 415 28 461 8 q 371 42 383 40 l 401 264 l 464 264 l 469 100 q 529 63 483 79 q 626 47 575 47 q 743 80 694 47 q 817 166 792 113 q 842 278 842 219 q 793 408 842 349 q 678 508 744 468 q 557 565 613 547 l 560 582 l 779 897 q 710 950 757 925 q 582 975 664 975 q 381 886 463 975 q 282 639 300 797 l 206 -8 l 26 -8 l 31 46 l 115 61 l 182 618 z "},"Ə":{"ha":881,"x_min":50,"x_max":832,"o":"m 156 989 q 207 997 178 990 q 246 1007 236 1004 q 366 1033 311 1024 q 499 1043 421 1043 q 678 992 603 1043 q 792 847 753 940 q 832 628 832 753 q 765 299 832 446 q 583 68 697 151 q 335 -15 468 -15 q 124 74 199 -15 q 50 325 50 163 q 58 438 50 383 q 76 521 65 492 l 729 522 q 733 622 733 571 q 699 818 733 738 q 606 940 665 899 q 471 982 546 982 q 320 960 385 982 q 219 911 256 939 l 179 793 l 124 793 l 156 989 m 168 463 q 147 307 147 374 q 173 179 147 239 q 249 83 199 119 q 368 47 299 47 q 526 94 453 47 q 651 235 600 142 q 722 463 703 329 l 168 463 z "},"T":{"ha":831,"x_min":57,"x_max":876,"o":"m 106 1032 l 876 1032 l 836 729 l 779 728 l 790 963 l 532 974 l 414 64 l 583 51 l 579 0 l 143 0 l 146 51 l 313 64 l 429 974 l 174 963 l 117 731 l 57 729 l 106 1032 z "},"Ŧ":{"ha":831,"x_min":57,"x_max":876,"o":"m 106 1032 l 876 1032 l 836 729 l 779 728 l 790 963 l 532 974 l 479 567 l 699 567 l 690 496 l 469 496 l 414 64 l 583 51 l 579 0 l 143 0 l 146 51 l 313 64 l 367 496 l 186 496 l 196 567 l 376 567 l 429 974 l 174 963 l 117 731 l 57 729 l 106 1032 z "},"Ť":{"ha":831,"x_min":57,"x_max":876,"o":"m 307 1325 l 346 1357 l 506 1176 l 724 1357 l 757 1325 l 549 1100 l 457 1100 l 307 1325 m 106 1032 l 876 1032 l 836 729 l 779 728 l 790 963 l 532 974 l 414 64 l 583 51 l 579 0 l 143 0 l 146 51 l 313 64 l 429 974 l 174 963 l 117 731 l 57 729 l 106 1032 z "},"Ţ":{"ha":831,"x_min":57,"x_max":876,"o":"m 876 1032 l 836 729 l 779 728 l 790 963 l 532 974 l 414 64 l 583 51 l 579 0 l 407 0 q 424 -92 424 -37 q 373 -259 424 -203 q 242 -315 322 -315 q 190 -310 215 -315 q 154 -296 165 -304 l 163 -214 q 190 -223 171 -219 q 232 -226 210 -226 q 327 -181 294 -226 q 360 -58 360 -135 q 351 0 360 -24 l 143 0 l 146 51 l 313 64 l 429 974 l 174 963 l 117 731 l 57 729 l 106 1032 l 876 1032 z "},"Ț":{"ha":831,"x_min":57,"x_max":876,"o":"m 231 -344 q 275 -287 257 -324 q 293 -212 293 -251 q 279 -158 293 -183 q 244 -124 265 -132 l 244 -89 l 311 -35 q 367 -86 347 -47 q 386 -174 386 -125 q 367 -270 386 -225 q 320 -344 347 -315 q 269 -379 293 -372 l 231 -357 l 231 -344 m 106 1032 l 876 1032 l 836 729 l 779 728 l 790 963 l 532 974 l 414 64 l 583 51 l 579 0 l 143 0 l 146 51 l 313 64 l 429 974 l 174 963 l 117 731 l 57 729 l 106 1032 z "},"Ṫ":{"ha":831,"x_min":57,"x_max":876,"o":"m 511 1154 q 470 1172 488 1154 q 453 1217 453 1190 q 476 1277 453 1251 q 528 1303 500 1303 q 574 1285 557 1303 q 592 1240 592 1268 q 567 1180 590 1206 q 511 1154 543 1154 m 106 1032 l 876 1032 l 836 729 l 779 728 l 790 963 l 532 974 l 414 64 l 583 51 l 579 0 l 143 0 l 146 51 l 313 64 l 429 974 l 174 963 l 117 731 l 57 729 l 106 1032 z "},"U":{"ha":935,"x_min":89,"x_max":976,"o":"m 811 425 q 682 88 781 190 q 406 -14 583 -14 q 185 66 263 -14 q 104 289 107 146 q 110 403 101 346 l 183 965 l 89 978 l 94 1032 l 397 1032 l 392 978 l 288 964 l 214 411 q 207 283 204 347 q 263 109 210 171 q 421 47 317 47 q 624 140 551 47 q 721 425 697 233 l 792 964 l 700 978 l 706 1032 l 976 1032 l 971 978 l 882 965 l 811 425 z "},"Ú":{"ha":935,"x_min":89,"x_max":976,"o":"m 688 1357 l 751 1293 q 658 1187 726 1244 q 529 1094 589 1129 l 496 1119 l 688 1357 m 811 425 q 682 88 781 190 q 406 -14 583 -14 q 185 66 263 -14 q 104 289 107 146 q 110 403 101 346 l 183 965 l 89 978 l 94 1032 l 397 1032 l 392 978 l 288 964 l 214 411 q 207 283 204 347 q 263 109 210 171 q 421 47 317 47 q 624 140 551 47 q 721 425 697 233 l 792 964 l 700 978 l 706 1032 l 976 1032 l 971 978 l 882 965 l 811 425 z "},"Ŭ":{"ha":935,"x_min":89,"x_max":976,"o":"m 556 1108 q 412 1169 461 1108 q 363 1315 363 1229 q 364 1342 363 1333 l 419 1342 q 453 1234 422 1281 q 558 1188 483 1188 q 674 1234 632 1188 q 728 1342 717 1281 l 781 1342 q 749 1231 781 1285 q 666 1142 718 1176 q 556 1108 614 1108 m 811 425 q 682 88 781 190 q 406 -14 583 -14 q 185 66 263 -14 q 104 289 107 146 q 110 403 101 346 l 183 965 l 89 978 l 94 1032 l 397 1032 l 392 978 l 288 964 l 214 411 q 207 283 204 347 q 263 109 210 171 q 421 47 317 47 q 624 140 551 47 q 721 425 697 233 l 792 964 l 700 978 l 706 1032 l 976 1032 l 971 978 l 882 965 l 811 425 z "},"Û":{"ha":935,"x_min":89,"x_max":976,"o":"m 811 425 q 682 88 781 190 q 406 -14 583 -14 q 185 66 263 -14 q 104 289 107 146 q 110 403 101 346 l 183 965 l 89 978 l 94 1032 l 397 1032 l 392 978 l 288 964 l 214 411 q 207 283 204 347 q 263 109 210 171 q 421 47 317 47 q 624 140 551 47 q 721 425 697 233 l 792 964 l 700 978 l 706 1032 l 976 1032 l 971 978 l 882 965 l 811 425 m 328 1136 l 547 1357 l 639 1357 l 789 1135 l 753 1101 l 589 1276 l 361 1104 l 328 1136 z "},"Ü":{"ha":935,"x_min":89,"x_max":976,"o":"m 419 1182 q 378 1201 396 1182 q 361 1247 361 1219 q 386 1306 363 1281 q 438 1331 410 1331 q 483 1313 465 1331 q 499 1267 500 1294 q 475 1207 499 1232 q 419 1182 451 1182 m 704 1182 q 662 1201 679 1182 q 646 1249 644 1219 q 670 1306 646 1282 q 722 1331 694 1331 q 766 1314 749 1331 q 783 1269 783 1297 q 760 1208 783 1233 q 704 1182 738 1182 m 811 425 q 682 88 781 190 q 406 -14 583 -14 q 185 66 263 -14 q 104 289 107 146 q 110 403 101 346 l 183 965 l 89 978 l 94 1032 l 397 1032 l 392 978 l 288 964 l 214 411 q 207 283 204 347 q 263 109 210 171 q 421 47 317 47 q 624 140 551 47 q 721 425 697 233 l 792 964 l 700 978 l 706 1032 l 976 1032 l 971 978 l 882 965 l 811 425 z "},"Ụ":{"ha":935,"x_min":89,"x_max":976,"o":"m 811 425 q 682 88 781 190 q 406 -14 583 -14 q 185 66 263 -14 q 104 289 107 146 q 110 403 101 346 l 183 965 l 89 978 l 94 1032 l 397 1032 l 392 978 l 288 964 l 214 411 q 207 283 204 347 q 263 109 210 171 q 421 47 317 47 q 624 140 551 47 q 721 425 697 233 l 792 964 l 700 978 l 706 1032 l 976 1032 l 971 978 l 882 965 l 811 425 m 328 -206 q 351 -142 328 -168 q 404 -117 374 -117 q 447 -131 432 -117 q 461 -169 461 -144 q 437 -233 461 -208 q 381 -258 413 -258 q 342 -244 357 -258 q 328 -206 328 -231 z "},"Ù":{"ha":935,"x_min":89,"x_max":976,"o":"m 564 1094 q 437 1187 506 1128 q 346 1293 368 1246 l 414 1357 l 599 1119 l 564 1094 m 811 425 q 682 88 781 190 q 406 -14 583 -14 q 185 66 263 -14 q 104 289 107 146 q 110 403 101 346 l 183 965 l 89 978 l 94 1032 l 397 1032 l 392 978 l 288 964 l 214 411 q 207 283 204 347 q 263 109 210 171 q 421 47 317 47 q 624 140 551 47 q 721 425 697 233 l 792 964 l 700 978 l 706 1032 l 976 1032 l 971 978 l 882 965 l 811 425 z "},"Ủ":{"ha":935,"x_min":89,"x_max":976,"o":"m 811 425 q 682 88 781 190 q 406 -14 583 -14 q 185 66 263 -14 q 104 289 107 146 q 110 403 101 346 l 183 965 l 89 978 l 94 1032 l 397 1032 l 392 978 l 288 964 l 214 411 q 207 283 204 347 q 263 109 210 171 q 421 47 317 47 q 624 140 551 47 q 721 425 697 233 l 792 964 l 700 978 l 706 1032 l 976 1032 l 971 978 l 882 965 l 811 425 m 532 1139 q 521 1166 525 1150 q 518 1193 517 1182 q 536 1223 522 1211 q 575 1249 550 1235 q 613 1273 600 1264 q 632 1297 625 1282 l 633 1304 q 635 1318 635 1308 q 618 1353 635 1339 q 568 1372 601 1368 l 556 1372 q 518 1368 526 1372 l 529 1442 q 554 1449 532 1446 q 593 1453 576 1453 q 694 1425 658 1453 q 731 1347 731 1397 q 707 1272 731 1297 q 636 1218 683 1246 q 597 1193 608 1201 q 576 1147 575 1178 l 532 1139 z "},"Ư":{"ha":935,"x_min":89,"x_max":1118,"o":"m 1118 1178 q 1115 1147 1118 1167 q 1039 1015 1104 1067 q 881 954 974 964 l 811 425 q 682 88 781 190 q 406 -14 583 -14 q 185 66 263 -14 q 104 289 107 146 q 110 403 101 346 l 183 965 l 89 978 l 94 1032 l 397 1032 l 392 978 l 288 964 l 214 411 q 207 283 204 347 q 263 109 210 171 q 421 47 317 47 q 624 140 551 47 q 721 425 697 233 l 792 964 l 700 978 l 706 1032 l 897 1032 q 976 1072 951 1040 q 1015 1154 1000 1103 q 1019 1166 1017 1158 q 1021 1178 1022 1174 l 1118 1178 z "},"Ứ":{"ha":935,"x_min":89,"x_max":1118,"o":"m 1118 1178 q 1115 1147 1118 1167 q 1039 1015 1104 1067 q 881 954 974 964 l 811 425 q 682 88 781 190 q 406 -14 583 -14 q 185 66 263 -14 q 104 289 107 146 q 110 403 101 346 l 183 965 l 89 978 l 94 1032 l 397 1032 l 392 978 l 288 964 l 214 411 q 207 283 204 347 q 263 109 210 171 q 421 47 317 47 q 624 140 551 47 q 721 425 697 233 l 792 964 l 700 978 l 706 1032 l 897 1032 q 976 1072 951 1040 q 1015 1154 1000 1103 q 1019 1166 1017 1158 q 1021 1178 1022 1174 l 1118 1178 m 688 1357 l 751 1293 q 658 1187 726 1244 q 529 1094 589 1129 l 496 1119 l 688 1357 z "},"Ự":{"ha":935,"x_min":89,"x_max":1118,"o":"m 1118 1178 q 1115 1147 1118 1167 q 1039 1015 1104 1067 q 881 954 974 964 l 811 425 q 682 88 781 190 q 406 -14 583 -14 q 185 66 263 -14 q 104 289 107 146 q 110 403 101 346 l 183 965 l 89 978 l 94 1032 l 397 1032 l 392 978 l 288 964 l 214 411 q 207 283 204 347 q 263 109 210 171 q 421 47 317 47 q 624 140 551 47 q 721 425 697 233 l 792 964 l 700 978 l 706 1032 l 897 1032 q 976 1072 951 1040 q 1015 1154 1000 1103 q 1019 1166 1017 1158 q 1021 1178 1022 1174 l 1118 1178 m 328 -206 q 351 -142 328 -168 q 404 -117 374 -117 q 447 -131 432 -117 q 461 -169 461 -144 q 437 -233 461 -208 q 381 -258 413 -258 q 342 -244 357 -258 q 328 -206 328 -231 z "},"Ừ":{"ha":935,"x_min":89,"x_max":1118,"o":"m 1118 1178 q 1115 1147 1118 1167 q 1039 1015 1104 1067 q 881 954 974 964 l 811 425 q 682 88 781 190 q 406 -14 583 -14 q 185 66 263 -14 q 104 289 107 146 q 110 403 101 346 l 183 965 l 89 978 l 94 1032 l 397 1032 l 392 978 l 288 964 l 214 411 q 207 283 204 347 q 263 109 210 171 q 421 47 317 47 q 624 140 551 47 q 721 425 697 233 l 792 964 l 700 978 l 706 1032 l 897 1032 q 976 1072 951 1040 q 1015 1154 1000 1103 q 1019 1166 1017 1158 q 1021 1178 1022 1174 l 1118 1178 m 564 1094 q 437 1187 506 1128 q 346 1293 368 1246 l 414 1357 l 599 1119 l 564 1094 z "},"Ử":{"ha":935,"x_min":89,"x_max":1118,"o":"m 1118 1178 q 1115 1147 1118 1167 q 1039 1015 1104 1067 q 881 954 974 964 l 811 425 q 682 88 781 190 q 406 -14 583 -14 q 185 66 263 -14 q 104 289 107 146 q 110 403 101 346 l 183 965 l 89 978 l 94 1032 l 397 1032 l 392 978 l 288 964 l 214 411 q 207 283 204 347 q 263 109 210 171 q 421 47 317 47 q 624 140 551 47 q 721 425 697 233 l 792 964 l 700 978 l 706 1032 l 897 1032 q 976 1072 951 1040 q 1015 1154 1000 1103 q 1019 1166 1017 1158 q 1021 1178 1022 1174 l 1118 1178 m 532 1139 q 521 1166 525 1150 q 518 1193 517 1182 q 536 1223 522 1211 q 575 1249 550 1235 q 613 1273 600 1264 q 632 1297 625 1282 l 633 1304 q 635 1318 635 1308 q 618 1353 635 1339 q 568 1372 601 1368 l 556 1372 q 518 1368 526 1372 l 529 1442 q 554 1449 532 1446 q 593 1453 576 1453 q 694 1425 658 1453 q 731 1347 731 1397 q 707 1272 731 1297 q 636 1218 683 1246 q 597 1193 608 1201 q 576 1147 575 1178 l 532 1139 z "},"Ữ":{"ha":935,"x_min":89,"x_max":1118,"o":"m 1118 1178 q 1115 1147 1118 1167 q 1039 1015 1104 1067 q 881 954 974 964 l 811 425 q 682 88 781 190 q 406 -14 583 -14 q 185 66 263 -14 q 104 289 107 146 q 110 403 101 346 l 183 965 l 89 978 l 94 1032 l 397 1032 l 392 978 l 288 964 l 214 411 q 207 283 204 347 q 263 109 210 171 q 421 47 317 47 q 624 140 551 47 q 721 425 697 233 l 792 964 l 700 978 l 706 1032 l 897 1032 q 976 1072 951 1040 q 1015 1154 1000 1103 q 1019 1166 1017 1158 q 1021 1178 1022 1174 l 1118 1178 m 321 1221 q 380 1301 342 1269 q 471 1332 418 1332 q 526 1318 501 1332 q 578 1279 550 1304 q 625 1244 606 1256 q 668 1233 644 1233 q 726 1251 704 1233 q 772 1301 749 1269 l 803 1257 q 748 1178 785 1213 q 658 1144 711 1144 q 600 1158 624 1144 q 549 1199 576 1172 q 503 1233 522 1222 q 460 1244 485 1244 q 399 1226 425 1244 q 351 1176 374 1208 l 321 1221 z "},"Ű":{"ha":935,"x_min":89,"x_max":976,"o":"m 811 425 q 682 88 781 190 q 406 -14 583 -14 q 185 66 263 -14 q 104 289 107 146 q 110 403 101 346 l 183 965 l 89 978 l 94 1032 l 397 1032 l 392 978 l 288 964 l 214 411 q 207 283 204 347 q 263 109 210 171 q 421 47 317 47 q 624 140 551 47 q 721 425 697 233 l 792 964 l 700 978 l 706 1032 l 976 1032 l 971 978 l 882 965 l 811 425 m 861 1354 l 931 1290 q 837 1183 896 1236 q 717 1093 778 1131 l 668 1128 l 861 1354 m 569 1353 l 639 1289 q 556 1191 614 1240 q 421 1092 497 1142 l 378 1126 l 569 1353 z "},"Ū":{"ha":935,"x_min":89,"x_max":976,"o":"m 386 1264 l 732 1264 l 721 1183 l 375 1183 l 386 1264 m 811 425 q 682 88 781 190 q 406 -14 583 -14 q 185 66 263 -14 q 104 289 107 146 q 110 403 101 346 l 183 965 l 89 978 l 94 1032 l 397 1032 l 392 978 l 288 964 l 214 411 q 207 283 204 347 q 263 109 210 171 q 421 47 317 47 q 624 140 551 47 q 721 425 697 233 l 792 964 l 700 978 l 706 1032 l 976 1032 l 971 978 l 882 965 l 811 425 z "},"Ų":{"ha":935,"x_min":89,"x_max":976,"o":"m 811 425 q 708 119 785 222 q 497 -6 632 17 q 393 -153 393 -104 q 404 -197 392 -182 q 438 -212 417 -212 q 546 -167 490 -212 l 560 -218 q 390 -282 490 -282 q 317 -257 342 -282 q 292 -197 292 -232 q 299 -156 292 -178 q 317 -118 306 -133 q 370 -60 340 -83 q 442 -12 400 -37 l 406 -14 q 185 66 263 -14 q 104 289 107 146 q 110 403 101 346 l 183 965 l 89 978 l 94 1032 l 397 1032 l 392 978 l 288 964 l 214 411 q 207 283 204 347 q 263 109 210 171 q 421 47 317 47 q 624 140 551 47 q 721 425 697 233 l 792 964 l 700 978 l 706 1032 l 976 1032 l 971 978 l 882 965 l 811 425 z "},"Ů":{"ha":935,"x_min":89,"x_max":976,"o":"m 811 425 q 682 88 781 190 q 406 -14 583 -14 q 185 66 263 -14 q 104 289 107 146 q 110 403 101 346 l 183 965 l 89 978 l 94 1032 l 397 1032 l 392 978 l 288 964 l 214 411 q 207 283 204 347 q 263 109 210 171 q 421 47 317 47 q 624 140 551 47 q 721 425 697 233 l 792 964 l 700 978 l 706 1032 l 976 1032 l 971 978 l 882 965 l 811 425 m 546 1042 q 410 1081 458 1042 q 363 1188 363 1119 q 397 1279 363 1242 q 485 1335 432 1317 q 592 1354 538 1354 q 723 1320 675 1354 q 771 1224 771 1286 q 738 1123 771 1164 q 653 1062 704 1082 q 546 1042 601 1042 m 553 1085 q 658 1117 615 1085 q 701 1218 701 1150 q 669 1285 701 1261 q 583 1310 636 1310 q 476 1281 522 1310 q 431 1193 431 1251 q 463 1115 431 1144 q 553 1085 496 1085 z "},"Ũ":{"ha":935,"x_min":89,"x_max":976,"o":"m 321 1221 q 380 1301 342 1269 q 471 1332 418 1332 q 526 1318 501 1332 q 578 1279 550 1304 q 625 1244 606 1256 q 668 1233 644 1233 q 726 1251 704 1233 q 772 1301 749 1269 l 803 1257 q 748 1178 785 1213 q 658 1144 711 1144 q 600 1158 624 1144 q 549 1199 576 1172 q 503 1233 522 1222 q 460 1244 485 1244 q 399 1226 425 1244 q 351 1176 374 1208 l 321 1221 m 811 425 q 682 88 781 190 q 406 -14 583 -14 q 185 66 263 -14 q 104 289 107 146 q 110 403 101 346 l 183 965 l 89 978 l 94 1032 l 397 1032 l 392 978 l 288 964 l 214 411 q 207 283 204 347 q 263 109 210 171 q 421 47 317 47 q 624 140 551 47 q 721 425 697 233 l 792 964 l 700 978 l 706 1032 l 976 1032 l 971 978 l 882 965 l 811 425 z "},"V":{"ha":819,"x_min":42,"x_max":917,"o":"m 47 1032 l 374 1032 l 368 978 l 244 964 l 344 304 l 371 90 l 454 304 l 744 964 l 643 978 l 649 1032 l 917 1032 l 911 978 l 833 965 l 392 -7 l 301 -14 l 138 964 l 42 978 l 47 1032 z "},"W":{"ha":1215,"x_min":24,"x_max":1354,"o":"m 29 1032 l 349 1032 l 344 978 l 219 967 l 307 294 l 335 92 l 392 254 l 631 868 l 619 965 l 526 978 l 532 1032 l 856 1032 l 844 978 l 724 965 l 790 294 l 806 92 l 874 269 l 1165 964 l 1063 978 l 1068 1032 l 1354 1032 l 1346 978 l 1251 964 l 832 -7 l 726 -7 l 651 722 l 363 -7 l 260 -7 l 122 964 l 24 978 l 29 1032 z "},"Ẃ":{"ha":1215,"x_min":24,"x_max":1354,"o":"m 842 1357 l 906 1293 q 812 1187 881 1244 q 683 1094 743 1129 l 650 1119 l 842 1357 m 29 1032 l 349 1032 l 344 978 l 219 967 l 307 294 l 335 92 l 392 254 l 631 868 l 619 965 l 526 978 l 532 1032 l 856 1032 l 844 978 l 724 965 l 790 294 l 806 92 l 874 269 l 1165 964 l 1063 978 l 1068 1032 l 1354 1032 l 1346 978 l 1251 964 l 832 -7 l 726 -7 l 651 722 l 363 -7 l 260 -7 l 122 964 l 24 978 l 29 1032 z "},"Ŵ":{"ha":1215,"x_min":24,"x_max":1354,"o":"m 29 1032 l 349 1032 l 344 978 l 219 967 l 307 294 l 335 92 l 392 254 l 631 868 l 619 965 l 526 978 l 532 1032 l 856 1032 l 844 978 l 724 965 l 790 294 l 806 92 l 874 269 l 1165 964 l 1063 978 l 1068 1032 l 1354 1032 l 1346 978 l 1251 964 l 832 -7 l 726 -7 l 651 722 l 363 -7 l 260 -7 l 122 964 l 24 978 l 29 1032 m 482 1136 l 701 1357 l 793 1357 l 943 1135 l 907 1101 l 743 1276 l 515 1104 l 482 1136 z "},"Ẅ":{"ha":1215,"x_min":24,"x_max":1354,"o":"m 574 1182 q 533 1201 550 1182 q 515 1247 515 1219 q 540 1306 517 1281 q 592 1331 564 1331 q 637 1313 619 1331 q 653 1267 654 1294 q 629 1207 653 1232 q 574 1182 606 1182 m 858 1182 q 816 1201 833 1182 q 800 1249 799 1219 q 824 1306 800 1282 q 876 1331 849 1331 q 920 1314 903 1331 q 938 1269 938 1297 q 915 1208 938 1233 q 858 1182 892 1182 m 29 1032 l 349 1032 l 344 978 l 219 967 l 307 294 l 335 92 l 392 254 l 631 868 l 619 965 l 526 978 l 532 1032 l 856 1032 l 844 978 l 724 965 l 790 294 l 806 92 l 874 269 l 1165 964 l 1063 978 l 1068 1032 l 1354 1032 l 1346 978 l 1251 964 l 832 -7 l 726 -7 l 651 722 l 363 -7 l 260 -7 l 122 964 l 24 978 l 29 1032 z "},"Ẁ":{"ha":1215,"x_min":24,"x_max":1354,"o":"m 718 1094 q 591 1187 660 1128 q 500 1293 522 1246 l 568 1357 l 753 1119 l 718 1094 m 29 1032 l 349 1032 l 344 978 l 219 967 l 307 294 l 335 92 l 392 254 l 631 868 l 619 965 l 526 978 l 532 1032 l 856 1032 l 844 978 l 724 965 l 790 294 l 806 92 l 874 269 l 1165 964 l 1063 978 l 1068 1032 l 1354 1032 l 1346 978 l 1251 964 l 832 -7 l 726 -7 l 651 722 l 363 -7 l 260 -7 l 122 964 l 24 978 l 29 1032 z "},"X":{"ha":878,"x_min":-43,"x_max":932,"o":"m 94 1032 l 433 1032 l 428 978 l 310 965 l 468 590 l 729 964 l 613 978 l 618 1032 l 932 1032 l 928 978 l 829 965 l 500 525 l 729 64 l 842 47 l 839 0 l 485 0 l 489 47 l 610 63 l 432 454 l 157 64 l 279 47 l 274 0 l -43 0 l -37 47 l 56 63 l 400 522 l 192 963 l 89 978 l 94 1032 z "},"Y":{"ha":796,"x_min":40,"x_max":907,"o":"m 44 1032 l 368 1032 l 361 978 l 235 964 l 401 557 l 433 464 l 488 557 l 736 964 l 629 978 l 636 1032 l 907 1032 l 901 978 l 826 965 l 467 397 l 424 64 l 574 47 l 568 0 l 164 0 l 168 47 l 326 64 l 369 397 l 119 964 l 40 978 l 44 1032 z "},"Ý":{"ha":796,"x_min":40,"x_max":907,"o":"m 44 1032 l 368 1032 l 361 978 l 235 964 l 401 557 l 433 464 l 488 557 l 736 964 l 629 978 l 636 1032 l 907 1032 l 901 978 l 826 965 l 467 397 l 424 64 l 574 47 l 568 0 l 164 0 l 168 47 l 326 64 l 369 397 l 119 964 l 40 978 l 44 1032 m 643 1357 l 707 1293 q 613 1187 682 1244 q 485 1094 544 1129 l 451 1119 l 643 1357 z "},"Ŷ":{"ha":796,"x_min":40,"x_max":907,"o":"m 44 1032 l 368 1032 l 361 978 l 235 964 l 401 557 l 433 464 l 488 557 l 736 964 l 629 978 l 636 1032 l 907 1032 l 901 978 l 826 965 l 467 397 l 424 64 l 574 47 l 568 0 l 164 0 l 168 47 l 326 64 l 369 397 l 119 964 l 40 978 l 44 1032 m 283 1136 l 503 1357 l 594 1357 l 744 1135 l 708 1101 l 544 1276 l 317 1104 l 283 1136 z "},"Ÿ":{"ha":796,"x_min":40,"x_max":907,"o":"m 44 1032 l 368 1032 l 361 978 l 235 964 l 401 557 l 433 464 l 488 557 l 736 964 l 629 978 l 636 1032 l 907 1032 l 901 978 l 826 965 l 467 397 l 424 64 l 574 47 l 568 0 l 164 0 l 168 47 l 326 64 l 369 397 l 119 964 l 40 978 l 44 1032 m 375 1182 q 334 1201 351 1182 q 317 1247 317 1219 q 342 1306 318 1281 q 393 1331 365 1331 q 438 1313 421 1331 q 454 1267 456 1294 q 431 1207 454 1232 q 375 1182 407 1182 m 660 1182 q 617 1201 635 1182 q 601 1249 600 1219 q 626 1306 601 1282 q 678 1331 650 1331 q 722 1314 704 1331 q 739 1269 739 1297 q 716 1208 739 1233 q 660 1182 693 1182 z "},"Ẏ":{"ha":796,"x_min":40,"x_max":907,"o":"m 44 1032 l 368 1032 l 361 978 l 235 964 l 401 557 l 433 464 l 488 557 l 736 964 l 629 978 l 636 1032 l 907 1032 l 901 978 l 826 965 l 467 397 l 424 64 l 574 47 l 568 0 l 164 0 l 168 47 l 326 64 l 369 397 l 119 964 l 40 978 l 44 1032 m 514 1154 q 473 1172 490 1154 q 456 1217 456 1190 q 479 1277 456 1251 q 531 1303 503 1303 q 577 1285 560 1303 q 594 1240 594 1268 q 569 1180 593 1206 q 514 1154 546 1154 z "},"Ỵ":{"ha":796,"x_min":40,"x_max":907,"o":"m 44 1032 l 368 1032 l 361 978 l 235 964 l 401 557 l 433 464 l 488 557 l 736 964 l 629 978 l 636 1032 l 907 1032 l 901 978 l 826 965 l 467 397 l 424 64 l 574 47 l 568 0 l 164 0 l 168 47 l 326 64 l 369 397 l 119 964 l 40 978 l 44 1032 m 258 -206 q 281 -142 258 -168 q 335 -117 304 -117 q 377 -131 363 -117 q 392 -169 392 -144 q 367 -233 392 -208 q 311 -258 343 -258 q 273 -244 288 -258 q 258 -206 258 -231 z "},"Ỳ":{"ha":796,"x_min":40,"x_max":907,"o":"m 44 1032 l 368 1032 l 361 978 l 235 964 l 401 557 l 433 464 l 488 557 l 736 964 l 629 978 l 636 1032 l 907 1032 l 901 978 l 826 965 l 467 397 l 424 64 l 574 47 l 568 0 l 164 0 l 168 47 l 326 64 l 369 397 l 119 964 l 40 978 l 44 1032 m 519 1094 q 392 1187 461 1128 q 301 1293 324 1246 l 369 1357 l 554 1119 l 519 1094 z "},"Ỷ":{"ha":796,"x_min":40,"x_max":907,"o":"m 44 1032 l 368 1032 l 361 978 l 235 964 l 401 557 l 433 464 l 488 557 l 736 964 l 629 978 l 636 1032 l 907 1032 l 901 978 l 826 965 l 467 397 l 424 64 l 574 47 l 568 0 l 164 0 l 168 47 l 326 64 l 369 397 l 119 964 l 40 978 l 44 1032 m 488 1139 q 476 1166 481 1150 q 474 1193 472 1182 q 492 1223 478 1211 q 531 1249 506 1235 q 568 1273 556 1264 q 588 1297 581 1282 l 589 1304 q 590 1318 590 1308 q 574 1353 590 1339 q 524 1372 557 1368 l 511 1372 q 474 1368 482 1372 l 485 1442 q 510 1449 488 1446 q 549 1453 532 1453 q 650 1425 614 1453 q 686 1347 686 1397 q 663 1272 686 1297 q 592 1218 639 1246 q 553 1193 564 1201 q 532 1147 531 1178 l 488 1139 z "},"Ỹ":{"ha":796,"x_min":40,"x_max":907,"o":"m 44 1032 l 368 1032 l 361 978 l 235 964 l 401 557 l 433 464 l 488 557 l 736 964 l 629 978 l 636 1032 l 907 1032 l 901 978 l 826 965 l 467 397 l 424 64 l 574 47 l 568 0 l 164 0 l 168 47 l 326 64 l 369 397 l 119 964 l 40 978 l 44 1032 m 276 1221 q 335 1301 297 1269 q 426 1332 374 1332 q 481 1318 457 1332 q 533 1279 506 1304 q 581 1244 561 1256 q 624 1233 600 1233 q 682 1251 660 1233 q 728 1301 704 1269 l 758 1257 q 703 1178 740 1213 q 614 1144 667 1144 q 556 1158 579 1144 q 504 1199 532 1172 q 459 1233 478 1222 q 415 1244 440 1244 q 355 1226 381 1244 q 307 1176 329 1208 l 276 1221 z "},"Z":{"ha":811,"x_min":4,"x_max":815,"o":"m 167 1032 l 803 1032 l 815 985 l 228 186 l 129 58 l 624 72 l 703 257 l 765 239 l 703 0 l 18 0 l 4 50 l 576 825 l 697 969 l 247 965 l 190 786 l 128 799 l 167 1032 z "},"Ź":{"ha":811,"x_min":4,"x_max":815,"o":"m 167 1032 l 803 1032 l 815 985 l 228 186 l 129 58 l 624 72 l 703 257 l 765 239 l 703 0 l 18 0 l 4 50 l 576 825 l 697 969 l 247 965 l 190 786 l 128 799 l 167 1032 m 629 1357 l 693 1293 q 599 1187 668 1244 q 471 1094 531 1129 l 438 1119 l 629 1357 z "},"Ž":{"ha":811,"x_min":4,"x_max":815,"o":"m 294 1325 l 333 1357 l 493 1176 l 711 1357 l 744 1325 l 536 1100 l 444 1100 l 294 1325 m 167 1032 l 803 1032 l 815 985 l 228 186 l 129 58 l 624 72 l 703 257 l 765 239 l 703 0 l 18 0 l 4 50 l 576 825 l 697 969 l 247 965 l 190 786 l 128 799 l 167 1032 z "},"Ż":{"ha":811,"x_min":4,"x_max":815,"o":"m 499 1154 q 458 1172 475 1154 q 440 1217 440 1190 q 464 1277 440 1251 q 515 1303 488 1303 q 562 1285 544 1303 q 579 1240 579 1268 q 554 1180 578 1206 q 499 1154 531 1154 m 167 1032 l 803 1032 l 815 985 l 228 186 l 129 58 l 624 72 l 703 257 l 765 239 l 703 0 l 18 0 l 4 50 l 576 825 l 697 969 l 247 965 l 190 786 l 128 799 l 167 1032 z "},"a":{"ha":796,"x_min":60,"x_max":721,"o":"m 614 117 q 613 100 613 110 q 622 68 613 78 q 640 58 631 58 q 667 67 654 58 q 701 97 679 76 l 721 68 q 696 38 715 57 q 648 2 676 18 q 588 -14 619 -14 q 510 79 504 -14 l 518 139 q 407 31 471 76 q 275 -14 343 -14 q 113 65 165 -14 q 60 279 60 144 q 113 509 60 390 q 264 708 165 628 q 493 789 363 789 q 560 782 522 789 q 629 765 599 775 l 704 788 l 614 117 m 590 690 q 478 722 546 722 q 310 656 382 722 q 202 489 239 589 q 165 292 165 389 q 197 124 165 183 q 293 64 228 64 q 423 116 358 64 q 531 231 488 168 l 590 690 z "},"á":{"ha":796,"x_min":60,"x_max":721,"o":"m 614 117 q 613 100 613 110 q 622 68 613 78 q 640 58 631 58 q 667 67 654 58 q 701 97 679 76 l 721 68 q 696 38 715 57 q 648 2 676 18 q 588 -14 619 -14 q 510 79 504 -14 l 518 139 q 407 31 471 76 q 275 -14 343 -14 q 113 65 165 -14 q 60 279 60 144 q 113 509 60 390 q 264 708 165 628 q 493 789 363 789 q 560 782 522 789 q 629 765 599 775 l 704 788 l 614 117 m 590 690 q 478 722 546 722 q 310 656 382 722 q 202 489 239 589 q 165 292 165 389 q 197 124 165 183 q 293 64 228 64 q 423 116 358 64 q 531 231 488 168 l 590 690 m 640 1172 l 714 1099 q 652 1024 700 1075 q 549 922 604 972 q 454 851 493 872 l 421 885 l 640 1172 z "},"ă":{"ha":796,"x_min":60,"x_max":721,"o":"m 614 117 q 613 100 613 110 q 622 68 613 78 q 640 58 631 58 q 667 67 654 58 q 701 97 679 76 l 721 68 q 696 38 715 57 q 648 2 676 18 q 588 -14 619 -14 q 510 79 504 -14 l 518 139 q 407 31 471 76 q 275 -14 343 -14 q 113 65 165 -14 q 60 279 60 144 q 113 509 60 390 q 264 708 165 628 q 493 789 363 789 q 560 782 522 789 q 629 765 599 775 l 704 788 l 614 117 m 590 690 q 478 722 546 722 q 310 656 382 722 q 202 489 239 589 q 165 292 165 389 q 197 124 165 183 q 293 64 228 64 q 423 116 358 64 q 531 231 488 168 l 590 690 m 492 885 q 386 916 431 885 q 319 998 342 947 q 296 1104 296 1049 l 296 1118 l 351 1118 l 353 1097 q 395 1004 360 1044 q 493 964 431 964 q 576 990 540 964 q 633 1051 613 1015 q 661 1118 654 1086 l 714 1118 q 713 1097 714 1103 q 676 997 707 1046 q 595 916 644 947 q 492 885 546 885 z "},"ắ":{"ha":796,"x_min":60,"x_max":721,"o":"m 644 1374 l 706 1313 q 612 1208 686 1281 q 490 1110 538 1135 l 464 1136 l 644 1374 m 492 885 q 386 916 431 885 q 319 998 342 947 q 296 1104 296 1049 l 296 1118 l 351 1118 l 353 1097 q 395 1004 360 1044 q 493 964 431 964 q 576 990 540 964 q 633 1051 613 1015 q 661 1118 654 1086 l 714 1118 q 713 1097 714 1103 q 676 997 707 1046 q 595 916 644 947 q 492 885 546 885 m 614 117 q 613 100 613 110 q 622 68 613 78 q 640 58 631 58 q 667 67 654 58 q 701 97 679 76 l 721 68 q 696 38 715 57 q 648 2 676 18 q 588 -14 619 -14 q 510 79 504 -14 l 518 139 q 407 31 471 76 q 275 -14 343 -14 q 113 65 165 -14 q 60 279 60 144 q 113 509 60 390 q 264 708 165 628 q 493 789 363 789 q 560 782 522 789 q 629 765 599 775 l 704 788 l 614 117 m 590 690 q 478 722 546 722 q 310 656 382 722 q 202 489 239 589 q 165 292 165 389 q 197 124 165 183 q 293 64 228 64 q 423 116 358 64 q 531 231 488 168 l 590 690 z "},"ặ":{"ha":796,"x_min":60,"x_max":721,"o":"m 614 117 q 613 100 613 110 q 622 68 613 78 q 640 58 631 58 q 667 67 654 58 q 701 97 679 76 l 721 68 q 696 38 715 57 q 648 2 676 18 q 588 -14 619 -14 q 510 79 504 -14 l 518 139 q 407 31 471 76 q 275 -14 343 -14 q 113 65 165 -14 q 60 279 60 144 q 113 509 60 390 q 264 708 165 628 q 493 789 363 789 q 560 782 522 789 q 629 765 599 775 l 704 788 l 614 117 m 590 690 q 478 722 546 722 q 310 656 382 722 q 202 489 239 589 q 165 292 165 389 q 197 124 165 183 q 293 64 228 64 q 423 116 358 64 q 531 231 488 168 l 590 690 m 258 -206 q 281 -142 258 -168 q 335 -117 304 -117 q 377 -131 363 -117 q 392 -169 392 -144 q 367 -233 392 -208 q 311 -258 343 -258 q 273 -244 288 -258 q 258 -206 258 -231 m 492 885 q 386 916 431 885 q 319 998 342 947 q 296 1104 296 1049 l 296 1118 l 351 1118 l 353 1097 q 395 1004 360 1044 q 493 964 431 964 q 576 990 540 964 q 633 1051 613 1015 q 661 1118 654 1086 l 714 1118 q 713 1097 714 1103 q 676 997 707 1046 q 595 916 644 947 q 492 885 546 885 z "},"ằ":{"ha":796,"x_min":60,"x_max":721,"o":"m 528 1088 q 415 1182 486 1114 q 322 1286 343 1250 l 386 1351 l 556 1114 l 528 1088 m 492 885 q 386 916 431 885 q 319 998 342 947 q 296 1104 296 1049 l 296 1118 l 351 1118 l 353 1097 q 395 1004 360 1044 q 493 964 431 964 q 576 990 540 964 q 633 1051 613 1015 q 661 1118 654 1086 l 714 1118 q 713 1097 714 1103 q 676 997 707 1046 q 595 916 644 947 q 492 885 546 885 m 614 117 q 613 100 613 110 q 622 68 613 78 q 640 58 631 58 q 667 67 654 58 q 701 97 679 76 l 721 68 q 696 38 715 57 q 648 2 676 18 q 588 -14 619 -14 q 510 79 504 -14 l 518 139 q 407 31 471 76 q 275 -14 343 -14 q 113 65 165 -14 q 60 279 60 144 q 113 509 60 390 q 264 708 165 628 q 493 789 363 789 q 560 782 522 789 q 629 765 599 775 l 704 788 l 614 117 m 590 690 q 478 722 546 722 q 310 656 382 722 q 202 489 239 589 q 165 292 165 389 q 197 124 165 183 q 293 64 228 64 q 423 116 358 64 q 531 231 488 168 l 590 690 z "},"ẳ":{"ha":796,"x_min":60,"x_max":721,"o":"m 614 117 q 613 100 613 110 q 622 68 613 78 q 640 58 631 58 q 667 67 654 58 q 701 97 679 76 l 721 68 q 696 38 715 57 q 648 2 676 18 q 588 -14 619 -14 q 510 79 504 -14 l 518 139 q 407 31 471 76 q 275 -14 343 -14 q 113 65 165 -14 q 60 279 60 144 q 113 509 60 390 q 264 708 165 628 q 493 789 363 789 q 560 782 522 789 q 629 765 599 775 l 704 788 l 614 117 m 590 690 q 478 722 546 722 q 310 656 382 722 q 202 489 239 589 q 165 292 165 389 q 197 124 165 183 q 293 64 228 64 q 423 116 358 64 q 531 231 488 168 l 590 690 m 492 885 q 386 916 431 885 q 319 998 342 947 q 296 1104 296 1049 l 296 1118 l 351 1118 l 353 1097 q 395 1004 360 1044 q 493 964 431 964 q 576 990 540 964 q 633 1051 613 1015 q 661 1118 654 1086 l 714 1118 q 713 1097 714 1103 q 676 997 707 1046 q 595 916 644 947 q 492 885 546 885 m 474 1099 q 463 1126 467 1110 q 460 1153 458 1142 q 478 1183 464 1171 q 517 1208 492 1194 q 554 1233 542 1224 q 574 1257 567 1242 l 575 1264 q 576 1278 576 1268 q 560 1313 576 1299 q 510 1332 543 1328 l 497 1332 q 460 1328 468 1332 l 471 1401 q 496 1409 474 1406 q 535 1413 518 1413 q 636 1385 600 1413 q 672 1307 672 1357 q 649 1231 672 1257 q 578 1178 625 1206 q 539 1153 550 1161 q 518 1107 517 1138 l 474 1099 z "},"ẵ":{"ha":796,"x_min":60,"x_max":774,"o":"m 614 117 q 613 100 613 110 q 622 68 613 78 q 640 58 631 58 q 667 67 654 58 q 701 97 679 76 l 721 68 q 696 38 715 57 q 648 2 676 18 q 588 -14 619 -14 q 510 79 504 -14 l 518 139 q 407 31 471 76 q 275 -14 343 -14 q 113 65 165 -14 q 60 279 60 144 q 113 509 60 390 q 264 708 165 628 q 493 789 363 789 q 560 782 522 789 q 629 765 599 775 l 704 788 l 614 117 m 590 690 q 478 722 546 722 q 310 656 382 722 q 202 489 239 589 q 165 292 165 389 q 197 124 165 183 q 293 64 228 64 q 423 116 358 64 q 531 231 488 168 l 590 690 m 492 885 q 386 916 431 885 q 319 998 342 947 q 296 1104 296 1049 l 296 1118 l 351 1118 l 353 1097 q 395 1004 360 1044 q 493 964 431 964 q 576 990 540 964 q 633 1051 613 1015 q 661 1118 654 1086 l 714 1118 q 713 1097 714 1103 q 676 997 707 1046 q 595 916 644 947 q 492 885 546 885 m 294 1254 q 363 1333 318 1300 q 457 1367 408 1367 q 510 1353 489 1367 q 558 1313 532 1339 q 596 1279 579 1290 q 633 1268 613 1268 q 692 1290 668 1268 q 742 1349 717 1313 l 774 1299 q 711 1214 757 1249 q 613 1179 665 1179 q 553 1193 575 1179 q 504 1235 531 1207 q 467 1269 482 1258 q 431 1279 453 1279 q 319 1208 383 1279 l 294 1254 z "},"ǎ":{"ha":796,"x_min":60,"x_max":750,"o":"m 614 117 q 613 100 613 110 q 622 68 613 78 q 640 58 631 58 q 667 67 654 58 q 701 97 679 76 l 721 68 q 696 38 715 57 q 648 2 676 18 q 588 -14 619 -14 q 510 79 504 -14 l 518 139 q 407 31 471 76 q 275 -14 343 -14 q 113 65 165 -14 q 60 279 60 144 q 113 509 60 390 q 264 708 165 628 q 493 789 363 789 q 560 782 522 789 q 629 765 599 775 l 704 788 l 614 117 m 590 690 q 478 722 546 722 q 310 656 382 722 q 202 489 239 589 q 165 292 165 389 q 197 124 165 183 q 293 64 228 64 q 423 116 358 64 q 531 231 488 168 l 590 690 m 286 1088 l 328 1119 l 494 933 l 713 1119 l 750 1088 l 533 857 l 442 857 l 286 1088 z "},"â":{"ha":796,"x_min":60,"x_max":721,"o":"m 614 117 q 613 100 613 110 q 622 68 613 78 q 640 58 631 58 q 667 67 654 58 q 701 97 679 76 l 721 68 q 696 38 715 57 q 648 2 676 18 q 588 -14 619 -14 q 510 79 504 -14 l 518 139 q 407 31 471 76 q 275 -14 343 -14 q 113 65 165 -14 q 60 279 60 144 q 113 509 60 390 q 264 708 165 628 q 493 789 363 789 q 560 782 522 789 q 629 765 599 775 l 704 788 l 614 117 m 590 690 q 478 722 546 722 q 310 656 382 722 q 202 489 239 589 q 165 292 165 389 q 197 124 165 183 q 293 64 228 64 q 423 116 358 64 q 531 231 488 168 l 590 690 m 244 869 l 478 1119 l 571 1119 l 708 868 l 669 838 l 511 1039 l 275 839 l 244 869 z "},"ấ":{"ha":796,"x_min":60,"x_max":935,"o":"m 874 1282 l 935 1221 q 841 1116 915 1189 q 719 1018 767 1043 l 693 1044 l 874 1282 m 244 869 l 478 1119 l 571 1119 l 708 868 l 669 838 l 511 1039 l 275 839 l 244 869 m 614 117 q 613 100 613 110 q 622 68 613 78 q 640 58 631 58 q 667 67 654 58 q 701 97 679 76 l 721 68 q 696 38 715 57 q 648 2 676 18 q 588 -14 619 -14 q 510 79 504 -14 l 518 139 q 407 31 471 76 q 275 -14 343 -14 q 113 65 165 -14 q 60 279 60 144 q 113 509 60 390 q 264 708 165 628 q 493 789 363 789 q 560 782 522 789 q 629 765 599 775 l 704 788 l 614 117 m 590 690 q 478 722 546 722 q 310 656 382 722 q 202 489 239 589 q 165 292 165 389 q 197 124 165 183 q 293 64 228 64 q 423 116 358 64 q 531 231 488 168 l 590 690 z "},"ậ":{"ha":796,"x_min":60,"x_max":721,"o":"m 614 117 q 613 100 613 110 q 622 68 613 78 q 640 58 631 58 q 667 67 654 58 q 701 97 679 76 l 721 68 q 696 38 715 57 q 648 2 676 18 q 588 -14 619 -14 q 510 79 504 -14 l 518 139 q 407 31 471 76 q 275 -14 343 -14 q 113 65 165 -14 q 60 279 60 144 q 113 509 60 390 q 264 708 165 628 q 493 789 363 789 q 560 782 522 789 q 629 765 599 775 l 704 788 l 614 117 m 590 690 q 478 722 546 722 q 310 656 382 722 q 202 489 239 589 q 165 292 165 389 q 197 124 165 183 q 293 64 228 64 q 423 116 358 64 q 531 231 488 168 l 590 690 m 258 -206 q 281 -142 258 -168 q 335 -117 304 -117 q 377 -131 363 -117 q 392 -169 392 -144 q 367 -233 392 -208 q 311 -258 343 -258 q 273 -244 288 -258 q 258 -206 258 -231 m 244 869 l 478 1119 l 571 1119 l 708 868 l 669 838 l 511 1039 l 275 839 l 244 869 z "},"ầ":{"ha":796,"x_min":60,"x_max":761,"o":"m 733 1076 q 620 1171 692 1103 q 528 1275 549 1239 l 592 1340 l 761 1103 l 733 1076 m 244 869 l 478 1119 l 571 1119 l 708 868 l 669 838 l 511 1039 l 275 839 l 244 869 m 614 117 q 613 100 613 110 q 622 68 613 78 q 640 58 631 58 q 667 67 654 58 q 701 97 679 76 l 721 68 q 696 38 715 57 q 648 2 676 18 q 588 -14 619 -14 q 510 79 504 -14 l 518 139 q 407 31 471 76 q 275 -14 343 -14 q 113 65 165 -14 q 60 279 60 144 q 113 509 60 390 q 264 708 165 628 q 493 789 363 789 q 560 782 522 789 q 629 765 599 775 l 704 788 l 614 117 m 590 690 q 478 722 546 722 q 310 656 382 722 q 202 489 239 589 q 165 292 165 389 q 197 124 165 183 q 293 64 228 64 q 423 116 358 64 q 531 231 488 168 l 590 690 z "},"ẩ":{"ha":796,"x_min":60,"x_max":893,"o":"m 711 1007 q 699 1056 697 1033 q 715 1082 703 1072 q 751 1107 726 1092 q 784 1127 772 1118 q 803 1150 796 1136 l 804 1157 q 794 1197 808 1181 q 744 1218 781 1214 l 733 1218 q 699 1215 710 1218 l 710 1282 q 732 1288 711 1285 q 767 1292 753 1292 q 860 1266 826 1292 q 893 1193 893 1240 q 890 1168 893 1185 q 863 1119 883 1138 q 807 1079 843 1101 q 791 1069 800 1075 q 771 1056 782 1064 q 753 1014 751 1042 l 711 1007 m 244 869 l 478 1119 l 571 1119 l 708 868 l 669 838 l 511 1039 l 275 839 l 244 869 m 614 117 q 613 100 613 110 q 622 68 613 78 q 640 58 631 58 q 667 67 654 58 q 701 97 679 76 l 721 68 q 696 38 715 57 q 648 2 676 18 q 588 -14 619 -14 q 510 79 504 -14 l 518 139 q 407 31 471 76 q 275 -14 343 -14 q 113 65 165 -14 q 60 279 60 144 q 113 509 60 390 q 264 708 165 628 q 493 789 363 789 q 560 782 522 789 q 629 765 599 775 l 704 788 l 614 117 m 590 690 q 478 722 546 722 q 310 656 382 722 q 202 489 239 589 q 165 292 165 389 q 197 124 165 183 q 293 64 228 64 q 423 116 358 64 q 531 231 488 168 l 590 690 z "},"ẫ":{"ha":796,"x_min":60,"x_max":761,"o":"m 326 1228 q 389 1299 347 1269 q 474 1329 431 1329 q 522 1317 501 1329 q 565 1281 542 1304 q 601 1250 586 1260 q 635 1240 615 1240 q 689 1261 667 1240 q 732 1314 711 1282 l 761 1268 q 705 1191 746 1222 q 615 1160 664 1160 q 562 1172 582 1160 q 517 1210 542 1185 q 485 1240 500 1229 q 450 1250 471 1250 q 349 1186 410 1250 l 326 1228 m 244 869 l 478 1119 l 571 1119 l 708 868 l 669 838 l 511 1039 l 275 839 l 244 869 m 614 117 q 613 100 613 110 q 622 68 613 78 q 640 58 631 58 q 667 67 654 58 q 701 97 679 76 l 721 68 q 696 38 715 57 q 648 2 676 18 q 588 -14 619 -14 q 510 79 504 -14 l 518 139 q 407 31 471 76 q 275 -14 343 -14 q 113 65 165 -14 q 60 279 60 144 q 113 509 60 390 q 264 708 165 628 q 493 789 363 789 q 560 782 522 789 q 629 765 599 775 l 704 788 l 614 117 m 590 690 q 478 722 546 722 q 310 656 382 722 q 202 489 239 589 q 165 292 165 389 q 197 124 165 183 q 293 64 228 64 q 423 116 358 64 q 531 231 488 168 l 590 690 z "},"ä":{"ha":796,"x_min":60,"x_max":721,"o":"m 614 117 q 613 100 613 110 q 622 68 613 78 q 640 58 631 58 q 667 67 654 58 q 701 97 679 76 l 721 68 q 696 38 715 57 q 648 2 676 18 q 588 -14 619 -14 q 510 79 504 -14 l 518 139 q 407 31 471 76 q 275 -14 343 -14 q 113 65 165 -14 q 60 279 60 144 q 113 509 60 390 q 264 708 165 628 q 493 789 363 789 q 560 782 522 789 q 629 765 599 775 l 704 788 l 614 117 m 590 690 q 478 722 546 722 q 310 656 382 722 q 202 489 239 589 q 165 292 165 389 q 197 124 165 183 q 293 64 228 64 q 423 116 358 64 q 531 231 488 168 l 590 690 m 351 951 q 310 970 328 951 q 293 1017 293 989 q 317 1076 294 1051 q 369 1100 340 1100 q 415 1083 399 1100 q 432 1038 432 1065 q 407 976 431 1001 q 351 951 383 951 m 638 951 q 597 970 614 951 q 579 1017 579 989 q 603 1076 581 1051 q 656 1100 625 1100 q 701 1083 685 1100 q 718 1038 718 1065 q 693 976 717 1001 q 638 951 669 951 z "},"ạ":{"ha":796,"x_min":60,"x_max":721,"o":"m 614 117 q 613 100 613 110 q 622 68 613 78 q 640 58 631 58 q 667 67 654 58 q 701 97 679 76 l 721 68 q 696 38 715 57 q 648 2 676 18 q 588 -14 619 -14 q 510 79 504 -14 l 518 139 q 407 31 471 76 q 275 -14 343 -14 q 113 65 165 -14 q 60 279 60 144 q 113 509 60 390 q 264 708 165 628 q 493 789 363 789 q 560 782 522 789 q 629 765 599 775 l 704 788 l 614 117 m 590 690 q 478 722 546 722 q 310 656 382 722 q 202 489 239 589 q 165 292 165 389 q 197 124 165 183 q 293 64 228 64 q 423 116 358 64 q 531 231 488 168 l 590 690 m 258 -206 q 281 -142 258 -168 q 335 -117 304 -117 q 377 -131 363 -117 q 392 -169 392 -144 q 367 -233 392 -208 q 311 -258 343 -258 q 273 -244 288 -258 q 258 -206 258 -231 z "},"à":{"ha":796,"x_min":60,"x_max":721,"o":"m 614 117 q 613 100 613 110 q 622 68 613 78 q 640 58 631 58 q 667 67 654 58 q 701 97 679 76 l 721 68 q 696 38 715 57 q 648 2 676 18 q 588 -14 619 -14 q 510 79 504 -14 l 518 139 q 407 31 471 76 q 275 -14 343 -14 q 113 65 165 -14 q 60 279 60 144 q 113 509 60 390 q 264 708 165 628 q 493 789 363 789 q 560 782 522 789 q 629 765 599 775 l 704 788 l 614 117 m 590 690 q 478 722 546 722 q 310 656 382 722 q 202 489 239 589 q 165 292 165 389 q 197 124 165 183 q 293 64 228 64 q 423 116 358 64 q 531 231 488 168 l 590 690 m 482 851 q 344 966 431 883 q 233 1093 258 1049 l 311 1172 l 517 885 l 482 851 z "},"ả":{"ha":796,"x_min":60,"x_max":721,"o":"m 614 117 q 613 100 613 110 q 622 68 613 78 q 640 58 631 58 q 667 67 654 58 q 701 97 679 76 l 721 68 q 696 38 715 57 q 648 2 676 18 q 588 -14 619 -14 q 510 79 504 -14 l 518 139 q 407 31 471 76 q 275 -14 343 -14 q 113 65 165 -14 q 60 279 60 144 q 113 509 60 390 q 264 708 165 628 q 493 789 363 789 q 560 782 522 789 q 629 765 599 775 l 704 788 l 614 117 m 590 690 q 478 722 546 722 q 310 656 382 722 q 202 489 239 589 q 165 292 165 389 q 197 124 165 183 q 293 64 228 64 q 423 116 358 64 q 531 231 488 168 l 590 690 m 472 838 q 461 865 465 849 q 458 892 457 881 q 476 922 463 910 q 515 947 490 933 q 553 972 540 963 q 572 996 565 981 l 574 1003 q 575 1017 575 1007 q 558 1052 575 1038 q 508 1071 542 1067 l 496 1071 q 458 1067 467 1071 l 469 1140 q 494 1148 472 1144 q 533 1151 517 1151 q 635 1124 599 1151 q 671 1046 671 1096 q 647 970 671 996 q 576 917 624 944 q 538 892 549 900 q 517 846 515 876 l 472 838 z "},"ā":{"ha":796,"x_min":60,"x_max":721,"o":"m 614 117 q 613 100 613 110 q 622 68 613 78 q 640 58 631 58 q 667 67 654 58 q 701 97 679 76 l 721 68 q 696 38 715 57 q 648 2 676 18 q 588 -14 619 -14 q 510 79 504 -14 l 518 139 q 407 31 471 76 q 275 -14 343 -14 q 113 65 165 -14 q 60 279 60 144 q 113 509 60 390 q 264 708 165 628 q 493 789 363 789 q 560 782 522 789 q 629 765 599 775 l 704 788 l 614 117 m 590 690 q 478 722 546 722 q 310 656 382 722 q 202 489 239 589 q 165 292 165 389 q 197 124 165 183 q 293 64 228 64 q 423 116 358 64 q 531 231 488 168 l 590 690 m 319 1051 l 665 1051 l 654 971 l 308 971 l 319 1051 z "},"ą":{"ha":796,"x_min":60,"x_max":721,"o":"m 594 -193 q 694 -151 649 -193 l 708 -197 q 551 -256 642 -256 q 483 -232 506 -256 q 461 -176 460 -208 q 467 -140 461 -160 q 483 -106 474 -121 q 569 -12 511 -57 q 510 79 504 -3 l 518 139 q 407 31 471 76 q 275 -14 343 -14 q 113 65 165 -14 q 60 279 60 144 q 113 509 60 390 q 264 708 165 628 q 493 789 363 789 q 560 782 522 789 q 629 765 599 775 l 704 788 l 614 117 q 613 100 613 110 q 622 68 613 78 q 640 58 631 58 q 667 67 654 58 q 701 97 679 76 l 721 68 q 699 41 715 58 q 660 10 682 24 q 585 -68 613 -33 q 557 -136 557 -103 q 565 -178 556 -164 q 594 -193 575 -193 m 293 64 q 423 116 358 64 q 531 231 488 168 l 590 690 q 478 722 546 722 q 310 656 382 722 q 202 489 239 589 q 165 292 165 389 q 197 124 165 183 q 293 64 228 64 z "},"å":{"ha":796,"x_min":60,"x_max":725,"o":"m 614 117 q 613 100 613 110 q 622 68 613 78 q 640 58 631 58 q 667 67 654 58 q 701 97 679 76 l 721 68 q 696 38 715 57 q 648 2 676 18 q 588 -14 619 -14 q 510 79 504 -14 l 518 139 q 407 31 471 76 q 275 -14 343 -14 q 113 65 165 -14 q 60 279 60 144 q 113 509 60 390 q 264 708 165 628 q 493 789 363 789 q 560 782 522 789 q 629 765 599 775 l 704 788 l 614 117 m 590 690 q 478 722 546 722 q 310 656 382 722 q 202 489 239 589 q 165 292 165 389 q 197 124 165 183 q 293 64 228 64 q 423 116 358 64 q 531 231 488 168 l 590 690 m 500 851 q 363 893 411 851 q 315 1008 315 935 q 349 1119 315 1075 q 436 1185 383 1164 q 546 1206 489 1206 q 678 1167 631 1206 q 725 1058 725 1128 q 692 944 725 990 q 608 874 660 897 q 500 851 557 851 m 507 896 q 615 932 572 896 q 658 1046 658 968 q 626 1130 658 1099 q 538 1161 593 1161 q 429 1126 474 1161 q 385 1018 385 1092 q 418 931 385 965 q 507 896 451 896 z "},"ǻ":{"ha":796,"x_min":60,"x_max":790,"o":"m 614 117 q 613 100 613 110 q 622 68 613 78 q 640 58 631 58 q 667 67 654 58 q 701 97 679 76 l 721 68 q 696 38 715 57 q 648 2 676 18 q 588 -14 619 -14 q 510 79 504 -14 l 518 139 q 407 31 471 76 q 275 -14 343 -14 q 113 65 165 -14 q 60 279 60 144 q 113 509 60 390 q 264 708 165 628 q 493 789 363 789 q 560 782 522 789 q 629 765 599 775 l 704 788 l 614 117 m 590 690 q 478 722 546 722 q 310 656 382 722 q 202 489 239 589 q 165 292 165 389 q 197 124 165 183 q 293 64 228 64 q 423 116 358 64 q 531 231 488 168 l 590 690 m 500 851 q 363 893 411 851 q 315 1008 315 935 q 349 1119 315 1075 q 436 1185 383 1164 q 546 1206 489 1206 q 678 1167 631 1206 q 725 1058 725 1128 q 692 944 725 990 q 608 874 660 897 q 500 851 557 851 m 507 896 q 615 932 572 896 q 658 1046 658 968 q 626 1130 658 1099 q 538 1161 593 1161 q 429 1126 474 1161 q 385 1018 385 1092 q 418 931 385 965 q 507 896 451 896 m 717 1608 l 790 1535 q 728 1460 776 1511 q 625 1358 681 1408 q 531 1288 569 1308 l 497 1321 l 717 1608 z "},"ã":{"ha":796,"x_min":60,"x_max":736,"o":"m 614 117 q 613 100 613 110 q 622 68 613 78 q 640 58 631 58 q 667 67 654 58 q 701 97 679 76 l 721 68 q 696 38 715 57 q 648 2 676 18 q 588 -14 619 -14 q 510 79 504 -14 l 518 139 q 407 31 471 76 q 275 -14 343 -14 q 113 65 165 -14 q 60 279 60 144 q 113 509 60 390 q 264 708 165 628 q 493 789 363 789 q 560 782 522 789 q 629 765 599 775 l 704 788 l 614 117 m 590 690 q 478 722 546 722 q 310 656 382 722 q 202 489 239 589 q 165 292 165 389 q 197 124 165 183 q 293 64 228 64 q 423 116 358 64 q 531 231 488 168 l 590 690 m 257 988 q 326 1067 281 1033 q 419 1100 371 1100 q 473 1086 451 1100 q 521 1046 494 1072 q 558 1013 542 1024 q 596 1001 575 1001 q 655 1024 631 1001 q 704 1082 679 1046 l 736 1032 q 674 947 719 982 q 575 913 628 913 q 515 926 538 913 q 467 968 493 940 q 431 1002 444 992 q 393 1013 417 1013 q 282 942 346 1013 l 257 988 z "},"æ":{"ha":1178,"x_min":60,"x_max":1114,"o":"m 690 676 q 805 758 743 729 q 935 788 867 788 q 1068 739 1022 788 q 1114 617 1114 690 q 1031 452 1114 519 q 835 351 947 385 q 642 317 724 318 l 640 279 q 799 63 640 63 q 928 90 860 63 q 1053 172 996 117 l 1078 126 q 1012 63 1056 96 q 909 8 968 31 q 786 -14 850 -14 q 613 47 674 -14 q 539 215 551 108 q 422 55 496 124 q 264 -14 349 -14 q 110 63 161 -14 q 60 278 60 139 q 113 508 60 389 q 265 707 167 626 q 494 788 364 788 q 632 764 558 788 l 710 788 l 690 676 m 901 725 q 776 671 832 725 q 687 536 721 617 q 644 378 653 456 q 810 409 725 381 q 951 490 894 438 q 1008 610 1008 542 q 981 696 1008 667 q 901 725 954 725 m 600 685 q 479 722 557 722 q 311 656 382 722 q 203 488 240 589 q 165 290 165 388 q 282 64 165 64 q 428 137 358 64 q 535 288 497 210 l 600 685 z "},"ǽ":{"ha":1160,"x_min":53,"x_max":1107,"o":"m 765 1172 l 839 1099 q 777 1024 825 1075 q 674 922 729 972 q 579 851 618 872 l 546 885 l 765 1172 m 683 676 q 798 758 736 729 q 928 788 860 788 q 1061 739 1015 788 q 1107 617 1107 690 q 1024 452 1107 519 q 828 351 940 385 q 635 317 717 318 l 633 279 q 792 63 633 63 q 921 90 853 63 q 1046 172 989 117 l 1071 126 q 1005 63 1049 96 q 902 8 961 31 q 779 -14 843 -14 q 606 47 667 -14 q 532 215 544 108 q 415 55 489 124 q 257 -14 342 -14 q 103 63 154 -14 q 53 278 53 139 q 106 508 53 389 q 258 707 160 626 q 488 788 357 788 q 625 764 551 788 l 703 788 l 683 676 m 894 725 q 769 671 825 725 q 680 536 714 617 q 638 378 646 456 q 803 409 718 381 q 944 490 888 438 q 1001 610 1001 542 q 974 696 1001 667 q 894 725 947 725 m 593 685 q 472 722 550 722 q 304 656 375 722 q 196 488 233 589 q 158 290 158 388 q 275 64 158 64 q 421 137 351 64 q 528 288 490 210 l 593 685 z "},"b":{"ha":797,"x_min":89,"x_max":738,"o":"m 279 660 q 376 751 315 713 q 507 789 436 789 q 679 708 621 789 q 738 494 738 628 q 685 266 738 385 q 535 67 633 147 q 308 -14 438 -14 q 219 -3 267 -14 q 142 22 172 8 l 89 -3 l 226 1028 l 161 1051 l 172 1097 l 311 1119 l 339 1103 l 279 660 m 201 88 q 324 53 243 53 q 491 122 421 53 q 597 292 561 190 q 632 488 632 393 q 595 652 632 593 q 490 711 558 711 q 359 665 421 711 q 265 565 297 618 l 201 88 z "},"ḃ":{"ha":797,"x_min":89,"x_max":738,"o":"m 279 660 q 376 751 315 713 q 507 789 436 789 q 679 708 621 789 q 738 494 738 628 q 685 266 738 385 q 535 67 633 147 q 308 -14 438 -14 q 219 -3 267 -14 q 142 22 172 8 l 89 -3 l 226 1028 l 161 1051 l 172 1097 l 311 1119 l 339 1103 l 279 660 m 201 88 q 324 53 243 53 q 491 122 421 53 q 597 292 561 190 q 632 488 632 393 q 595 652 632 593 q 490 711 558 711 q 359 665 421 711 q 265 565 297 618 l 201 88 m 581 950 q 538 969 556 950 q 521 1017 521 988 q 546 1076 522 1051 q 597 1100 569 1100 q 643 1083 626 1100 q 658 1038 660 1065 q 635 976 658 1001 q 581 950 613 950 z "},"c":{"ha":604,"x_min":51,"x_max":597,"o":"m 553 663 q 489 696 524 683 q 424 708 454 708 q 283 658 343 708 q 192 516 224 607 q 160 307 160 425 q 203 125 160 188 q 324 63 246 63 q 422 83 379 63 q 521 147 465 103 l 542 103 q 442 23 504 60 q 296 -14 381 -14 q 116 67 181 -14 q 51 292 51 149 q 99 519 51 403 q 236 712 146 635 q 447 789 326 789 q 527 780 485 789 q 597 756 569 771 l 567 651 l 553 663 z "},"ć":{"ha":604,"x_min":51,"x_max":664,"o":"m 590 1172 l 664 1099 q 602 1024 650 1075 q 499 922 554 972 q 404 851 443 872 l 371 885 l 590 1172 m 553 663 q 489 696 524 683 q 424 708 454 708 q 283 658 343 708 q 192 516 224 607 q 160 307 160 425 q 203 125 160 188 q 324 63 246 63 q 422 83 379 63 q 521 147 465 103 l 542 103 q 442 23 504 60 q 296 -14 381 -14 q 116 67 181 -14 q 51 292 51 149 q 99 519 51 403 q 236 712 146 635 q 447 789 326 789 q 527 780 485 789 q 597 756 569 771 l 567 651 l 553 663 z "},"č":{"ha":604,"x_min":51,"x_max":694,"o":"m 231 1088 l 272 1119 l 439 933 l 657 1119 l 694 1088 l 478 857 l 386 857 l 231 1088 m 553 663 q 489 696 524 683 q 424 708 454 708 q 283 658 343 708 q 192 516 224 607 q 160 307 160 425 q 203 125 160 188 q 324 63 246 63 q 422 83 379 63 q 521 147 465 103 l 542 103 q 442 23 504 60 q 296 -14 381 -14 q 116 67 181 -14 q 51 292 51 149 q 99 519 51 403 q 236 712 146 635 q 447 789 326 789 q 527 780 485 789 q 597 756 569 771 l 567 651 l 553 663 z "},"ç":{"ha":604,"x_min":51,"x_max":597,"o":"m 447 789 q 527 780 485 789 q 597 756 569 771 l 567 651 l 553 663 q 489 696 524 683 q 424 708 454 708 q 283 658 343 708 q 192 516 224 607 q 160 307 160 425 q 203 125 160 188 q 324 63 246 63 q 422 83 379 63 q 521 147 465 103 l 542 103 q 461 34 510 67 q 347 -10 413 1 q 360 -92 360 -47 q 309 -259 360 -203 q 178 -315 258 -315 q 126 -310 151 -315 q 90 -296 101 -304 l 99 -214 q 126 -223 107 -219 q 168 -226 146 -226 q 263 -181 231 -226 q 296 -58 296 -135 q 292 -14 296 -33 q 115 69 178 -12 q 51 292 51 150 q 99 519 51 403 q 236 712 146 635 q 447 789 326 789 z "},"ĉ":{"ha":604,"x_min":51,"x_max":658,"o":"m 194 869 l 428 1119 l 521 1119 l 658 868 l 619 838 l 461 1039 l 225 839 l 194 869 m 553 663 q 489 696 524 683 q 424 708 454 708 q 283 658 343 708 q 192 516 224 607 q 160 307 160 425 q 203 125 160 188 q 324 63 246 63 q 422 83 379 63 q 521 147 465 103 l 542 103 q 442 23 504 60 q 296 -14 381 -14 q 116 67 181 -14 q 51 292 51 149 q 99 519 51 403 q 236 712 146 635 q 447 789 326 789 q 527 780 485 789 q 597 756 569 771 l 567 651 l 553 663 z "},"ċ":{"ha":604,"x_min":51,"x_max":597,"o":"m 553 663 q 489 696 524 683 q 424 708 454 708 q 283 658 343 708 q 192 516 224 607 q 160 307 160 425 q 203 125 160 188 q 324 63 246 63 q 422 83 379 63 q 521 147 465 103 l 542 103 q 442 23 504 60 q 296 -14 381 -14 q 116 67 181 -14 q 51 292 51 149 q 99 519 51 403 q 236 712 146 635 q 447 789 326 789 q 527 780 485 789 q 597 756 569 771 l 567 651 l 553 663 m 447 950 q 405 969 422 950 q 388 1017 388 988 q 413 1076 389 1051 q 464 1100 436 1100 q 510 1083 493 1100 q 525 1038 526 1065 q 502 976 525 1001 q 447 950 479 950 z "},"d":{"ha":797,"x_min":57,"x_max":761,"o":"m 614 107 q 613 90 613 101 q 617 67 613 75 q 631 58 622 58 q 696 94 656 58 l 714 65 q 660 14 699 42 q 578 -14 622 -14 q 510 69 506 -14 l 510 108 q 411 22 471 57 q 282 -14 351 -14 q 114 66 171 -14 q 57 279 57 146 q 110 509 57 390 q 262 708 163 628 q 492 789 361 789 q 610 769 547 789 l 650 1028 l 563 1050 l 574 1096 l 732 1119 l 761 1103 l 614 107 m 597 685 q 475 722 554 722 q 306 653 376 722 q 199 483 235 585 q 163 288 163 382 q 198 123 163 182 q 299 64 233 64 q 428 107 367 64 q 524 203 490 150 l 597 685 z "},"ð":{"ha":783,"x_min":58,"x_max":721,"o":"m 382 1031 q 232 1104 296 1090 l 256 1169 q 340 1138 290 1161 q 435 1088 390 1115 q 499 1164 468 1126 q 542 1215 531 1201 l 593 1165 l 492 1050 q 666 831 611 949 q 721 557 721 714 q 675 269 721 399 q 540 63 629 139 q 325 -14 450 -14 q 180 29 240 -14 q 89 141 119 72 q 58 286 58 210 q 112 531 58 425 q 251 695 165 638 q 433 753 338 753 q 542 733 492 753 q 615 675 592 713 q 555 858 590 796 q 438 990 519 921 l 328 867 l 275 915 l 382 1031 m 432 692 q 292 633 351 692 q 200 478 232 574 q 168 279 168 383 q 213 113 168 181 q 338 46 258 46 q 507 142 436 46 q 600 383 578 238 q 610 507 610 451 l 608 531 q 586 596 606 558 q 528 663 567 633 q 432 692 489 692 z "},"ď":{"ha":964,"x_min":57,"x_max":975,"o":"m 614 107 q 613 90 613 101 q 617 67 613 75 q 631 58 622 58 q 696 94 656 58 l 714 65 q 660 14 699 42 q 578 -14 622 -14 q 510 69 506 -14 l 510 108 q 411 22 471 57 q 282 -14 351 -14 q 114 66 171 -14 q 57 279 57 146 q 110 509 57 390 q 262 708 163 628 q 492 789 361 789 q 610 769 547 789 l 650 1028 l 563 1050 l 574 1096 l 732 1119 l 761 1103 l 614 107 m 597 685 q 475 722 554 722 q 306 653 376 722 q 199 483 235 585 q 163 288 163 382 q 198 123 163 182 q 299 64 233 64 q 428 107 367 64 q 524 203 490 150 l 597 685 m 831 724 q 883 938 874 838 q 885 972 885 949 q 878 1035 885 1006 q 864 1076 872 1064 l 874 1099 l 954 1124 q 975 1028 975 1101 q 972 968 975 989 q 933 812 964 885 q 865 693 903 739 l 833 710 l 831 724 z "},"đ":{"ha":797,"x_min":57,"x_max":835,"o":"m 614 107 q 613 90 613 101 q 617 67 613 75 q 631 58 622 58 q 696 94 656 58 l 714 65 q 660 14 699 42 q 578 -14 622 -14 q 510 69 506 -14 l 510 108 q 411 22 471 57 q 282 -14 351 -14 q 114 66 171 -14 q 57 279 57 146 q 110 509 57 390 q 262 708 163 628 q 492 789 361 789 q 610 769 547 789 l 626 872 l 431 872 l 440 944 l 638 944 l 650 1028 l 563 1050 l 574 1096 l 732 1119 l 761 1103 l 738 944 l 835 944 l 825 872 l 726 872 l 614 107 m 597 685 q 475 722 554 722 q 306 653 376 722 q 199 483 235 585 q 163 288 163 382 q 198 123 163 182 q 299 64 233 64 q 428 107 367 64 q 524 203 490 150 l 597 685 z "},"ḋ":{"ha":797,"x_min":57,"x_max":761,"o":"m 614 107 q 613 90 613 101 q 617 67 613 75 q 631 58 622 58 q 696 94 656 58 l 714 65 q 660 14 699 42 q 578 -14 622 -14 q 510 69 506 -14 l 510 108 q 411 22 471 57 q 282 -14 351 -14 q 114 66 171 -14 q 57 279 57 146 q 110 509 57 390 q 262 708 163 628 q 492 789 361 789 q 610 769 547 789 l 650 1028 l 563 1050 l 574 1096 l 732 1119 l 761 1103 l 614 107 m 597 685 q 475 722 554 722 q 306 653 376 722 q 199 483 235 585 q 163 288 163 382 q 198 123 163 182 q 299 64 233 64 q 428 107 367 64 q 524 203 490 150 l 597 685 m 325 950 q 283 969 300 950 q 265 1017 265 988 q 290 1076 267 1051 q 342 1100 314 1100 q 388 1083 371 1100 q 403 1038 404 1065 q 380 976 403 1001 q 325 950 357 950 z "},"ǳ":{"ha":1499,"x_min":57,"x_max":1492,"o":"m 614 107 q 613 90 613 101 q 617 67 613 75 q 631 58 622 58 q 696 94 656 58 l 714 65 q 660 14 699 42 q 578 -14 622 -14 q 510 69 506 -14 l 510 108 q 411 22 471 57 q 282 -14 351 -14 q 114 66 171 -14 q 57 279 57 146 q 110 509 57 390 q 262 708 163 628 q 492 789 361 789 q 610 769 547 789 l 650 1028 l 563 1050 l 574 1096 l 732 1119 l 761 1103 l 614 107 m 597 685 q 475 722 554 722 q 306 653 376 722 q 199 483 235 585 q 163 288 163 382 q 198 123 163 182 q 299 64 233 64 q 428 107 367 64 q 524 203 490 150 l 597 685 m 1361 685 q 1071 690 1200 690 q 1024 689 1026 690 q 968 646 990 688 q 943 551 946 604 l 899 551 q 910 681 897 608 q 950 772 924 754 q 1011 786 968 786 q 1219 775 1067 786 q 1399 765 1346 765 q 1463 785 1436 765 l 1492 754 l 1167 325 l 949 86 l 1258 81 q 1339 114 1311 81 q 1376 214 1367 147 l 1421 214 q 1401 78 1415 139 q 1360 -1 1386 17 q 1292 -15 1335 -15 q 1176 -10 1249 -15 q 1081 -3 1103 -4 q 908 8 944 8 q 842 -15 871 8 l 807 19 l 1261 572 l 1361 685 z "},"ǆ":{"ha":1499,"x_min":57,"x_max":1492,"o":"m 614 107 q 613 90 613 101 q 617 67 613 75 q 631 58 622 58 q 696 94 656 58 l 714 65 q 660 14 699 42 q 578 -14 622 -14 q 510 69 506 -14 l 510 108 q 411 22 471 57 q 282 -14 351 -14 q 114 66 171 -14 q 57 279 57 146 q 110 509 57 390 q 262 708 163 628 q 492 789 361 789 q 610 769 547 789 l 650 1028 l 563 1050 l 574 1096 l 732 1119 l 761 1103 l 614 107 m 597 685 q 475 722 554 722 q 306 653 376 722 q 199 483 235 585 q 163 288 163 382 q 198 123 163 182 q 299 64 233 64 q 428 107 367 64 q 524 203 490 150 l 597 685 m 1361 685 q 1071 690 1200 690 q 1024 689 1026 690 q 968 646 990 688 q 943 551 946 604 l 899 551 q 910 681 897 608 q 950 772 924 754 q 1011 786 968 786 q 1219 775 1067 786 q 1399 765 1346 765 q 1463 785 1436 765 l 1492 754 l 1167 325 l 949 86 l 1258 81 q 1339 114 1311 81 q 1376 214 1367 147 l 1421 214 q 1401 78 1415 139 q 1360 -1 1386 17 q 1292 -15 1335 -15 q 1176 -10 1249 -15 q 1081 -3 1103 -4 q 908 8 944 8 q 842 -15 871 8 l 807 19 l 1261 572 l 1361 685 m 1007 1088 l 1049 1119 l 1215 933 l 1433 1119 l 1471 1088 l 1254 857 l 1163 857 l 1007 1088 z "},"e":{"ha":713,"x_min":63,"x_max":649,"o":"m 611 126 q 497 31 575 76 q 329 -14 418 -14 q 179 28 239 -14 q 91 137 119 69 q 63 283 63 204 q 115 531 63 414 q 258 718 167 647 q 458 789 349 789 q 600 742 551 789 q 649 619 649 694 q 564 453 649 521 q 366 352 479 386 q 171 317 253 318 q 169 285 169 307 q 211 129 169 196 q 342 63 253 63 q 466 90 401 63 q 586 172 531 117 l 611 126 m 435 725 q 306 671 363 725 q 215 536 249 617 q 174 378 181 456 q 341 409 254 381 q 486 490 428 438 q 544 610 544 542 q 515 695 544 665 q 435 725 486 725 z "},"é":{"ha":713,"x_min":63,"x_max":661,"o":"m 588 1172 l 661 1099 q 599 1024 647 1075 q 496 922 551 972 q 401 851 440 872 l 368 885 l 588 1172 m 611 126 q 497 31 575 76 q 329 -14 418 -14 q 179 28 239 -14 q 91 137 119 69 q 63 283 63 204 q 115 531 63 414 q 258 718 167 647 q 458 789 349 789 q 600 742 551 789 q 649 619 649 694 q 564 453 649 521 q 366 352 479 386 q 171 317 253 318 q 169 285 169 307 q 211 129 169 196 q 342 63 253 63 q 466 90 401 63 q 586 172 531 117 l 611 126 m 435 725 q 306 671 363 725 q 215 536 249 617 q 174 378 181 456 q 341 409 254 381 q 486 490 428 438 q 544 610 544 542 q 515 695 544 665 q 435 725 486 725 z "},"ĕ":{"ha":713,"x_min":63,"x_max":661,"o":"m 611 126 q 497 31 575 76 q 329 -14 418 -14 q 179 28 239 -14 q 91 137 119 69 q 63 283 63 204 q 115 531 63 414 q 258 718 167 647 q 458 789 349 789 q 600 742 551 789 q 649 619 649 694 q 564 453 649 521 q 366 352 479 386 q 171 317 253 318 q 169 285 169 307 q 211 129 169 196 q 342 63 253 63 q 466 90 401 63 q 586 172 531 117 l 611 126 m 435 725 q 306 671 363 725 q 215 536 249 617 q 174 378 181 456 q 341 409 254 381 q 486 490 428 438 q 544 610 544 542 q 515 695 544 665 q 435 725 486 725 m 439 885 q 333 916 378 885 q 266 998 289 947 q 243 1104 243 1049 l 243 1118 l 299 1118 l 300 1097 q 342 1004 307 1044 q 440 964 378 964 q 524 990 488 964 q 581 1051 560 1015 q 608 1118 601 1086 l 661 1118 q 660 1097 661 1103 q 623 997 654 1046 q 542 916 592 947 q 439 885 493 885 z "},"ě":{"ha":713,"x_min":63,"x_max":697,"o":"m 233 1088 l 275 1119 l 442 933 l 660 1119 l 697 1088 l 481 857 l 389 857 l 233 1088 m 611 126 q 497 31 575 76 q 329 -14 418 -14 q 179 28 239 -14 q 91 137 119 69 q 63 283 63 204 q 115 531 63 414 q 258 718 167 647 q 458 789 349 789 q 600 742 551 789 q 649 619 649 694 q 564 453 649 521 q 366 352 479 386 q 171 317 253 318 q 169 285 169 307 q 211 129 169 196 q 342 63 253 63 q 466 90 401 63 q 586 172 531 117 l 611 126 m 435 725 q 306 671 363 725 q 215 536 249 617 q 174 378 181 456 q 341 409 254 381 q 486 490 428 438 q 544 610 544 542 q 515 695 544 665 q 435 725 486 725 z "},"ê":{"ha":713,"x_min":63,"x_max":656,"o":"m 192 869 l 425 1119 l 518 1119 l 656 868 l 617 838 l 458 1039 l 222 839 l 192 869 m 611 126 q 497 31 575 76 q 329 -14 418 -14 q 179 28 239 -14 q 91 137 119 69 q 63 283 63 204 q 115 531 63 414 q 258 718 167 647 q 458 789 349 789 q 600 742 551 789 q 649 619 649 694 q 564 453 649 521 q 366 352 479 386 q 171 317 253 318 q 169 285 169 307 q 211 129 169 196 q 342 63 253 63 q 466 90 401 63 q 586 172 531 117 l 611 126 m 435 725 q 306 671 363 725 q 215 536 249 617 q 174 378 181 456 q 341 409 254 381 q 486 490 428 438 q 544 610 544 542 q 515 695 544 665 q 435 725 486 725 z "},"ế":{"ha":713,"x_min":63,"x_max":882,"o":"m 821 1282 l 882 1221 q 788 1116 863 1189 q 667 1018 714 1043 l 640 1044 l 821 1282 m 192 869 l 425 1119 l 518 1119 l 656 868 l 617 838 l 458 1039 l 222 839 l 192 869 m 611 126 q 497 31 575 76 q 329 -14 418 -14 q 179 28 239 -14 q 91 137 119 69 q 63 283 63 204 q 115 531 63 414 q 258 718 167 647 q 458 789 349 789 q 600 742 551 789 q 649 619 649 694 q 564 453 649 521 q 366 352 479 386 q 171 317 253 318 q 169 285 169 307 q 211 129 169 196 q 342 63 253 63 q 466 90 401 63 q 586 172 531 117 l 611 126 m 435 725 q 306 671 363 725 q 215 536 249 617 q 174 378 181 456 q 341 409 254 381 q 486 490 428 438 q 544 610 544 542 q 515 695 544 665 q 435 725 486 725 z "},"ệ":{"ha":713,"x_min":63,"x_max":656,"o":"m 611 126 q 497 31 575 76 q 329 -14 418 -14 q 179 28 239 -14 q 91 137 119 69 q 63 283 63 204 q 115 531 63 414 q 258 718 167 647 q 458 789 349 789 q 600 742 551 789 q 649 619 649 694 q 564 453 649 521 q 366 352 479 386 q 171 317 253 318 q 169 285 169 307 q 211 129 169 196 q 342 63 253 63 q 466 90 401 63 q 586 172 531 117 l 611 126 m 435 725 q 306 671 363 725 q 215 536 249 617 q 174 378 181 456 q 341 409 254 381 q 486 490 428 438 q 544 610 544 542 q 515 695 544 665 q 435 725 486 725 m 217 -206 q 240 -142 217 -168 q 293 -117 263 -117 q 335 -131 321 -117 q 350 -169 350 -144 q 326 -233 350 -208 q 269 -258 301 -258 q 231 -244 246 -258 q 217 -206 217 -231 m 192 869 l 425 1119 l 518 1119 l 656 868 l 617 838 l 458 1039 l 222 839 l 192 869 z "},"ề":{"ha":713,"x_min":63,"x_max":708,"o":"m 681 1076 q 567 1171 639 1103 q 475 1275 496 1239 l 539 1340 l 708 1103 l 681 1076 m 192 869 l 425 1119 l 518 1119 l 656 868 l 617 838 l 458 1039 l 222 839 l 192 869 m 611 126 q 497 31 575 76 q 329 -14 418 -14 q 179 28 239 -14 q 91 137 119 69 q 63 283 63 204 q 115 531 63 414 q 258 718 167 647 q 458 789 349 789 q 600 742 551 789 q 649 619 649 694 q 564 453 649 521 q 366 352 479 386 q 171 317 253 318 q 169 285 169 307 q 211 129 169 196 q 342 63 253 63 q 466 90 401 63 q 586 172 531 117 l 611 126 m 435 725 q 306 671 363 725 q 215 536 249 617 q 174 378 181 456 q 341 409 254 381 q 486 490 428 438 q 544 610 544 542 q 515 695 544 665 q 435 725 486 725 z "},"ể":{"ha":713,"x_min":63,"x_max":840,"o":"m 658 1007 q 646 1056 644 1033 q 662 1082 650 1072 q 699 1107 674 1092 q 731 1127 719 1118 q 750 1150 743 1136 l 751 1157 q 742 1197 756 1181 q 692 1218 728 1214 l 681 1218 q 646 1215 657 1218 l 657 1282 q 679 1288 658 1285 q 714 1292 700 1292 q 807 1266 774 1292 q 840 1193 840 1240 q 838 1168 840 1185 q 810 1119 831 1138 q 754 1079 790 1101 q 738 1069 747 1075 q 718 1056 729 1064 q 700 1014 699 1042 l 658 1007 m 192 869 l 425 1119 l 518 1119 l 656 868 l 617 838 l 458 1039 l 222 839 l 192 869 m 611 126 q 497 31 575 76 q 329 -14 418 -14 q 179 28 239 -14 q 91 137 119 69 q 63 283 63 204 q 115 531 63 414 q 258 718 167 647 q 458 789 349 789 q 600 742 551 789 q 649 619 649 694 q 564 453 649 521 q 366 352 479 386 q 171 317 253 318 q 169 285 169 307 q 211 129 169 196 q 342 63 253 63 q 466 90 401 63 q 586 172 531 117 l 611 126 m 435 725 q 306 671 363 725 q 215 536 249 617 q 174 378 181 456 q 341 409 254 381 q 486 490 428 438 q 544 610 544 542 q 515 695 544 665 q 435 725 486 725 z "},"ễ":{"ha":713,"x_min":63,"x_max":708,"o":"m 274 1228 q 336 1299 294 1269 q 421 1329 378 1329 q 469 1317 449 1329 q 513 1281 489 1304 q 548 1250 533 1260 q 582 1240 563 1240 q 636 1261 614 1240 q 679 1314 658 1282 l 708 1268 q 652 1191 693 1222 q 563 1160 611 1160 q 509 1172 529 1160 q 464 1210 489 1185 q 433 1240 447 1229 q 397 1250 418 1250 q 296 1186 357 1250 l 274 1228 m 192 869 l 425 1119 l 518 1119 l 656 868 l 617 838 l 458 1039 l 222 839 l 192 869 m 611 126 q 497 31 575 76 q 329 -14 418 -14 q 179 28 239 -14 q 91 137 119 69 q 63 283 63 204 q 115 531 63 414 q 258 718 167 647 q 458 789 349 789 q 600 742 551 789 q 649 619 649 694 q 564 453 649 521 q 366 352 479 386 q 171 317 253 318 q 169 285 169 307 q 211 129 169 196 q 342 63 253 63 q 466 90 401 63 q 586 172 531 117 l 611 126 m 435 725 q 306 671 363 725 q 215 536 249 617 q 174 378 181 456 q 341 409 254 381 q 486 490 428 438 q 544 610 544 542 q 515 695 544 665 q 435 725 486 725 z "},"ë":{"ha":713,"x_min":63,"x_max":665,"o":"m 299 951 q 258 970 275 951 q 240 1017 240 989 q 265 1076 242 1051 q 317 1100 288 1100 q 363 1083 346 1100 q 379 1038 379 1065 q 354 976 378 1001 q 299 951 331 951 m 585 951 q 544 970 561 951 q 526 1017 526 989 q 550 1076 528 1051 q 603 1100 572 1100 q 649 1083 632 1100 q 665 1038 665 1065 q 640 976 664 1001 q 585 951 617 951 m 611 126 q 497 31 575 76 q 329 -14 418 -14 q 179 28 239 -14 q 91 137 119 69 q 63 283 63 204 q 115 531 63 414 q 258 718 167 647 q 458 789 349 789 q 600 742 551 789 q 649 619 649 694 q 564 453 649 521 q 366 352 479 386 q 171 317 253 318 q 169 285 169 307 q 211 129 169 196 q 342 63 253 63 q 466 90 401 63 q 586 172 531 117 l 611 126 m 435 725 q 306 671 363 725 q 215 536 249 617 q 174 378 181 456 q 341 409 254 381 q 486 490 428 438 q 544 610 544 542 q 515 695 544 665 q 435 725 486 725 z "},"ė":{"ha":713,"x_min":63,"x_max":649,"o":"m 611 126 q 497 31 575 76 q 329 -14 418 -14 q 179 28 239 -14 q 91 137 119 69 q 63 283 63 204 q 115 531 63 414 q 258 718 167 647 q 458 789 349 789 q 600 742 551 789 q 649 619 649 694 q 564 453 649 521 q 366 352 479 386 q 171 317 253 318 q 169 285 169 307 q 211 129 169 196 q 342 63 253 63 q 466 90 401 63 q 586 172 531 117 l 611 126 m 435 725 q 306 671 363 725 q 215 536 249 617 q 174 378 181 456 q 341 409 254 381 q 486 490 428 438 q 544 610 544 542 q 515 695 544 665 q 435 725 486 725 m 444 950 q 402 969 419 950 q 385 1017 385 988 q 410 1076 386 1051 q 461 1100 433 1100 q 507 1083 490 1100 q 522 1038 524 1065 q 499 976 522 1001 q 444 950 476 950 z "},"ẹ":{"ha":713,"x_min":63,"x_max":649,"o":"m 611 126 q 497 31 575 76 q 329 -14 418 -14 q 179 28 239 -14 q 91 137 119 69 q 63 283 63 204 q 115 531 63 414 q 258 718 167 647 q 458 789 349 789 q 600 742 551 789 q 649 619 649 694 q 564 453 649 521 q 366 352 479 386 q 171 317 253 318 q 169 285 169 307 q 211 129 169 196 q 342 63 253 63 q 466 90 401 63 q 586 172 531 117 l 611 126 m 435 725 q 306 671 363 725 q 215 536 249 617 q 174 378 181 456 q 341 409 254 381 q 486 490 428 438 q 544 610 544 542 q 515 695 544 665 q 435 725 486 725 m 217 -206 q 240 -142 217 -168 q 293 -117 263 -117 q 335 -131 321 -117 q 350 -169 350 -144 q 326 -233 350 -208 q 269 -258 301 -258 q 231 -244 246 -258 q 217 -206 217 -231 z "},"è":{"ha":713,"x_min":63,"x_max":649,"o":"m 611 126 q 497 31 575 76 q 329 -14 418 -14 q 179 28 239 -14 q 91 137 119 69 q 63 283 63 204 q 115 531 63 414 q 258 718 167 647 q 458 789 349 789 q 600 742 551 789 q 649 619 649 694 q 564 453 649 521 q 366 352 479 386 q 171 317 253 318 q 169 285 169 307 q 211 129 169 196 q 342 63 253 63 q 466 90 401 63 q 586 172 531 117 l 611 126 m 435 725 q 306 671 363 725 q 215 536 249 617 q 174 378 181 456 q 341 409 254 381 q 486 490 428 438 q 544 610 544 542 q 515 695 544 665 q 435 725 486 725 m 429 851 q 292 966 378 883 q 181 1093 206 1049 l 258 1172 l 464 885 l 429 851 z "},"ẻ":{"ha":713,"x_min":63,"x_max":649,"o":"m 611 126 q 497 31 575 76 q 329 -14 418 -14 q 179 28 239 -14 q 91 137 119 69 q 63 283 63 204 q 115 531 63 414 q 258 718 167 647 q 458 789 349 789 q 600 742 551 789 q 649 619 649 694 q 564 453 649 521 q 366 352 479 386 q 171 317 253 318 q 169 285 169 307 q 211 129 169 196 q 342 63 253 63 q 466 90 401 63 q 586 172 531 117 l 611 126 m 435 725 q 306 671 363 725 q 215 536 249 617 q 174 378 181 456 q 341 409 254 381 q 486 490 428 438 q 544 610 544 542 q 515 695 544 665 q 435 725 486 725 m 419 838 q 408 865 413 849 q 406 892 404 881 q 424 922 410 910 q 463 947 438 933 q 500 972 488 963 q 519 996 513 981 l 521 1003 q 522 1017 522 1007 q 506 1052 522 1038 q 456 1071 489 1067 l 443 1071 q 406 1067 414 1071 l 417 1140 q 442 1148 419 1144 q 481 1151 464 1151 q 582 1124 546 1151 q 618 1046 618 1096 q 594 970 618 996 q 524 917 571 944 q 485 892 496 900 q 464 846 463 876 l 419 838 z "},"ē":{"ha":713,"x_min":63,"x_max":649,"o":"m 611 126 q 497 31 575 76 q 329 -14 418 -14 q 179 28 239 -14 q 91 137 119 69 q 63 283 63 204 q 115 531 63 414 q 258 718 167 647 q 458 789 349 789 q 600 742 551 789 q 649 619 649 694 q 564 453 649 521 q 366 352 479 386 q 171 317 253 318 q 169 285 169 307 q 211 129 169 196 q 342 63 253 63 q 466 90 401 63 q 586 172 531 117 l 611 126 m 435 725 q 306 671 363 725 q 215 536 249 617 q 174 378 181 456 q 341 409 254 381 q 486 490 428 438 q 544 610 544 542 q 515 695 544 665 q 435 725 486 725 m 267 1051 l 613 1051 l 601 971 l 256 971 l 267 1051 z "},"ę":{"ha":713,"x_min":63,"x_max":649,"o":"m 342 63 q 466 90 401 63 q 586 172 531 117 l 611 126 q 549 65 590 97 q 458 13 508 33 q 381 -65 411 -28 q 351 -136 351 -101 q 360 -178 350 -164 q 389 -193 369 -193 q 489 -151 443 -193 l 503 -197 q 346 -256 436 -256 q 277 -232 300 -256 q 256 -176 254 -208 q 262 -140 256 -160 q 278 -106 268 -121 q 365 -11 310 -56 q 329 -14 340 -14 q 179 28 239 -14 q 91 137 119 69 q 63 283 63 204 q 115 531 63 414 q 258 718 167 647 q 458 789 349 789 q 600 742 551 789 q 649 619 649 694 q 564 453 649 521 q 366 352 479 386 q 171 317 253 318 q 169 285 169 307 q 211 129 169 196 q 342 63 253 63 m 435 725 q 306 671 363 725 q 215 536 249 617 q 174 378 181 456 q 341 409 254 381 q 486 490 428 438 q 544 610 544 542 q 515 695 544 665 q 435 725 486 725 z "},"ẽ":{"ha":713,"x_min":63,"x_max":683,"o":"m 611 126 q 497 31 575 76 q 329 -14 418 -14 q 179 28 239 -14 q 91 137 119 69 q 63 283 63 204 q 115 531 63 414 q 258 718 167 647 q 458 789 349 789 q 600 742 551 789 q 649 619 649 694 q 564 453 649 521 q 366 352 479 386 q 171 317 253 318 q 169 285 169 307 q 211 129 169 196 q 342 63 253 63 q 466 90 401 63 q 586 172 531 117 l 611 126 m 435 725 q 306 671 363 725 q 215 536 249 617 q 174 378 181 456 q 341 409 254 381 q 486 490 428 438 q 544 610 544 542 q 515 695 544 665 q 435 725 486 725 m 204 988 q 273 1067 228 1033 q 367 1100 318 1100 q 420 1086 399 1100 q 468 1046 442 1072 q 506 1013 489 1024 q 543 1001 522 1001 q 602 1024 578 1001 q 651 1082 626 1046 l 683 1032 q 621 947 667 982 q 522 913 575 913 q 463 926 485 913 q 414 968 440 940 q 377 1002 392 992 q 340 1013 363 1013 q 229 942 293 1013 l 204 988 z "},"f":{"ha":475,"x_min":-140,"x_max":599,"o":"m 221 847 q 274 990 233 925 q 372 1094 314 1056 q 492 1132 431 1132 q 599 1115 557 1132 l 568 1024 q 469 1053 524 1054 q 371 1000 410 1053 q 321 857 332 947 l 313 783 l 492 783 l 483 706 l 303 706 l 206 -50 q 127 -267 189 -187 q -29 -347 65 -347 q -93 -346 -61 -349 q -140 -339 -125 -343 l -112 -247 q -65 -262 -103 -253 q -3 -269 -28 -271 q 65 -222 42 -269 q 99 -86 88 -175 l 199 706 l 103 706 l 113 747 l 211 781 l 221 847 z "},"ḟ":{"ha":475,"x_min":-140,"x_max":599,"o":"m 307 1153 q 265 1172 282 1153 q 247 1219 247 1190 q 272 1278 249 1254 q 324 1303 296 1303 q 369 1285 353 1303 q 385 1240 386 1268 q 362 1178 385 1204 q 307 1153 339 1153 m 221 847 q 274 990 233 925 q 372 1094 314 1056 q 492 1132 431 1132 q 599 1115 557 1132 l 568 1024 q 469 1053 524 1054 q 371 1000 410 1053 q 321 857 332 947 l 313 783 l 492 783 l 483 706 l 303 706 l 206 -50 q 127 -267 189 -187 q -29 -347 65 -347 q -93 -346 -61 -349 q -140 -339 -125 -343 l -112 -247 q -65 -262 -103 -253 q -3 -269 -28 -271 q 65 -222 42 -269 q 99 -86 88 -175 l 199 706 l 103 706 l 113 747 l 211 781 l 221 847 z "},"g":{"ha":779,"x_min":57,"x_max":715,"o":"m 585 -53 q 513 -219 571 -153 q 377 -315 454 -285 q 226 -344 300 -344 q 143 -337 185 -344 q 78 -321 101 -331 l 104 -221 q 184 -247 139 -236 q 276 -258 229 -258 q 419 -221 372 -258 q 479 -89 465 -183 l 510 108 q 410 22 469 57 q 282 -14 351 -14 q 114 66 171 -14 q 57 279 57 146 q 110 509 57 390 q 262 708 163 628 q 492 789 361 789 q 568 781 529 789 q 638 760 607 772 l 715 789 l 585 -53 m 596 686 q 475 722 553 722 q 306 653 376 722 q 199 483 235 585 q 163 288 163 382 q 198 123 163 182 q 299 64 233 64 q 428 107 367 64 q 524 203 490 150 l 596 686 z "},"ğ":{"ha":779,"x_min":57,"x_max":715,"o":"m 585 -53 q 513 -219 571 -153 q 377 -315 454 -285 q 226 -344 300 -344 q 143 -337 185 -344 q 78 -321 101 -331 l 104 -221 q 184 -247 139 -236 q 276 -258 229 -258 q 419 -221 372 -258 q 479 -89 465 -183 l 510 108 q 410 22 469 57 q 282 -14 351 -14 q 114 66 171 -14 q 57 279 57 146 q 110 509 57 390 q 262 708 163 628 q 492 789 361 789 q 568 781 529 789 q 638 760 607 772 l 715 789 l 585 -53 m 596 686 q 475 722 553 722 q 306 653 376 722 q 199 483 235 585 q 163 288 163 382 q 198 123 163 182 q 299 64 233 64 q 428 107 367 64 q 524 203 490 150 l 596 686 m 486 885 q 381 916 425 885 q 313 998 336 947 q 290 1104 290 1049 l 290 1118 l 346 1118 l 347 1097 q 390 1004 354 1044 q 488 964 425 964 q 571 990 535 964 q 628 1051 607 1015 q 656 1118 649 1086 l 708 1118 q 707 1097 708 1103 q 670 997 701 1046 q 590 916 639 947 q 486 885 540 885 z "},"ĝ":{"ha":779,"x_min":57,"x_max":715,"o":"m 239 869 l 472 1119 l 565 1119 l 703 868 l 664 838 l 506 1039 l 269 839 l 239 869 m 585 -53 q 513 -219 571 -153 q 377 -315 454 -285 q 226 -344 300 -344 q 143 -337 185 -344 q 78 -321 101 -331 l 104 -221 q 184 -247 139 -236 q 276 -258 229 -258 q 419 -221 372 -258 q 479 -89 465 -183 l 510 108 q 410 22 469 57 q 282 -14 351 -14 q 114 66 171 -14 q 57 279 57 146 q 110 509 57 390 q 262 708 163 628 q 492 789 361 789 q 568 781 529 789 q 638 760 607 772 l 715 789 l 585 -53 m 596 686 q 475 722 553 722 q 306 653 376 722 q 199 483 235 585 q 163 288 163 382 q 198 123 163 182 q 299 64 233 64 q 428 107 367 64 q 524 203 490 150 l 596 686 z "},"ģ":{"ha":779,"x_min":57,"x_max":715,"o":"m 569 1188 q 492 1067 499 1144 q 505 1008 488 1038 q 550 974 522 979 l 546 944 l 482 879 q 417 927 442 889 q 392 1014 392 965 q 418 1111 392 1065 q 482 1188 444 1157 q 550 1225 519 1218 l 571 1201 l 569 1188 m 585 -53 q 513 -219 571 -153 q 377 -315 454 -285 q 226 -344 300 -344 q 143 -337 185 -344 q 78 -321 101 -331 l 104 -221 q 184 -247 139 -236 q 276 -258 229 -258 q 419 -221 372 -258 q 479 -89 465 -183 l 510 108 q 410 22 469 57 q 282 -14 351 -14 q 114 66 171 -14 q 57 279 57 146 q 110 509 57 390 q 262 708 163 628 q 492 789 361 789 q 568 781 529 789 q 638 760 607 772 l 715 789 l 585 -53 m 596 686 q 475 722 553 722 q 306 653 376 722 q 199 483 235 585 q 163 288 163 382 q 198 123 163 182 q 299 64 233 64 q 428 107 367 64 q 524 203 490 150 l 596 686 z "},"ġ":{"ha":779,"x_min":57,"x_max":715,"o":"m 585 -53 q 513 -219 571 -153 q 377 -315 454 -285 q 226 -344 300 -344 q 143 -337 185 -344 q 78 -321 101 -331 l 104 -221 q 184 -247 139 -236 q 276 -258 229 -258 q 419 -221 372 -258 q 479 -89 465 -183 l 510 108 q 410 22 469 57 q 282 -14 351 -14 q 114 66 171 -14 q 57 279 57 146 q 110 509 57 390 q 262 708 163 628 q 492 789 361 789 q 568 781 529 789 q 638 760 607 772 l 715 789 l 585 -53 m 596 686 q 475 722 553 722 q 306 653 376 722 q 199 483 235 585 q 163 288 163 382 q 198 123 163 182 q 299 64 233 64 q 428 107 367 64 q 524 203 490 150 l 596 686 m 492 950 q 449 969 467 950 q 432 1017 432 988 q 457 1076 433 1051 q 508 1100 481 1100 q 554 1083 538 1100 q 569 1038 571 1065 q 547 976 569 1001 q 492 950 524 950 z "},"h":{"ha":840,"x_min":83,"x_max":758,"o":"m 261 590 q 404 732 322 675 q 568 789 486 789 q 683 742 644 789 q 722 588 722 696 q 693 382 722 528 l 686 343 l 679 306 q 649 107 654 175 q 668 57 646 57 q 699 67 683 57 q 742 100 714 76 l 758 69 q 731 38 751 58 q 678 2 710 18 q 614 -14 647 -14 q 542 58 542 -14 q 549 136 542 88 q 565 233 557 185 q 579 310 568 246 l 585 339 q 609 475 600 418 q 618 582 618 532 q 596 676 618 650 q 525 703 574 703 q 383 644 463 703 q 250 504 304 586 l 182 0 l 83 0 l 219 1028 l 142 1050 l 150 1096 l 303 1119 l 331 1103 l 261 590 z "},"ħ":{"ha":840,"x_min":83,"x_max":758,"o":"m 261 590 q 404 732 322 675 q 568 789 486 789 q 683 742 644 789 q 722 588 722 696 q 693 382 722 528 l 686 343 l 679 306 q 649 107 654 175 q 668 57 646 57 q 699 67 683 57 q 742 100 714 76 l 758 69 q 731 38 751 58 q 678 2 710 18 q 614 -14 647 -14 q 542 58 542 -14 q 549 136 542 88 q 565 233 557 185 q 579 310 568 246 l 585 339 q 609 475 600 418 q 618 582 618 532 q 596 676 618 650 q 525 703 574 703 q 383 644 463 703 q 250 504 304 586 l 182 0 l 83 0 l 199 868 l 88 868 l 96 928 l 206 928 l 219 1028 l 142 1050 l 150 1096 l 303 1119 l 331 1103 l 307 928 l 492 928 l 482 868 l 299 868 l 261 590 z "},"ĥ":{"ha":840,"x_min":50,"x_max":758,"o":"m 261 590 q 404 732 322 675 q 568 789 486 789 q 683 742 644 789 q 722 588 722 696 q 693 382 722 528 l 686 343 l 679 306 q 649 107 654 175 q 668 57 646 57 q 699 67 683 57 q 742 100 714 76 l 758 69 q 731 38 751 58 q 678 2 710 18 q 614 -14 647 -14 q 542 58 542 -14 q 549 136 542 88 q 565 233 557 185 q 579 310 568 246 l 585 339 q 609 475 600 418 q 618 582 618 532 q 596 676 618 650 q 525 703 574 703 q 383 644 463 703 q 250 504 304 586 l 182 0 l 83 0 l 219 1028 l 142 1050 l 150 1096 l 303 1119 l 331 1103 l 261 590 m 50 1204 l 269 1425 l 361 1425 l 511 1203 l 475 1169 l 311 1344 l 83 1172 l 50 1204 z "},"i":{"ha":429,"x_min":114,"x_max":368,"o":"m 222 93 q 228 67 222 76 q 243 58 235 58 q 276 69 258 58 q 317 106 293 81 l 335 76 q 277 17 317 49 q 190 -14 238 -14 q 117 57 117 -14 q 163 400 117 99 q 204 686 188 567 l 114 714 l 122 757 l 292 786 l 319 772 l 224 107 l 222 93 m 290 950 q 248 969 265 950 q 231 1017 231 988 q 256 1076 232 1051 q 307 1100 279 1100 q 353 1083 336 1100 q 368 1038 369 1065 q 345 976 368 1001 q 290 950 322 950 z "},"ı":{"ha":429,"x_min":114,"x_max":335,"o":"m 222 93 q 228 67 222 76 q 243 58 235 58 q 276 69 258 58 q 317 106 293 81 l 335 76 q 277 17 317 49 q 190 -14 238 -14 q 117 57 117 -14 q 163 400 117 99 q 204 686 188 567 l 114 714 l 122 757 l 292 786 l 319 772 l 224 107 l 222 93 z "},"í":{"ha":429,"x_min":114,"x_max":506,"o":"m 432 1172 l 506 1099 q 444 1024 492 1075 q 340 922 396 972 q 246 851 285 872 l 213 885 l 432 1172 m 222 93 q 228 67 222 76 q 243 58 235 58 q 276 69 258 58 q 317 106 293 81 l 335 76 q 277 17 317 49 q 190 -14 238 -14 q 117 57 117 -14 q 163 400 117 99 q 204 686 188 567 l 114 714 l 122 757 l 292 786 l 319 772 l 224 107 l 222 93 z "},"ĭ":{"ha":429,"x_min":89,"x_max":507,"o":"m 222 93 q 228 67 222 76 q 243 58 235 58 q 276 69 258 58 q 317 106 293 81 l 335 76 q 277 17 317 49 q 190 -14 238 -14 q 117 57 117 -14 q 163 400 117 99 q 204 686 188 567 l 114 714 l 122 757 l 292 786 l 319 772 l 224 107 l 222 93 m 285 885 q 179 916 224 885 q 112 998 135 947 q 89 1104 89 1049 l 89 1118 l 144 1118 l 146 1097 q 188 1004 153 1044 q 286 964 224 964 q 369 990 333 964 q 426 1051 406 1015 q 454 1118 447 1086 l 507 1118 q 506 1097 507 1103 q 469 997 500 1046 q 388 916 438 947 q 285 885 339 885 z "},"î":{"ha":429,"x_min":36,"x_max":500,"o":"m 36 869 l 269 1119 l 363 1119 l 500 868 l 461 838 l 303 1039 l 67 839 l 36 869 m 222 93 q 228 67 222 76 q 243 58 235 58 q 276 69 258 58 q 317 106 293 81 l 335 76 q 277 17 317 49 q 190 -14 238 -14 q 117 57 117 -14 q 163 400 117 99 q 204 686 188 567 l 114 714 l 122 757 l 292 786 l 319 772 l 224 107 l 222 93 z "},"ï":{"ha":429,"x_min":85,"x_max":510,"o":"m 143 951 q 102 970 119 951 q 85 1017 85 989 q 109 1076 86 1051 q 161 1100 132 1100 q 207 1083 190 1100 q 224 1038 224 1065 q 199 976 222 1001 q 143 951 175 951 m 429 951 q 388 970 406 951 q 371 1017 371 989 q 394 1076 372 1051 q 447 1100 417 1100 q 493 1083 476 1100 q 510 1038 510 1065 q 485 976 508 1001 q 429 951 461 951 m 222 93 q 228 67 222 76 q 243 58 235 58 q 276 69 258 58 q 317 106 293 81 l 335 76 q 277 17 317 49 q 190 -14 238 -14 q 117 57 117 -14 q 163 400 117 99 q 204 686 188 567 l 114 714 l 122 757 l 292 786 l 319 772 l 224 107 l 222 93 z "},"ị":{"ha":429,"x_min":82,"x_max":368,"o":"m 222 93 q 228 67 222 76 q 243 58 235 58 q 276 69 258 58 q 317 106 293 81 l 335 76 q 277 17 317 49 q 190 -14 238 -14 q 117 57 117 -14 q 163 400 117 99 q 204 686 188 567 l 114 714 l 122 757 l 292 786 l 319 772 l 224 107 l 222 93 m 290 950 q 248 969 265 950 q 231 1017 231 988 q 256 1076 232 1051 q 307 1100 279 1100 q 353 1083 336 1100 q 368 1038 369 1065 q 345 976 368 1001 q 290 950 322 950 m 82 -206 q 105 -142 82 -168 q 158 -117 128 -117 q 201 -131 186 -117 q 215 -169 215 -144 q 191 -233 215 -208 q 135 -258 167 -258 q 97 -244 111 -258 q 82 -206 82 -231 z "},"ì":{"ha":429,"x_min":26,"x_max":335,"o":"m 222 93 q 228 67 222 76 q 243 58 235 58 q 276 69 258 58 q 317 106 293 81 l 335 76 q 277 17 317 49 q 190 -14 238 -14 q 117 57 117 -14 q 163 400 117 99 q 204 686 188 567 l 114 714 l 122 757 l 292 786 l 319 772 l 224 107 l 222 93 m 275 851 q 138 966 224 883 q 26 1093 51 1049 l 104 1172 l 310 885 l 275 851 z "},"ỉ":{"ha":429,"x_min":114,"x_max":464,"o":"m 222 93 q 228 67 222 76 q 243 58 235 58 q 276 69 258 58 q 317 106 293 81 l 335 76 q 277 17 317 49 q 190 -14 238 -14 q 117 57 117 -14 q 163 400 117 99 q 204 686 188 567 l 114 714 l 122 757 l 292 786 l 319 772 l 224 107 l 222 93 m 265 838 q 254 865 258 849 q 251 892 250 881 q 269 922 256 910 q 308 947 283 933 q 346 972 333 963 q 365 996 358 981 l 367 1003 q 368 1017 368 1007 q 351 1052 368 1038 q 301 1071 335 1067 l 289 1071 q 251 1067 260 1071 l 263 1140 q 288 1148 265 1144 q 326 1151 310 1151 q 428 1124 392 1151 q 464 1046 464 1096 q 440 970 464 996 q 369 917 417 944 q 331 892 342 900 q 310 846 308 876 l 265 838 z "},"ĳ":{"ha":868,"x_min":114,"x_max":806,"o":"m 222 93 q 228 67 222 76 q 243 58 235 58 q 276 69 258 58 q 317 106 293 81 l 335 76 q 277 17 317 49 q 190 -14 238 -14 q 117 57 117 -14 q 163 400 117 99 q 204 686 188 567 l 114 714 l 122 757 l 292 786 l 319 772 l 224 107 l 222 93 m 290 950 q 248 969 265 950 q 231 1017 231 988 q 256 1076 232 1051 q 307 1100 279 1100 q 353 1083 336 1100 q 368 1038 369 1065 q 345 976 368 1001 q 290 950 322 950 m 668 1 q 573 -262 647 -172 q 381 -351 499 -351 q 322 -345 347 -351 q 285 -326 296 -339 l 304 -282 q 332 -290 314 -286 q 364 -293 350 -293 q 506 -203 458 -293 q 571 39 553 -114 l 644 686 l 550 714 l 558 757 l 732 786 l 758 772 l 668 1 m 728 950 q 685 969 703 950 q 668 1017 668 988 q 693 1076 669 1051 q 744 1100 717 1100 q 790 1083 774 1100 q 806 1038 807 1065 q 783 976 806 1001 q 728 950 760 950 z "},"ī":{"ha":429,"x_min":101,"x_max":458,"o":"m 222 93 q 228 67 222 76 q 243 58 235 58 q 276 69 258 58 q 317 106 293 81 l 335 76 q 277 17 317 49 q 190 -14 238 -14 q 117 57 117 -14 q 163 400 117 99 q 204 686 188 567 l 114 714 l 122 757 l 292 786 l 319 772 l 224 107 l 222 93 m 113 1051 l 458 1051 l 447 971 l 101 971 l 113 1051 z "},"į":{"ha":429,"x_min":7,"x_max":365,"o":"m 303 1100 q 349 1083 332 1100 q 365 1038 365 1065 q 341 976 364 1001 q 286 950 318 950 q 244 968 261 950 q 228 1014 228 986 q 251 1074 228 1049 q 303 1100 275 1100 m 222 93 q 228 67 222 76 q 243 58 235 58 q 276 69 258 58 q 317 106 293 81 l 335 76 q 300 37 324 60 q 246 0 276 14 q 146 -83 181 -47 q 110 -153 111 -118 q 122 -197 108 -182 q 156 -212 135 -212 q 263 -167 210 -212 l 278 -218 q 108 -282 206 -282 q 32 -256 57 -282 q 10 -194 7 -229 q 32 -118 10 -156 q 90 -58 57 -83 q 165 -11 124 -33 q 117 67 113 3 q 158 371 121 107 q 204 686 181 513 l 114 714 l 122 757 l 292 786 l 319 772 l 224 107 l 222 93 z "},"ĩ":{"ha":429,"x_min":50,"x_max":529,"o":"m 222 93 q 228 67 222 76 q 243 58 235 58 q 276 69 258 58 q 317 106 293 81 l 335 76 q 277 17 317 49 q 190 -14 238 -14 q 117 57 117 -14 q 163 400 117 99 q 204 686 188 567 l 114 714 l 122 757 l 292 786 l 319 772 l 224 107 l 222 93 m 50 988 q 119 1067 74 1033 q 213 1100 164 1100 q 266 1086 244 1100 q 314 1046 288 1072 q 351 1013 335 1024 q 389 1001 368 1001 q 448 1024 424 1001 q 497 1082 472 1046 l 529 1032 q 467 947 513 982 q 368 913 421 913 q 308 926 331 913 q 260 968 286 940 q 224 1002 238 992 q 186 1013 210 1013 q 75 942 139 1013 l 50 988 z "},"j":{"ha":439,"x_min":-144,"x_max":376,"o":"m 239 1 q 144 -262 218 -172 q -49 -351 69 -351 q -108 -345 -82 -351 q -144 -326 -133 -339 l -125 -282 q -97 -290 -115 -286 q -65 -293 -79 -293 q 76 -203 29 -293 q 142 39 124 -114 l 215 686 l 121 714 l 129 757 l 303 786 l 329 772 l 239 1 m 299 950 q 256 969 274 950 q 239 1017 239 988 q 264 1076 240 1051 q 315 1100 288 1100 q 361 1083 344 1100 q 376 1038 378 1065 q 353 976 376 1001 q 299 950 331 950 z "},"ȷ":{"ha":439,"x_min":-144,"x_max":329,"o":"m 239 1 q 144 -262 218 -172 q -49 -351 69 -351 q -108 -345 -82 -351 q -144 -326 -133 -339 l -125 -282 q -97 -290 -115 -286 q -65 -293 -79 -293 q 76 -203 29 -293 q 142 39 124 -114 l 215 686 l 121 714 l 129 757 l 303 786 l 329 772 l 239 1 z "},"ĵ":{"ha":439,"x_min":-144,"x_max":467,"o":"m 239 1 q 144 -262 218 -172 q -49 -351 69 -351 q -108 -345 -82 -351 q -144 -326 -133 -339 l -125 -282 q -97 -290 -115 -286 q -65 -293 -79 -293 q 76 -203 29 -293 q 142 39 124 -114 l 215 686 l 121 714 l 129 757 l 303 786 l 329 772 l 239 1 m 3 869 l 236 1119 l 329 1119 l 467 868 l 428 838 l 269 1039 l 33 839 l 3 869 z "},"k":{"ha":721,"x_min":76,"x_max":713,"o":"m 296 1119 l 324 1103 l 175 0 l 76 0 l 213 1028 l 135 1050 l 143 1096 l 296 1119 m 249 414 q 333 471 304 453 q 444 547 401 514 q 517 622 486 581 q 544 672 536 649 q 556 726 551 696 q 581 772 561 756 q 625 789 600 789 q 663 774 647 789 q 679 733 679 758 q 650 649 682 694 q 544 548 614 597 q 375 440 474 499 l 340 419 l 542 128 q 583 81 561 99 q 622 63 606 63 q 694 103 654 63 l 713 68 q 653 12 694 38 q 567 -14 611 -14 q 463 60 507 -14 l 249 414 z "},"ķ":{"ha":721,"x_min":76,"x_max":713,"o":"m 197 -344 q 242 -287 224 -324 q 260 -212 260 -251 q 246 -158 260 -183 q 211 -124 232 -132 l 211 -89 l 278 -35 q 333 -86 314 -47 q 353 -174 353 -125 q 333 -270 353 -225 q 287 -344 314 -315 q 236 -379 260 -372 l 197 -357 l 197 -344 m 296 1119 l 324 1103 l 175 0 l 76 0 l 213 1028 l 135 1050 l 143 1096 l 296 1119 m 249 414 q 333 471 304 453 q 444 547 401 514 q 517 622 486 581 q 544 672 536 649 q 556 726 551 696 q 581 772 561 756 q 625 789 600 789 q 663 774 647 789 q 679 733 679 758 q 650 649 682 694 q 544 548 614 597 q 375 440 474 499 l 340 419 l 542 128 q 583 81 561 99 q 622 63 606 63 q 694 103 654 63 l 713 68 q 653 12 694 38 q 567 -14 611 -14 q 463 60 507 -14 l 249 414 z "},"ĸ":{"ha":719,"x_min":96,"x_max":736,"o":"m 267 781 l 294 764 l 194 0 l 96 0 l 183 689 l 108 710 l 119 756 l 267 781 m 544 122 q 583 74 563 93 q 619 56 603 56 q 672 74 640 56 l 689 47 q 636 6 672 25 q 561 -12 600 -12 q 464 60 504 -12 l 263 396 l 617 767 l 736 767 l 361 399 l 544 122 z "},"l":{"ha":411,"x_min":101,"x_max":344,"o":"m 203 93 q 208 67 203 76 q 222 58 214 58 q 297 106 254 58 l 315 76 q 260 19 301 51 q 171 -14 218 -14 q 119 6 136 -14 q 103 69 101 25 q 107 115 103 74 l 236 1028 l 156 1050 l 167 1096 l 318 1119 l 344 1103 l 204 107 l 203 93 z "},"ĺ":{"ha":411,"x_min":101,"x_max":497,"o":"m 497 1293 q 403 1187 472 1244 q 275 1094 335 1129 l 240 1119 l 433 1357 l 497 1293 m 203 93 q 208 67 203 76 q 222 58 214 58 q 297 106 254 58 l 315 76 q 260 19 301 51 q 171 -14 218 -14 q 119 6 136 -14 q 103 69 101 25 q 107 115 103 86 l 225 940 l 146 964 l 157 1010 l 306 1032 l 332 1017 l 204 107 l 203 93 z "},"ľ":{"ha":557,"x_min":103,"x_max":568,"o":"m 203 93 q 208 67 203 76 q 222 58 214 58 q 297 106 254 58 l 315 76 q 260 19 301 51 q 171 -14 218 -14 q 119 6 136 -14 q 103 69 101 25 q 107 115 103 74 l 236 1028 l 156 1050 l 167 1096 l 318 1119 l 344 1103 l 204 107 l 203 93 m 424 724 q 476 938 467 838 q 478 972 478 949 q 472 1035 478 1006 q 457 1076 465 1064 l 467 1099 l 547 1124 q 568 1028 568 1101 q 565 968 568 989 q 526 812 557 885 q 458 693 496 739 l 426 710 l 424 724 z "},"ļ":{"ha":411,"x_min":4,"x_max":344,"o":"m 4 -344 q 49 -287 31 -324 q 67 -212 67 -251 q 53 -158 67 -183 q 18 -124 39 -132 l 18 -89 l 85 -35 q 140 -86 121 -47 q 160 -174 160 -125 q 140 -270 160 -225 q 94 -344 121 -315 q 43 -379 67 -372 l 4 -357 l 4 -344 m 203 93 q 208 67 203 76 q 222 58 214 58 q 297 106 254 58 l 315 76 q 260 19 301 51 q 171 -14 218 -14 q 119 6 136 -14 q 103 69 101 25 q 107 115 103 74 l 236 1028 l 156 1050 l 167 1096 l 318 1119 l 344 1103 l 204 107 l 203 93 z "},"ŀ":{"ha":529,"x_min":103,"x_max":546,"o":"m 203 93 q 208 67 203 76 q 222 58 214 58 q 297 106 254 58 l 315 76 q 260 19 301 51 q 171 -14 218 -14 q 119 6 136 -14 q 103 69 101 25 q 107 115 103 74 l 236 1028 l 156 1050 l 167 1096 l 318 1119 l 344 1103 l 204 107 l 203 93 m 399 499 q 424 567 399 539 q 483 594 450 594 q 531 579 515 594 q 546 536 546 564 q 519 466 546 493 q 457 439 492 439 q 415 455 431 439 q 399 499 399 471 z "},"ǉ":{"ha":850,"x_min":103,"x_max":786,"o":"m 203 93 q 208 67 203 76 q 222 58 214 58 q 297 106 254 58 l 315 76 q 260 19 301 51 q 171 -14 218 -14 q 119 6 136 -14 q 103 69 101 25 q 107 115 103 74 l 236 1028 l 156 1050 l 167 1096 l 318 1119 l 344 1103 l 204 107 l 203 93 m 650 1 q 555 -262 629 -172 q 363 -351 481 -351 q 303 -345 329 -351 q 267 -326 278 -339 l 286 -282 q 314 -290 296 -286 q 346 -293 332 -293 q 488 -203 440 -293 q 553 39 535 -114 l 626 686 l 532 714 l 540 757 l 714 786 l 740 772 l 650 1 m 708 950 q 666 969 683 950 q 649 1017 649 988 q 674 1076 650 1051 q 725 1100 697 1100 q 771 1083 754 1100 q 786 1038 788 1065 q 763 976 786 1001 q 708 950 740 950 z "},"ł":{"ha":411,"x_min":58,"x_max":419,"o":"m 203 93 q 208 67 203 76 q 222 58 214 58 q 297 106 254 58 l 315 76 q 260 19 301 51 q 171 -14 218 -14 q 119 6 136 -14 q 103 69 101 25 q 107 115 103 74 l 167 533 l 58 490 l 58 564 l 176 613 l 236 1028 l 156 1050 l 167 1096 l 318 1119 l 344 1103 l 281 656 l 419 713 l 419 633 l 269 574 l 204 107 l 203 93 z "},"m":{"ha":1283,"x_min":93,"x_max":1199,"o":"m 272 599 q 415 735 333 681 q 576 789 497 789 q 688 746 650 789 q 726 610 725 703 q 856 738 783 688 q 1000 789 928 789 q 1115 740 1074 789 q 1157 588 1157 692 q 1149 503 1157 554 q 1133 403 1142 453 l 1124 343 q 1107 250 1121 331 q 1089 107 1093 169 l 1088 90 q 1104 58 1088 58 q 1139 69 1121 58 q 1182 106 1157 81 l 1199 76 q 1141 18 1182 50 q 1053 -14 1100 -14 q 1001 3 1018 -14 q 985 60 985 21 q 992 143 985 92 q 1008 244 1000 194 q 1019 314 1017 292 l 1028 361 q 1054 582 1054 508 q 1033 676 1054 650 q 963 701 1011 701 q 843 651 910 701 q 724 524 776 600 q 700 343 717 456 l 653 0 l 550 0 l 594 310 q 617 465 608 401 q 625 582 625 528 q 606 678 625 653 q 532 703 586 703 q 393 645 471 703 q 261 506 315 588 l 193 0 l 93 0 l 183 679 l 117 711 l 126 760 l 265 789 l 290 775 l 272 599 z "},"ṁ":{"ha":1283,"x_min":93,"x_max":1199,"o":"m 272 599 q 415 735 333 681 q 576 789 497 789 q 688 746 650 789 q 726 610 725 703 q 856 738 783 688 q 1000 789 928 789 q 1115 740 1074 789 q 1157 588 1157 692 q 1149 503 1157 554 q 1133 403 1142 453 l 1124 343 q 1107 250 1121 331 q 1089 107 1093 169 l 1088 90 q 1104 58 1088 58 q 1139 69 1121 58 q 1182 106 1157 81 l 1199 76 q 1141 18 1182 50 q 1053 -14 1100 -14 q 1001 3 1018 -14 q 985 60 985 21 q 992 143 985 92 q 1008 244 1000 194 q 1019 314 1017 292 l 1028 361 q 1054 582 1054 508 q 1033 676 1054 650 q 963 701 1011 701 q 843 651 910 701 q 724 524 776 600 q 700 343 717 456 l 653 0 l 550 0 l 594 310 q 617 465 608 401 q 625 582 625 528 q 606 678 625 653 q 532 703 586 703 q 393 645 471 703 q 261 506 315 588 l 193 0 l 93 0 l 183 679 l 117 711 l 126 760 l 265 789 l 290 775 l 272 599 m 707 950 q 665 969 682 950 q 647 1017 647 988 q 672 1076 649 1051 q 724 1100 696 1100 q 769 1083 753 1100 q 785 1038 786 1065 q 762 976 785 1001 q 707 950 739 950 z "},"n":{"ha":853,"x_min":93,"x_max":757,"o":"m 272 599 q 415 735 333 681 q 576 789 497 789 q 691 742 651 789 q 731 589 731 696 q 701 382 731 525 l 694 343 l 689 310 q 658 107 664 176 l 658 96 q 674 58 658 58 q 740 94 703 58 l 757 64 q 731 35 751 54 q 681 1 710 15 q 619 -14 651 -14 q 550 61 550 -14 q 558 138 550 90 q 574 231 565 185 l 589 310 l 594 339 q 619 475 610 418 q 628 582 628 532 q 607 677 628 651 q 532 703 586 703 q 393 645 471 703 q 261 506 315 588 l 193 0 l 93 0 l 183 679 l 117 711 l 126 760 l 265 789 l 292 775 l 272 599 z "},"ń":{"ha":853,"x_min":93,"x_max":757,"o":"m 629 1172 l 703 1099 q 641 1024 689 1075 q 538 922 593 972 q 443 851 482 872 l 410 885 l 629 1172 m 272 599 q 415 735 333 681 q 576 789 497 789 q 691 742 651 789 q 731 589 731 696 q 701 382 731 525 l 694 343 l 689 310 q 658 107 664 176 l 658 96 q 674 58 658 58 q 740 94 703 58 l 757 64 q 731 35 751 54 q 681 1 710 15 q 619 -14 651 -14 q 550 61 550 -14 q 558 138 550 90 q 574 231 565 185 l 589 310 l 594 339 q 619 475 610 418 q 628 582 628 532 q 607 677 628 651 q 532 703 586 703 q 393 645 471 703 q 261 506 315 588 l 193 0 l 93 0 l 183 679 l 117 711 l 126 760 l 265 789 l 292 775 l 272 599 z "},"ŉ":{"ha":999,"x_min":-19,"x_max":903,"o":"m 138 1165 q 229 1096 200 1149 q 258 979 258 1043 q 183 769 258 857 q 1 635 108 681 l -19 672 l -19 685 q 56 735 18 697 q 120 826 94 774 q 146 933 146 879 q 123 1018 146 981 q 60 1064 100 1056 l 63 1086 l 138 1165 m 418 599 q 561 735 479 681 q 722 789 643 789 q 837 742 797 789 q 876 589 876 696 q 847 382 876 525 l 840 343 l 835 310 q 804 107 810 176 l 804 96 q 819 58 804 58 q 886 94 849 58 l 903 64 q 876 35 897 54 q 826 1 856 15 q 765 -14 797 -14 q 696 61 696 -14 q 703 138 696 90 q 719 231 711 185 l 735 310 l 740 339 q 765 475 756 418 q 774 582 774 532 q 753 677 774 651 q 678 703 732 703 q 539 645 617 703 q 407 506 461 588 l 339 0 l 239 0 l 329 679 l 263 711 l 272 760 l 411 789 l 438 775 l 418 599 z "},"ň":{"ha":853,"x_min":93,"x_max":757,"o":"m 275 1088 l 317 1119 l 483 933 l 701 1119 l 739 1088 l 522 857 l 431 857 l 275 1088 m 272 599 q 415 735 333 681 q 576 789 497 789 q 691 742 651 789 q 731 589 731 696 q 701 382 731 525 l 694 343 l 689 310 q 658 107 664 176 l 658 96 q 674 58 658 58 q 740 94 703 58 l 757 64 q 731 35 751 54 q 681 1 710 15 q 619 -14 651 -14 q 550 61 550 -14 q 558 138 550 90 q 574 231 565 185 l 589 310 l 594 339 q 619 475 610 418 q 628 582 628 532 q 607 677 628 651 q 532 703 586 703 q 393 645 471 703 q 261 506 315 588 l 193 0 l 93 0 l 183 679 l 117 711 l 126 760 l 265 789 l 292 775 l 272 599 z "},"ņ":{"ha":853,"x_min":93,"x_max":757,"o":"m 232 -344 q 276 -287 258 -324 q 294 -212 294 -251 q 281 -158 294 -183 q 246 -124 267 -132 l 246 -89 l 313 -35 q 368 -86 349 -47 q 388 -174 388 -125 q 368 -270 388 -225 q 322 -344 349 -315 q 271 -379 294 -372 l 232 -357 l 232 -344 m 272 599 q 415 735 333 681 q 576 789 497 789 q 691 742 651 789 q 731 589 731 696 q 701 382 731 525 l 694 343 l 689 310 q 658 107 664 176 l 658 96 q 674 58 658 58 q 740 94 703 58 l 757 64 q 731 35 751 54 q 681 1 710 15 q 619 -14 651 -14 q 550 61 550 -14 q 558 138 550 90 q 574 231 565 185 l 589 310 l 594 339 q 619 475 610 418 q 628 582 628 532 q 607 677 628 651 q 532 703 586 703 q 393 645 471 703 q 261 506 315 588 l 193 0 l 93 0 l 183 679 l 117 711 l 126 760 l 265 789 l 292 775 l 272 599 z "},"ṅ":{"ha":853,"x_min":93,"x_max":757,"o":"m 272 599 q 415 735 333 681 q 576 789 497 789 q 691 742 651 789 q 731 589 731 696 q 701 382 731 525 l 694 343 l 689 310 q 658 107 664 176 l 658 96 q 674 58 658 58 q 740 94 703 58 l 757 64 q 731 35 751 54 q 681 1 710 15 q 619 -14 651 -14 q 550 61 550 -14 q 558 138 550 90 q 574 231 565 185 l 589 310 l 594 339 q 619 475 610 418 q 628 582 628 532 q 607 677 628 651 q 532 703 586 703 q 393 645 471 703 q 261 506 315 588 l 193 0 l 93 0 l 183 679 l 117 711 l 126 760 l 265 789 l 292 775 l 272 599 m 486 950 q 444 969 461 950 q 426 1017 426 988 q 451 1076 428 1051 q 503 1100 475 1100 q 549 1083 532 1100 q 564 1038 565 1065 q 541 976 564 1001 q 486 950 518 950 z "},"ŋ":{"ha":856,"x_min":93,"x_max":733,"o":"m 272 599 q 415 733 332 679 q 576 788 497 788 q 693 740 653 788 q 731 583 733 692 q 706 296 725 457 q 658 0 686 135 q 360 -351 588 -351 q 302 -345 328 -351 q 265 -326 276 -339 l 283 -282 q 343 -293 306 -293 q 487 -204 438 -293 q 564 35 536 -115 q 585 165 569 57 q 615 392 601 272 q 628 586 628 511 q 606 676 628 650 q 532 703 585 703 q 393 644 471 703 q 260 503 315 586 l 193 0 l 93 0 l 182 668 l 115 700 l 125 749 l 264 778 l 289 764 l 272 599 z "},"ǌ":{"ha":1292,"x_min":93,"x_max":1229,"o":"m 272 599 q 415 735 333 681 q 576 789 497 789 q 691 742 651 789 q 731 589 731 696 q 701 382 731 525 l 694 343 l 689 310 q 658 107 664 176 l 658 96 q 674 58 658 58 q 740 94 703 58 l 757 64 q 731 35 751 54 q 681 1 710 15 q 619 -14 651 -14 q 550 61 550 -14 q 558 138 550 90 q 574 231 565 185 l 589 310 l 594 339 q 619 475 610 418 q 628 582 628 532 q 607 677 628 651 q 532 703 586 703 q 393 645 471 703 q 261 506 315 588 l 193 0 l 93 0 l 183 679 l 117 711 l 126 760 l 265 789 l 292 775 l 272 599 m 1092 1 q 997 -262 1071 -172 q 804 -351 922 -351 q 745 -345 771 -351 q 708 -326 719 -339 l 728 -282 q 756 -290 738 -286 q 788 -293 774 -293 q 929 -203 882 -293 q 994 39 976 -114 l 1068 686 l 974 714 l 982 757 l 1156 786 l 1182 772 l 1092 1 m 1151 950 q 1109 969 1126 950 q 1092 1017 1092 988 q 1117 1076 1093 1051 q 1168 1100 1140 1100 q 1214 1083 1197 1100 q 1229 1038 1231 1065 q 1206 976 1229 1001 q 1151 950 1183 950 z "},"ñ":{"ha":853,"x_min":93,"x_max":757,"o":"m 272 599 q 415 735 333 681 q 576 789 497 789 q 691 742 651 789 q 731 589 731 696 q 701 382 731 525 l 694 343 l 689 310 q 658 107 664 176 l 658 96 q 674 58 658 58 q 740 94 703 58 l 757 64 q 731 35 751 54 q 681 1 710 15 q 619 -14 651 -14 q 550 61 550 -14 q 558 138 550 90 q 574 231 565 185 l 589 310 l 594 339 q 619 475 610 418 q 628 582 628 532 q 607 677 628 651 q 532 703 586 703 q 393 645 471 703 q 261 506 315 588 l 193 0 l 93 0 l 183 679 l 117 711 l 126 760 l 265 789 l 292 775 l 272 599 m 246 988 q 315 1067 269 1033 q 408 1100 360 1100 q 462 1086 440 1100 q 510 1046 483 1072 q 547 1013 531 1024 q 585 1001 564 1001 q 644 1024 619 1001 q 693 1082 668 1046 l 725 1032 q 663 947 708 982 q 564 913 617 913 q 504 926 526 913 q 456 968 482 940 q 419 1002 433 992 q 382 1013 406 1013 q 271 942 335 1013 l 246 988 z "},"o":{"ha":775,"x_min":58,"x_max":711,"o":"m 443 789 q 642 705 572 789 q 711 469 711 621 q 662 237 711 349 q 525 56 613 125 q 328 -14 438 -14 q 128 68 199 -14 q 58 300 58 150 q 108 538 58 425 q 245 719 157 650 q 443 789 333 789 m 425 722 q 285 660 343 722 q 196 501 226 597 q 165 307 165 404 q 213 119 165 185 q 347 53 260 53 q 485 116 426 53 q 574 275 543 179 q 604 467 604 371 q 559 656 604 589 q 425 722 514 722 z "},"ó":{"ha":775,"x_min":58,"x_max":711,"o":"m 599 1172 l 672 1099 q 610 1024 658 1075 q 507 922 563 972 q 413 851 451 872 l 379 885 l 599 1172 m 443 789 q 642 705 572 789 q 711 469 711 621 q 662 237 711 349 q 525 56 613 125 q 328 -14 438 -14 q 128 68 199 -14 q 58 300 58 150 q 108 538 58 425 q 245 719 157 650 q 443 789 333 789 m 425 722 q 285 660 343 722 q 196 501 226 597 q 165 307 165 404 q 213 119 165 185 q 347 53 260 53 q 485 116 426 53 q 574 275 543 179 q 604 467 604 371 q 559 656 604 589 q 425 722 514 722 z "},"ŏ":{"ha":775,"x_min":58,"x_max":711,"o":"m 443 789 q 642 705 572 789 q 711 469 711 621 q 662 237 711 349 q 525 56 613 125 q 328 -14 438 -14 q 128 68 199 -14 q 58 300 58 150 q 108 538 58 425 q 245 719 157 650 q 443 789 333 789 m 425 722 q 285 660 343 722 q 196 501 226 597 q 165 307 165 404 q 213 119 165 185 q 347 53 260 53 q 485 116 426 53 q 574 275 543 179 q 604 467 604 371 q 559 656 604 589 q 425 722 514 722 m 451 885 q 346 916 390 885 q 278 998 301 947 q 256 1104 256 1049 l 256 1118 l 311 1118 l 313 1097 q 355 1004 319 1044 q 453 964 390 964 q 536 990 500 964 q 593 1051 572 1015 q 621 1118 614 1086 l 674 1118 q 672 1097 674 1103 q 635 997 667 1046 q 555 916 604 947 q 451 885 506 885 z "},"ô":{"ha":775,"x_min":58,"x_max":711,"o":"m 214 869 l 447 1119 l 540 1119 l 678 868 l 639 838 l 481 1039 l 244 839 l 214 869 m 443 789 q 642 705 572 789 q 711 469 711 621 q 662 237 711 349 q 525 56 613 125 q 328 -14 438 -14 q 128 68 199 -14 q 58 300 58 150 q 108 538 58 425 q 245 719 157 650 q 443 789 333 789 m 425 722 q 285 660 343 722 q 196 501 226 597 q 165 307 165 404 q 213 119 165 185 q 347 53 260 53 q 485 116 426 53 q 574 275 543 179 q 604 467 604 371 q 559 656 604 589 q 425 722 514 722 z "},"ố":{"ha":775,"x_min":58,"x_max":894,"o":"m 833 1282 l 894 1221 q 801 1116 875 1189 q 679 1018 726 1043 l 653 1044 l 833 1282 m 204 869 l 438 1119 l 531 1119 l 668 868 l 629 838 l 471 1039 l 235 839 l 204 869 m 443 789 q 642 705 572 789 q 711 469 711 621 q 662 237 711 349 q 525 56 613 125 q 328 -14 438 -14 q 128 68 199 -14 q 58 300 58 150 q 108 538 58 425 q 245 719 157 650 q 443 789 333 789 m 425 722 q 285 660 343 722 q 196 501 226 597 q 165 307 165 404 q 213 119 165 185 q 347 53 260 53 q 485 116 426 53 q 574 275 543 179 q 604 467 604 371 q 559 656 604 589 q 425 722 514 722 z "},"ộ":{"ha":775,"x_min":58,"x_max":711,"o":"m 443 789 q 642 705 572 789 q 711 469 711 621 q 662 237 711 349 q 525 56 613 125 q 328 -14 438 -14 q 128 68 199 -14 q 58 300 58 150 q 108 538 58 425 q 245 719 157 650 q 443 789 333 789 m 425 722 q 285 660 343 722 q 196 501 226 597 q 165 307 165 404 q 213 119 165 185 q 347 53 260 53 q 485 116 426 53 q 574 275 543 179 q 604 467 604 371 q 559 656 604 589 q 425 722 514 722 m 240 -219 q 263 -156 240 -182 q 317 -131 286 -131 q 359 -144 344 -131 q 374 -183 374 -158 q 349 -247 374 -222 q 293 -272 325 -272 q 255 -258 269 -272 q 240 -219 240 -244 m 204 869 l 438 1119 l 531 1119 l 668 868 l 629 838 l 471 1039 l 235 839 l 204 869 z "},"ồ":{"ha":775,"x_min":58,"x_max":721,"o":"m 693 1076 q 580 1171 651 1103 q 488 1275 508 1239 l 551 1340 l 721 1103 l 693 1076 m 204 869 l 438 1119 l 531 1119 l 668 868 l 629 838 l 471 1039 l 235 839 l 204 869 m 443 789 q 642 705 572 789 q 711 469 711 621 q 662 237 711 349 q 525 56 613 125 q 328 -14 438 -14 q 128 68 199 -14 q 58 300 58 150 q 108 538 58 425 q 245 719 157 650 q 443 789 333 789 m 425 722 q 285 660 343 722 q 196 501 226 597 q 165 307 165 404 q 213 119 165 185 q 347 53 260 53 q 485 116 426 53 q 574 275 543 179 q 604 467 604 371 q 559 656 604 589 q 425 722 514 722 z "},"ổ":{"ha":775,"x_min":58,"x_max":853,"o":"m 671 1007 q 658 1056 657 1033 q 674 1082 663 1072 q 711 1107 686 1092 q 744 1127 732 1118 q 763 1150 756 1136 l 764 1157 q 754 1197 768 1181 q 704 1218 740 1214 l 693 1218 q 658 1215 669 1218 l 669 1282 q 692 1288 671 1285 q 726 1292 713 1292 q 819 1266 786 1292 q 853 1193 853 1240 q 850 1168 853 1185 q 823 1119 843 1138 q 767 1079 803 1101 q 751 1069 760 1075 q 731 1056 742 1064 q 713 1014 711 1042 l 671 1007 m 204 869 l 438 1119 l 531 1119 l 668 868 l 629 838 l 471 1039 l 235 839 l 204 869 m 443 789 q 642 705 572 789 q 711 469 711 621 q 662 237 711 349 q 525 56 613 125 q 328 -14 438 -14 q 128 68 199 -14 q 58 300 58 150 q 108 538 58 425 q 245 719 157 650 q 443 789 333 789 m 425 722 q 285 660 343 722 q 196 501 226 597 q 165 307 165 404 q 213 119 165 185 q 347 53 260 53 q 485 116 426 53 q 574 275 543 179 q 604 467 604 371 q 559 656 604 589 q 425 722 514 722 z "},"ỗ":{"ha":775,"x_min":58,"x_max":721,"o":"m 286 1228 q 349 1299 307 1269 q 433 1329 390 1329 q 481 1317 461 1329 q 525 1281 501 1304 q 560 1250 546 1260 q 594 1240 575 1240 q 649 1261 626 1240 q 692 1314 671 1282 l 721 1268 q 665 1191 706 1222 q 575 1160 624 1160 q 522 1172 542 1160 q 476 1210 501 1185 q 445 1240 460 1229 q 410 1250 431 1250 q 308 1186 369 1250 l 286 1228 m 204 869 l 438 1119 l 531 1119 l 668 868 l 629 838 l 471 1039 l 235 839 l 204 869 m 443 789 q 642 705 572 789 q 711 469 711 621 q 662 237 711 349 q 525 56 613 125 q 328 -14 438 -14 q 128 68 199 -14 q 58 300 58 150 q 108 538 58 425 q 245 719 157 650 q 443 789 333 789 m 425 722 q 285 660 343 722 q 196 501 226 597 q 165 307 165 404 q 213 119 165 185 q 347 53 260 53 q 485 116 426 53 q 574 275 543 179 q 604 467 604 371 q 559 656 604 589 q 425 722 514 722 z "},"ö":{"ha":775,"x_min":58,"x_max":711,"o":"m 321 951 q 280 970 297 951 q 263 1017 263 989 q 287 1076 264 1051 q 339 1100 310 1100 q 385 1083 368 1100 q 401 1038 401 1065 q 376 976 400 1001 q 321 951 353 951 m 607 951 q 566 970 583 951 q 549 1017 549 989 q 572 1076 550 1051 q 625 1100 594 1100 q 671 1083 654 1100 q 688 1038 688 1065 q 663 976 686 1001 q 607 951 639 951 m 443 789 q 642 705 572 789 q 711 469 711 621 q 662 237 711 349 q 525 56 613 125 q 328 -14 438 -14 q 128 68 199 -14 q 58 300 58 150 q 108 538 58 425 q 245 719 157 650 q 443 789 333 789 m 425 722 q 285 660 343 722 q 196 501 226 597 q 165 307 165 404 q 213 119 165 185 q 347 53 260 53 q 485 116 426 53 q 574 275 543 179 q 604 467 604 371 q 559 656 604 589 q 425 722 514 722 z "},"ọ":{"ha":775,"x_min":58,"x_max":711,"o":"m 443 789 q 642 705 572 789 q 711 469 711 621 q 662 237 711 349 q 525 56 613 125 q 328 -14 438 -14 q 128 68 199 -14 q 58 300 58 150 q 108 538 58 425 q 245 719 157 650 q 443 789 333 789 m 425 722 q 285 660 343 722 q 196 501 226 597 q 165 307 165 404 q 213 119 165 185 q 347 53 260 53 q 485 116 426 53 q 574 275 543 179 q 604 467 604 371 q 559 656 604 589 q 425 722 514 722 m 240 -219 q 263 -156 240 -182 q 317 -131 286 -131 q 359 -144 344 -131 q 374 -183 374 -158 q 349 -247 374 -222 q 293 -272 325 -272 q 255 -258 269 -272 q 240 -219 240 -244 z "},"ò":{"ha":775,"x_min":58,"x_max":711,"o":"m 443 789 q 642 705 572 789 q 711 469 711 621 q 662 237 711 349 q 525 56 613 125 q 328 -14 438 -14 q 128 68 199 -14 q 58 300 58 150 q 108 538 58 425 q 245 719 157 650 q 443 789 333 789 m 425 722 q 285 660 343 722 q 196 501 226 597 q 165 307 165 404 q 213 119 165 185 q 347 53 260 53 q 485 116 426 53 q 574 275 543 179 q 604 467 604 371 q 559 656 604 589 q 425 722 514 722 m 442 851 q 304 966 390 883 q 193 1093 218 1049 l 271 1172 l 476 885 l 442 851 z "},"ỏ":{"ha":775,"x_min":58,"x_max":711,"o":"m 443 789 q 642 705 572 789 q 711 469 711 621 q 662 237 711 349 q 525 56 613 125 q 328 -14 438 -14 q 128 68 199 -14 q 58 300 58 150 q 108 538 58 425 q 245 719 157 650 q 443 789 333 789 m 425 722 q 285 660 343 722 q 196 501 226 597 q 165 307 165 404 q 213 119 165 185 q 347 53 260 53 q 485 116 426 53 q 574 275 543 179 q 604 467 604 371 q 559 656 604 589 q 425 722 514 722 m 432 838 q 421 865 425 849 q 418 892 417 881 q 436 922 422 910 q 475 947 450 933 q 513 972 500 963 q 532 996 525 981 l 533 1003 q 535 1017 535 1007 q 518 1052 535 1038 q 468 1071 501 1067 l 456 1071 q 418 1067 426 1071 l 429 1140 q 454 1148 432 1144 q 493 1151 476 1151 q 594 1124 558 1151 q 631 1046 631 1096 q 607 970 631 996 q 536 917 583 944 q 497 892 508 900 q 476 846 475 876 l 432 838 z "},"ơ":{"ha":775,"x_min":58,"x_max":803,"o":"m 803 915 q 800 885 803 904 q 747 776 790 822 q 639 708 704 729 q 711 469 711 624 q 662 237 711 349 q 525 56 613 125 q 328 -14 438 -14 q 128 68 199 -14 q 58 300 58 150 q 108 538 58 425 q 245 719 157 650 q 443 789 333 789 q 558 767 510 789 q 656 803 626 771 q 700 892 685 836 q 704 903 701 896 q 706 915 707 911 l 803 915 m 347 53 q 485 116 426 53 q 574 275 543 179 q 604 467 604 371 q 559 656 604 589 q 425 722 514 722 q 285 660 343 722 q 196 501 226 597 q 165 307 165 404 q 213 119 165 185 q 347 53 260 53 z "},"ớ":{"ha":775,"x_min":58,"x_max":803,"o":"m 803 915 q 800 885 803 904 q 747 776 790 822 q 639 708 704 729 q 711 469 711 624 q 662 237 711 349 q 525 56 613 125 q 328 -14 438 -14 q 128 68 199 -14 q 58 300 58 150 q 108 538 58 425 q 245 719 157 650 q 443 789 333 789 q 558 767 510 789 q 656 803 626 771 q 700 892 685 836 q 704 903 701 896 q 706 915 707 911 l 803 915 m 347 53 q 485 116 426 53 q 574 275 543 179 q 604 467 604 371 q 559 656 604 589 q 425 722 514 722 q 285 660 343 722 q 196 501 226 597 q 165 307 165 404 q 213 119 165 185 q 347 53 260 53 m 628 1254 l 701 1181 q 640 1106 688 1157 q 536 1004 592 1054 q 442 933 481 954 l 408 967 l 628 1254 z "},"ợ":{"ha":775,"x_min":58,"x_max":803,"o":"m 803 915 q 800 885 803 904 q 747 776 790 822 q 639 708 704 729 q 711 469 711 624 q 662 237 711 349 q 525 56 613 125 q 328 -14 438 -14 q 128 68 199 -14 q 58 300 58 150 q 108 538 58 425 q 245 719 157 650 q 443 789 333 789 q 558 767 510 789 q 656 803 626 771 q 700 892 685 836 q 704 903 701 896 q 706 915 707 911 l 803 915 m 347 53 q 485 116 426 53 q 574 275 543 179 q 604 467 604 371 q 559 656 604 589 q 425 722 514 722 q 285 660 343 722 q 196 501 226 597 q 165 307 165 404 q 213 119 165 185 q 347 53 260 53 m 240 -219 q 263 -156 240 -182 q 317 -131 286 -131 q 359 -144 344 -131 q 374 -183 374 -158 q 349 -247 374 -222 q 293 -272 325 -272 q 255 -258 269 -272 q 240 -219 240 -244 z "},"ờ":{"ha":775,"x_min":58,"x_max":803,"o":"m 803 915 q 800 885 803 904 q 747 776 790 822 q 639 708 704 729 q 711 469 711 624 q 662 237 711 349 q 525 56 613 125 q 328 -14 438 -14 q 128 68 199 -14 q 58 300 58 150 q 108 538 58 425 q 245 719 157 650 q 443 789 333 789 q 558 767 510 789 q 656 803 626 771 q 700 892 685 836 q 704 903 701 896 q 706 915 707 911 l 803 915 m 347 53 q 485 116 426 53 q 574 275 543 179 q 604 467 604 371 q 559 656 604 589 q 425 722 514 722 q 285 660 343 722 q 196 501 226 597 q 165 307 165 404 q 213 119 165 185 q 347 53 260 53 m 482 933 q 344 1048 431 965 q 233 1175 258 1131 l 311 1254 l 517 967 l 482 933 z "},"ở":{"ha":775,"x_min":58,"x_max":803,"o":"m 803 915 q 800 885 803 904 q 747 776 790 822 q 639 708 704 729 q 711 469 711 624 q 662 237 711 349 q 525 56 613 125 q 328 -14 438 -14 q 128 68 199 -14 q 58 300 58 150 q 108 538 58 425 q 245 719 157 650 q 443 789 333 789 q 558 767 510 789 q 656 803 626 771 q 700 892 685 836 q 704 903 701 896 q 706 915 707 911 l 803 915 m 347 53 q 485 116 426 53 q 574 275 543 179 q 604 467 604 371 q 559 656 604 589 q 425 722 514 722 q 285 660 343 722 q 196 501 226 597 q 165 307 165 404 q 213 119 165 185 q 347 53 260 53 m 432 838 q 421 865 425 849 q 418 892 417 881 q 436 922 422 910 q 475 947 450 933 q 513 972 500 963 q 532 996 525 981 l 533 1003 q 535 1017 535 1007 q 518 1052 535 1038 q 468 1071 501 1067 l 456 1071 q 418 1067 426 1071 l 429 1140 q 454 1148 432 1144 q 493 1151 476 1151 q 594 1124 558 1151 q 631 1046 631 1096 q 607 970 631 996 q 536 917 583 944 q 497 892 508 900 q 476 846 475 876 l 432 838 z "},"ỡ":{"ha":775,"x_min":58,"x_max":803,"o":"m 803 915 q 800 885 803 904 q 747 776 790 822 q 639 708 704 729 q 711 469 711 624 q 662 237 711 349 q 525 56 613 125 q 328 -14 438 -14 q 128 68 199 -14 q 58 300 58 150 q 108 538 58 425 q 245 719 157 650 q 443 789 333 789 q 558 767 510 789 q 656 803 626 771 q 700 892 685 836 q 704 903 701 896 q 706 915 707 911 l 803 915 m 347 53 q 485 116 426 53 q 574 275 543 179 q 604 467 604 371 q 559 656 604 589 q 425 722 514 722 q 285 660 343 722 q 196 501 226 597 q 165 307 165 404 q 213 119 165 185 q 347 53 260 53 m 217 988 q 285 1067 240 1033 q 379 1100 331 1100 q 433 1086 411 1100 q 481 1046 454 1072 q 518 1013 501 1024 q 556 1001 535 1001 q 615 1024 590 1001 q 664 1082 639 1046 l 696 1032 q 633 947 679 982 q 535 913 588 913 q 475 926 497 913 q 426 968 453 940 q 390 1002 404 992 q 353 1013 375 1013 q 242 942 306 1013 l 217 988 z "},"ő":{"ha":775,"x_min":58,"x_max":793,"o":"m 421 1157 l 496 1100 q 413 970 476 1050 q 303 853 349 890 l 260 876 l 421 1157 m 715 1157 l 793 1100 q 704 970 774 1050 q 589 857 635 890 l 542 882 l 715 1157 m 443 789 q 642 705 572 789 q 711 469 711 621 q 662 237 711 349 q 525 56 613 125 q 328 -14 438 -14 q 128 68 199 -14 q 58 300 58 150 q 108 538 58 425 q 245 719 157 650 q 443 789 333 789 m 425 722 q 285 660 343 722 q 196 501 226 597 q 165 307 165 404 q 213 119 165 185 q 347 53 260 53 q 485 116 426 53 q 574 275 543 179 q 604 467 604 371 q 559 656 604 589 q 425 722 514 722 z "},"ō":{"ha":775,"x_min":58,"x_max":711,"o":"m 293 1051 l 639 1051 l 628 971 l 282 971 l 293 1051 m 443 789 q 642 705 572 789 q 711 469 711 621 q 662 237 711 349 q 525 56 613 125 q 328 -14 438 -14 q 128 68 199 -14 q 58 300 58 150 q 108 538 58 425 q 245 719 157 650 q 443 789 333 789 m 425 722 q 285 660 343 722 q 196 501 226 597 q 165 307 165 404 q 213 119 165 185 q 347 53 260 53 q 485 116 426 53 q 574 275 543 179 q 604 467 604 371 q 559 656 604 589 q 425 722 514 722 z "},"ø":{"ha":775,"x_min":58,"x_max":711,"o":"m 611 736 q 711 471 711 656 q 662 238 711 350 q 525 57 613 126 q 328 -12 438 -12 q 190 19 250 -12 l 119 -90 l 72 -64 l 146 53 q 81 156 104 93 q 58 301 58 219 q 108 539 58 426 q 245 721 157 651 q 443 790 333 790 q 564 765 513 790 l 632 876 l 679 849 l 611 736 m 524 693 q 425 724 482 724 q 285 661 343 724 q 196 502 226 599 q 165 308 165 406 q 203 133 165 196 l 524 693 m 233 94 q 347 54 278 54 q 485 117 426 54 q 574 276 543 181 q 604 468 604 372 q 557 658 604 593 l 233 94 z "},"ǿ":{"ha":775,"x_min":58,"x_max":711,"o":"m 611 736 q 711 471 711 656 q 662 238 711 350 q 525 57 613 126 q 328 -12 438 -12 q 190 19 250 -12 l 119 -90 l 72 -64 l 146 53 q 81 156 104 93 q 58 301 58 219 q 108 539 58 426 q 245 721 157 651 q 443 790 333 790 q 564 765 513 790 l 632 876 l 679 849 l 611 736 m 524 693 q 425 724 482 724 q 285 661 343 724 q 196 502 226 599 q 165 308 165 406 q 203 133 165 196 l 524 693 m 233 94 q 347 54 278 54 q 485 117 426 54 q 574 276 543 181 q 604 468 604 372 q 557 658 604 593 l 233 94 m 601 1172 l 675 1099 q 613 1024 661 1075 q 510 922 565 972 q 415 851 454 872 l 382 885 l 601 1172 z "},"õ":{"ha":775,"x_min":58,"x_max":711,"o":"m 443 789 q 642 705 572 789 q 711 469 711 621 q 662 237 711 349 q 525 56 613 125 q 328 -14 438 -14 q 128 68 199 -14 q 58 300 58 150 q 108 538 58 425 q 245 719 157 650 q 443 789 333 789 m 425 722 q 285 660 343 722 q 196 501 226 597 q 165 307 165 404 q 213 119 165 185 q 347 53 260 53 q 485 116 426 53 q 574 275 543 179 q 604 467 604 371 q 559 656 604 589 q 425 722 514 722 m 217 988 q 285 1067 240 1033 q 379 1100 331 1100 q 433 1086 411 1100 q 481 1046 454 1072 q 518 1013 501 1024 q 556 1001 535 1001 q 615 1024 590 1001 q 664 1082 639 1046 l 696 1032 q 633 947 679 982 q 535 913 588 913 q 475 926 497 913 q 426 968 453 940 q 390 1002 404 992 q 353 1013 376 1013 q 242 942 306 1013 l 217 988 z "},"œ":{"ha":1218,"x_min":58,"x_max":1154,"o":"m 1115 126 q 1001 31 1079 76 q 835 -14 924 -14 q 688 25 747 -14 q 599 129 629 64 q 476 24 546 63 q 328 -14 407 -14 q 128 69 197 -14 q 58 304 58 153 q 108 538 58 426 q 245 719 157 650 q 443 788 333 788 q 592 749 531 788 q 683 636 653 710 q 810 747 738 707 q 964 788 882 788 q 1106 741 1057 788 q 1154 619 1154 694 q 1069 453 1154 521 q 871 352 985 386 q 675 317 757 318 q 674 286 674 307 q 716 130 674 197 q 846 63 758 63 q 970 90 906 63 q 1092 172 1035 117 l 1115 126 m 940 725 q 811 671 868 725 q 720 536 754 617 q 678 378 686 456 q 846 409 760 381 q 990 490 932 438 q 1049 610 1049 542 q 1021 696 1049 667 q 940 725 993 725 m 425 722 q 285 659 344 722 q 196 499 226 596 q 165 307 165 403 q 212 119 165 186 q 346 53 258 53 q 478 114 422 53 q 568 274 535 175 q 567 292 567 278 q 577 381 567 325 q 599 472 588 438 q 553 649 593 575 q 425 722 514 722 z "},"p":{"ha":783,"x_min":33,"x_max":724,"o":"m 268 661 q 364 752 306 715 q 492 789 422 789 q 665 708 606 789 q 724 494 724 628 q 671 265 724 383 q 520 66 618 146 q 293 -14 422 -14 q 181 3 253 -14 l 132 -353 l 33 -353 l 175 690 l 101 717 l 111 760 l 257 789 l 282 775 l 268 661 m 192 86 q 310 53 235 53 q 474 120 404 53 q 581 289 544 188 q 617 488 617 390 q 579 653 617 594 q 476 711 542 711 q 352 669 411 711 q 260 574 293 626 l 192 86 z "},"ṗ":{"ha":783,"x_min":33,"x_max":724,"o":"m 268 661 q 364 752 306 715 q 492 789 422 789 q 665 708 606 789 q 724 494 724 628 q 671 265 724 383 q 520 66 618 146 q 293 -14 422 -14 q 181 3 253 -14 l 132 -353 l 33 -353 l 175 690 l 101 717 l 111 760 l 257 789 l 282 775 l 268 661 m 192 86 q 310 53 235 53 q 474 120 404 53 q 581 289 544 188 q 617 488 617 390 q 579 653 617 594 q 476 711 542 711 q 352 669 411 711 q 260 574 293 626 l 192 86 m 492 950 q 449 969 467 950 q 432 1017 432 988 q 457 1076 433 1051 q 508 1100 481 1100 q 554 1083 538 1100 q 569 1038 571 1065 q 547 976 569 1001 q 492 950 524 950 z "},"þ":{"ha":797,"x_min":40,"x_max":738,"o":"m 279 660 q 376 751 315 713 q 507 789 436 789 q 679 708 621 789 q 738 494 738 628 q 685 266 738 385 q 535 67 633 147 q 308 -14 438 -14 q 186 6 258 -14 l 178 -74 l 138 -353 l 40 -353 l 89 -3 l 226 1028 l 161 1051 l 172 1097 l 311 1119 l 339 1103 l 279 660 m 201 88 q 324 53 243 53 q 491 122 421 53 q 597 292 561 190 q 632 488 632 393 q 595 652 632 593 q 490 711 558 711 q 359 665 421 711 q 265 565 297 618 l 201 88 z "},"q":{"ha":781,"x_min":57,"x_max":694,"o":"m 561 -231 q 565 -265 560 -250 q 578 -281 571 -281 q 654 -232 610 -281 l 672 -262 q 614 -319 657 -286 q 522 -351 571 -351 q 458 -269 454 -351 l 507 104 q 409 20 468 54 q 282 -14 350 -14 q 114 66 171 -14 q 57 279 57 146 q 110 509 57 390 q 262 708 163 628 q 492 789 361 789 q 563 781 525 789 q 632 760 601 772 l 694 772 l 561 -231 m 583 692 q 475 722 542 722 q 307 655 378 722 q 199 486 236 588 q 163 288 163 385 q 199 122 163 181 q 299 64 236 64 q 424 104 364 64 q 519 196 483 144 l 583 692 z "},"r":{"ha":567,"x_min":93,"x_max":578,"o":"m 268 593 q 325 678 286 633 q 419 756 364 724 q 533 788 474 788 q 578 779 567 788 l 554 667 q 490 676 536 676 q 358 626 425 676 q 254 482 290 575 l 194 0 l 93 0 l 181 676 l 111 708 l 121 757 l 261 786 l 286 774 l 276 651 l 268 593 z "},"ŕ":{"ha":567,"x_min":93,"x_max":578,"o":"m 429 1172 l 503 1099 q 441 1024 489 1075 q 338 922 393 972 q 243 851 282 872 l 210 885 l 429 1172 m 268 593 q 325 678 286 633 q 419 756 364 724 q 533 788 474 788 q 578 779 567 788 l 554 667 q 490 676 536 676 q 358 626 425 676 q 254 482 290 575 l 194 0 l 93 0 l 181 676 l 111 708 l 121 757 l 261 786 l 286 774 l 276 651 l 268 593 z "},"ř":{"ha":567,"x_min":93,"x_max":611,"o":"m 147 1088 l 189 1119 l 356 933 l 574 1119 l 611 1088 l 394 857 l 303 857 l 147 1088 m 268 593 q 325 678 286 633 q 419 756 364 724 q 533 788 474 788 q 578 779 567 788 l 554 667 q 490 676 536 676 q 358 626 425 676 q 254 482 290 575 l 194 0 l 93 0 l 181 676 l 111 708 l 121 757 l 261 786 l 286 774 l 276 651 l 268 593 z "},"ŗ":{"ha":567,"x_min":13,"x_max":578,"o":"m 13 -344 q 57 -287 39 -324 q 75 -212 75 -251 q 61 -158 75 -183 q 26 -124 47 -132 l 26 -89 l 93 -35 q 149 -86 129 -47 q 168 -174 168 -125 q 149 -270 168 -225 q 102 -344 129 -315 q 51 -379 75 -372 l 13 -357 l 13 -344 m 268 593 q 325 678 286 633 q 419 756 364 724 q 533 788 474 788 q 578 779 567 788 l 554 667 q 490 676 536 676 q 358 626 425 676 q 254 482 290 575 l 194 0 l 93 0 l 181 676 l 111 708 l 121 757 l 261 786 l 286 774 l 276 651 l 268 593 z "},"s":{"ha":590,"x_min":29,"x_max":544,"o":"m 524 669 q 469 701 515 683 q 365 718 422 718 q 256 690 297 718 q 210 608 215 663 q 239 513 206 554 q 331 431 272 472 q 387 388 338 425 q 465 300 436 350 q 494 197 494 250 q 418 42 494 99 q 229 -14 342 -14 q 107 -1 167 -14 q 29 29 47 13 l 47 111 q 126 76 74 92 q 235 60 178 60 q 351 86 304 60 q 397 178 397 113 q 377 247 397 215 q 331 299 357 278 q 261 351 306 319 q 158 447 204 390 q 113 576 113 503 q 147 689 113 640 q 242 763 182 738 q 371 789 301 789 q 472 780 421 789 q 544 761 524 771 l 524 669 z "},"ś":{"ha":599,"x_min":32,"x_max":593,"o":"m 519 1172 l 593 1099 q 531 1024 579 1075 q 428 922 483 972 q 333 851 372 872 l 300 885 l 519 1172 m 526 669 q 472 701 518 683 q 368 718 425 718 q 259 690 300 718 q 213 608 218 663 q 242 513 208 554 q 333 431 275 472 q 390 388 340 425 q 468 300 439 350 q 497 197 497 250 q 421 42 497 99 q 232 -14 344 -14 q 110 -1 169 -14 q 32 29 50 13 l 50 111 q 128 76 76 92 q 238 60 181 60 q 353 86 307 60 q 400 178 400 113 q 380 247 400 215 q 334 299 360 278 q 264 351 308 319 q 161 447 207 390 q 115 576 115 503 q 150 689 115 640 q 244 763 185 738 q 374 789 304 789 q 475 780 424 789 q 547 761 526 771 l 526 669 z "},"š":{"ha":599,"x_min":32,"x_max":631,"o":"m 167 1088 l 208 1119 l 375 933 l 593 1119 l 631 1088 l 414 857 l 322 857 l 167 1088 m 526 669 q 472 701 518 683 q 368 718 425 718 q 259 690 300 718 q 213 608 218 663 q 242 513 208 554 q 333 431 275 472 q 390 388 340 425 q 468 300 439 350 q 497 197 497 250 q 421 42 497 99 q 232 -14 344 -14 q 110 -1 169 -14 q 32 29 50 13 l 50 111 q 128 76 76 92 q 238 60 181 60 q 353 86 307 60 q 400 178 400 113 q 380 247 400 215 q 334 299 360 278 q 264 351 308 319 q 161 447 207 390 q 115 576 115 503 q 150 689 115 640 q 244 763 185 738 q 374 789 304 789 q 475 780 424 789 q 547 761 526 771 l 526 669 z "},"ş":{"ha":590,"x_min":29,"x_max":544,"o":"m 371 789 q 472 780 421 789 q 544 761 524 771 l 524 669 q 469 701 515 683 q 365 718 422 718 q 256 690 297 718 q 210 608 215 663 q 239 513 206 554 q 331 431 272 472 q 387 388 338 425 q 465 300 436 350 q 494 197 494 250 q 438 59 494 113 q 292 -8 382 6 q 304 -92 304 -49 q 253 -259 304 -203 q 122 -315 203 -315 q 71 -310 96 -315 q 35 -296 46 -304 l 43 -214 q 71 -223 51 -219 q 113 -226 90 -226 q 208 -181 175 -226 q 240 -58 240 -135 q 236 -14 240 -33 l 229 -14 q 107 -1 167 -14 q 29 29 47 13 l 47 111 q 126 76 74 92 q 235 60 178 60 q 351 86 304 60 q 397 178 397 113 q 377 247 397 215 q 331 299 357 278 q 261 351 306 319 q 158 447 204 390 q 113 576 113 503 q 147 689 113 640 q 242 763 182 738 q 371 789 301 789 z "},"ŝ":{"ha":599,"x_min":32,"x_max":589,"o":"m 125 869 l 358 1119 l 451 1119 l 589 868 l 550 838 l 392 1039 l 156 839 l 125 869 m 526 669 q 472 701 518 683 q 368 718 425 718 q 259 690 300 718 q 213 608 218 663 q 242 513 208 554 q 333 431 275 472 q 390 388 340 425 q 468 300 439 350 q 497 197 497 250 q 421 42 497 99 q 232 -14 344 -14 q 110 -1 169 -14 q 32 29 50 13 l 50 111 q 128 76 76 92 q 238 60 181 60 q 353 86 307 60 q 400 178 400 113 q 380 247 400 215 q 334 299 360 278 q 264 351 308 319 q 161 447 207 390 q 115 576 115 503 q 150 689 115 640 q 244 763 185 738 q 374 789 304 789 q 475 780 424 789 q 547 761 526 771 l 526 669 z "}}}
